<svg width="1280" height="181" viewBox="0 0 1280 181" fill="none" xmlns="http://www.w3.org/2000/svg">
<rect width="1280" height="181" rx="20" fill="url(#paint0_linear_167_846)"/>
<path d="M145.526 43.6364V96H134.455V54.1449H134.148L122.156 61.6619V51.8438L135.119 43.6364H145.526ZM177.062 97.1506C172.664 97.1335 168.88 96.0511 165.71 93.9034C162.556 91.7557 160.127 88.6449 158.423 84.571C156.735 80.4972 155.9 75.5966 155.917 69.8693C155.917 64.1591 156.761 59.2926 158.448 55.2699C160.153 51.2472 162.582 48.1875 165.735 46.0909C168.906 43.9773 172.681 42.9205 177.062 42.9205C181.443 42.9205 185.21 43.9773 188.363 46.0909C191.534 48.2045 193.971 51.2727 195.676 55.2955C197.38 59.3011 198.224 64.1591 198.207 69.8693C198.207 75.6136 197.355 80.5227 195.65 84.5966C193.963 88.6705 191.542 91.7812 188.389 93.929C185.235 96.0767 181.46 97.1506 177.062 97.1506ZM177.062 87.9716C180.062 87.9716 182.457 86.4631 184.247 83.446C186.037 80.429 186.923 75.9034 186.906 69.8693C186.906 65.8977 186.497 62.5909 185.679 59.9489C184.877 57.3068 183.735 55.321 182.252 53.9915C180.787 52.6619 179.056 51.9972 177.062 51.9972C174.079 51.9972 171.693 53.4886 169.903 56.4716C168.113 59.4545 167.21 63.9205 167.193 69.8693C167.193 73.892 167.593 77.25 168.395 79.9432C169.213 82.6193 170.363 84.6307 171.846 85.9773C173.329 87.3068 175.068 87.9716 177.062 87.9716ZM220.309 88.0227V51.8182H229.462V88.0227H220.309ZM206.783 74.4972V65.3438H242.988V74.4972H206.783Z" fill="white"/>
<path d="M59.071 125.545H62.0625L66.6222 133.48H66.8097L71.3693 125.545H74.3608L68.0284 136.148V143H65.4034V136.148L59.071 125.545ZM80.6086 143.264C79.3188 143.264 78.208 142.989 77.2762 142.438C76.35 141.881 75.6341 141.099 75.1284 140.094C74.6284 139.082 74.3784 137.898 74.3784 136.54C74.3784 135.199 74.6284 134.017 75.1284 132.994C75.6341 131.972 76.3387 131.173 77.2421 130.599C78.1512 130.026 79.2137 129.739 80.4296 129.739C81.1682 129.739 81.8841 129.861 82.5773 130.105C83.2705 130.349 83.8926 130.733 84.4438 131.256C84.9949 131.778 85.4296 132.457 85.7478 133.293C86.0659 134.122 86.225 135.131 86.225 136.318V137.222H75.8188V135.312H83.7279C83.7279 134.642 83.5915 134.048 83.3188 133.531C83.0461 133.009 82.6625 132.597 82.1682 132.295C81.6796 131.994 81.1057 131.844 80.4466 131.844C79.7307 131.844 79.1057 132.02 78.5716 132.372C78.0432 132.719 77.6341 133.173 77.3443 133.736C77.0603 134.293 76.9182 134.898 76.9182 135.551V137.043C76.9182 137.918 77.0716 138.662 77.3784 139.276C77.6909 139.889 78.1256 140.358 78.6824 140.682C79.2392 141 79.8898 141.159 80.6341 141.159C81.1171 141.159 81.5574 141.091 81.9551 140.955C82.3529 140.812 82.6966 140.602 82.9864 140.324C83.2762 140.045 83.4978 139.702 83.6512 139.293L86.0631 139.727C85.8699 140.437 85.5233 141.06 85.0233 141.594C84.529 142.122 83.9068 142.534 83.1568 142.83C82.4125 143.119 81.5631 143.264 80.6086 143.264ZM93.3421 143.29C92.5126 143.29 91.7626 143.136 91.0921 142.83C90.4216 142.517 89.8904 142.065 89.4984 141.474C89.112 140.884 88.9188 140.159 88.9188 139.301C88.9188 138.562 89.0609 137.955 89.3449 137.477C89.629 137 90.0126 136.622 90.4955 136.344C90.9785 136.065 91.5182 135.855 92.1148 135.713C92.7114 135.571 93.3194 135.463 93.9387 135.389C94.7228 135.298 95.3591 135.224 95.8478 135.168C96.3364 135.105 96.6915 135.006 96.9131 134.869C97.1347 134.733 97.2455 134.511 97.2455 134.205V134.145C97.2455 133.401 97.0353 132.824 96.6148 132.415C96.2001 132.006 95.5807 131.801 94.7569 131.801C93.8989 131.801 93.2228 131.991 92.7285 132.372C92.2398 132.747 91.9018 133.165 91.7143 133.625L89.3194 133.08C89.6035 132.284 90.0182 131.642 90.5637 131.153C91.1148 130.659 91.7484 130.301 92.4643 130.08C93.1802 129.852 93.933 129.739 94.7228 129.739C95.2455 129.739 95.7995 129.801 96.3847 129.926C96.9756 130.045 97.5268 130.267 98.0381 130.591C98.5552 130.915 98.9785 131.378 99.308 131.98C99.6376 132.577 99.8023 133.352 99.8023 134.307V143H97.3137V141.21H97.2114C97.0466 141.54 96.7995 141.864 96.4699 142.182C96.1404 142.5 95.7171 142.764 95.2001 142.974C94.683 143.185 94.0637 143.29 93.3421 143.29ZM93.8961 141.244C94.6006 141.244 95.2029 141.105 95.7029 140.827C96.2086 140.548 96.5921 140.185 96.8535 139.736C97.1205 139.281 97.254 138.795 97.254 138.278V136.591C97.1631 136.682 96.987 136.767 96.7256 136.847C96.4699 136.92 96.1773 136.986 95.8478 137.043C95.5182 137.094 95.1972 137.142 94.8847 137.188C94.5722 137.227 94.3109 137.261 94.1006 137.29C93.6063 137.352 93.1546 137.457 92.7455 137.605C92.3421 137.753 92.0182 137.966 91.7739 138.244C91.5353 138.517 91.416 138.881 91.416 139.335C91.416 139.966 91.6489 140.443 92.1148 140.767C92.5807 141.085 93.1745 141.244 93.8961 141.244ZM103.677 143V129.909H106.14V131.989H106.276C106.515 131.284 106.935 130.73 107.537 130.327C108.145 129.918 108.833 129.713 109.6 129.713C109.759 129.713 109.946 129.719 110.162 129.73C110.384 129.741 110.557 129.756 110.682 129.773V132.21C110.58 132.182 110.398 132.151 110.137 132.116C109.875 132.077 109.614 132.057 109.353 132.057C108.75 132.057 108.213 132.185 107.742 132.44C107.276 132.69 106.907 133.04 106.634 133.489C106.361 133.932 106.225 134.437 106.225 135.006V143H103.677ZM123.177 133.105L120.867 133.514C120.771 133.219 120.617 132.937 120.407 132.67C120.203 132.403 119.924 132.185 119.572 132.014C119.22 131.844 118.779 131.759 118.251 131.759C117.529 131.759 116.927 131.92 116.444 132.244C115.961 132.562 115.72 132.974 115.72 133.48C115.72 133.918 115.882 134.27 116.206 134.537C116.529 134.804 117.052 135.023 117.774 135.193L119.853 135.67C121.058 135.949 121.956 136.378 122.546 136.957C123.137 137.537 123.433 138.29 123.433 139.216C123.433 140 123.206 140.699 122.751 141.312C122.302 141.92 121.674 142.398 120.867 142.744C120.066 143.091 119.137 143.264 118.081 143.264C116.615 143.264 115.419 142.952 114.492 142.327C113.566 141.696 112.998 140.801 112.788 139.642L115.251 139.267C115.404 139.909 115.72 140.395 116.197 140.724C116.674 141.048 117.296 141.21 118.063 141.21C118.899 141.21 119.566 141.037 120.066 140.69C120.566 140.338 120.816 139.909 120.816 139.403C120.816 138.994 120.663 138.651 120.356 138.372C120.055 138.094 119.592 137.884 118.967 137.741L116.751 137.256C115.529 136.977 114.626 136.534 114.041 135.926C113.461 135.318 113.171 134.548 113.171 133.616C113.171 132.844 113.387 132.168 113.819 131.588C114.251 131.009 114.848 130.557 115.609 130.233C116.37 129.903 117.242 129.739 118.225 129.739C119.64 129.739 120.754 130.045 121.566 130.659C122.379 131.267 122.916 132.082 123.177 133.105ZM139.06 143.264C137.833 143.264 136.762 142.983 135.847 142.42C134.933 141.858 134.222 141.071 133.717 140.06C133.211 139.048 132.958 137.866 132.958 136.514C132.958 135.156 133.211 133.969 133.717 132.952C134.222 131.935 134.933 131.145 135.847 130.582C136.762 130.02 137.833 129.739 139.06 129.739C140.288 129.739 141.359 130.02 142.273 130.582C143.188 131.145 143.898 131.935 144.404 132.952C144.91 133.969 145.163 135.156 145.163 136.514C145.163 137.866 144.91 139.048 144.404 140.06C143.898 141.071 143.188 141.858 142.273 142.42C141.359 142.983 140.288 143.264 139.06 143.264ZM139.069 141.125C139.864 141.125 140.523 140.915 141.046 140.494C141.569 140.074 141.955 139.514 142.205 138.815C142.461 138.116 142.589 137.347 142.589 136.506C142.589 135.67 142.461 134.903 142.205 134.205C141.955 133.5 141.569 132.935 141.046 132.509C140.523 132.082 139.864 131.869 139.069 131.869C138.268 131.869 137.603 132.082 137.075 132.509C136.552 132.935 136.163 133.5 135.907 134.205C135.657 134.903 135.532 135.67 135.532 136.506C135.532 137.347 135.657 138.116 135.907 138.815C136.163 139.514 136.552 140.074 137.075 140.494C137.603 140.915 138.268 141.125 139.069 141.125ZM154.717 129.909V131.955H147.32V129.909H154.717ZM149.348 143V128.392C149.348 127.574 149.527 126.895 149.885 126.355C150.243 125.81 150.717 125.403 151.308 125.136C151.899 124.864 152.541 124.727 153.234 124.727C153.746 124.727 154.183 124.77 154.547 124.855C154.91 124.935 155.18 125.009 155.356 125.077L154.76 127.139C154.641 127.105 154.487 127.065 154.3 127.02C154.112 126.969 153.885 126.943 153.618 126.943C152.998 126.943 152.555 127.097 152.288 127.403C152.027 127.71 151.896 128.153 151.896 128.733V143H149.348ZM164.863 143V125.545H175.806V127.812H167.496V133.131H175.235V135.389H167.496V140.733H175.908V143H164.863ZM181.61 129.909L184.5 135.006L187.414 129.909H190.201L186.119 136.455L190.235 143H187.448L184.5 138.108L181.559 143H178.764L182.838 136.455L178.815 129.909H181.61ZM193.298 147.909V129.909H195.786V132.031H195.999C196.147 131.759 196.36 131.443 196.639 131.085C196.917 130.727 197.303 130.415 197.798 130.148C198.292 129.875 198.945 129.739 199.758 129.739C200.815 129.739 201.758 130.006 202.588 130.54C203.417 131.074 204.068 131.844 204.539 132.849C205.017 133.855 205.255 135.065 205.255 136.48C205.255 137.895 205.019 139.108 204.548 140.119C204.076 141.125 203.428 141.901 202.605 142.446C201.781 142.986 200.84 143.256 199.784 143.256C198.988 143.256 198.338 143.122 197.832 142.855C197.332 142.588 196.94 142.276 196.656 141.918C196.372 141.56 196.153 141.241 195.999 140.963H195.846V147.909H193.298ZM195.795 136.455C195.795 137.375 195.928 138.182 196.195 138.875C196.463 139.568 196.849 140.111 197.355 140.503C197.86 140.889 198.48 141.082 199.213 141.082C199.974 141.082 200.61 140.881 201.122 140.477C201.633 140.068 202.019 139.514 202.281 138.815C202.548 138.116 202.681 137.33 202.681 136.455C202.681 135.591 202.551 134.815 202.289 134.128C202.034 133.44 201.647 132.898 201.13 132.5C200.619 132.102 199.98 131.903 199.213 131.903C198.474 131.903 197.849 132.094 197.338 132.474C196.832 132.855 196.448 133.386 196.187 134.068C195.926 134.75 195.795 135.545 195.795 136.455ZM214.232 143.264C212.943 143.264 211.832 142.989 210.9 142.438C209.974 141.881 209.258 141.099 208.752 140.094C208.252 139.082 208.002 137.898 208.002 136.54C208.002 135.199 208.252 134.017 208.752 132.994C209.258 131.972 209.962 131.173 210.866 130.599C211.775 130.026 212.837 129.739 214.053 129.739C214.792 129.739 215.508 129.861 216.201 130.105C216.894 130.349 217.516 130.733 218.068 131.256C218.619 131.778 219.053 132.457 219.372 133.293C219.69 134.122 219.849 135.131 219.849 136.318V137.222H209.443V135.312H217.352C217.352 134.642 217.215 134.048 216.943 133.531C216.67 133.009 216.286 132.597 215.792 132.295C215.303 131.994 214.729 131.844 214.07 131.844C213.354 131.844 212.729 132.02 212.195 132.372C211.667 132.719 211.258 133.173 210.968 133.736C210.684 134.293 210.542 134.898 210.542 135.551V137.043C210.542 137.918 210.695 138.662 211.002 139.276C211.315 139.889 211.749 140.358 212.306 140.682C212.863 141 213.514 141.159 214.258 141.159C214.741 141.159 215.181 141.091 215.579 140.955C215.977 140.812 216.32 140.602 216.61 140.324C216.9 140.045 217.122 139.702 217.275 139.293L219.687 139.727C219.494 140.437 219.147 141.06 218.647 141.594C218.153 142.122 217.531 142.534 216.781 142.83C216.036 143.119 215.187 143.264 214.232 143.264ZM223.156 143V129.909H225.619V131.989H225.756C225.994 131.284 226.415 130.73 227.017 130.327C227.625 129.918 228.312 129.713 229.079 129.713C229.239 129.713 229.426 129.719 229.642 129.73C229.864 129.741 230.037 129.756 230.162 129.773V132.21C230.06 132.182 229.878 132.151 229.616 132.116C229.355 132.077 229.094 132.057 228.832 132.057C228.23 132.057 227.693 132.185 227.222 132.44C226.756 132.69 226.386 133.04 226.114 133.489C225.841 133.932 225.704 134.437 225.704 135.006V143H223.156ZM232.847 143V129.909H235.395V143H232.847ZM234.134 127.889C233.691 127.889 233.31 127.741 232.992 127.446C232.68 127.145 232.523 126.787 232.523 126.372C232.523 125.952 232.68 125.594 232.992 125.298C233.31 124.997 233.691 124.847 234.134 124.847C234.577 124.847 234.955 124.997 235.268 125.298C235.586 125.594 235.745 125.952 235.745 126.372C235.745 126.787 235.586 127.145 235.268 127.446C234.955 127.741 234.577 127.889 234.134 127.889ZM244.946 143.264C243.656 143.264 242.545 142.989 241.613 142.438C240.687 141.881 239.971 141.099 239.466 140.094C238.966 139.082 238.716 137.898 238.716 136.54C238.716 135.199 238.966 134.017 239.466 132.994C239.971 131.972 240.676 131.173 241.579 130.599C242.488 130.026 243.551 129.739 244.767 129.739C245.505 129.739 246.221 129.861 246.914 130.105C247.608 130.349 248.23 130.733 248.781 131.256C249.332 131.778 249.767 132.457 250.085 133.293C250.403 134.122 250.562 135.131 250.562 136.318V137.222H240.156V135.312H248.065C248.065 134.642 247.929 134.048 247.656 133.531C247.383 133.009 247 132.597 246.505 132.295C246.017 131.994 245.443 131.844 244.784 131.844C244.068 131.844 243.443 132.02 242.909 132.372C242.38 132.719 241.971 133.173 241.682 133.736C241.397 134.293 241.255 134.898 241.255 135.551V137.043C241.255 137.918 241.409 138.662 241.716 139.276C242.028 139.889 242.463 140.358 243.02 140.682C243.576 141 244.227 141.159 244.971 141.159C245.454 141.159 245.895 141.091 246.292 140.955C246.69 140.812 247.034 140.602 247.324 140.324C247.613 140.045 247.835 139.702 247.988 139.293L250.4 139.727C250.207 140.437 249.861 141.06 249.361 141.594C248.866 142.122 248.244 142.534 247.494 142.83C246.75 143.119 245.9 143.264 244.946 143.264ZM256.418 135.227V143H253.87V129.909H256.316V132.04H256.478C256.779 131.347 257.25 130.79 257.892 130.369C258.54 129.949 259.355 129.739 260.338 129.739C261.23 129.739 262.012 129.926 262.682 130.301C263.353 130.67 263.872 131.222 264.242 131.955C264.611 132.687 264.796 133.594 264.796 134.673V143H262.247V134.98C262.247 134.031 262 133.29 261.506 132.756C261.012 132.216 260.333 131.946 259.469 131.946C258.878 131.946 258.353 132.074 257.892 132.33C257.438 132.585 257.077 132.96 256.81 133.455C256.549 133.943 256.418 134.534 256.418 135.227ZM274.208 143.264C272.941 143.264 271.85 142.977 270.935 142.403C270.026 141.824 269.327 141.026 268.838 140.009C268.35 138.991 268.105 137.827 268.105 136.514C268.105 135.185 268.355 134.011 268.855 132.994C269.355 131.972 270.06 131.173 270.969 130.599C271.878 130.026 272.949 129.739 274.182 129.739C275.176 129.739 276.063 129.923 276.841 130.293C277.62 130.656 278.247 131.168 278.725 131.827C279.208 132.486 279.495 133.256 279.585 134.136H277.105C276.969 133.523 276.656 132.994 276.168 132.551C275.685 132.108 275.037 131.886 274.225 131.886C273.514 131.886 272.892 132.074 272.358 132.449C271.83 132.818 271.418 133.347 271.122 134.034C270.827 134.716 270.679 135.523 270.679 136.455C270.679 137.409 270.824 138.233 271.114 138.926C271.404 139.619 271.813 140.156 272.341 140.537C272.875 140.918 273.503 141.108 274.225 141.108C274.708 141.108 275.145 141.02 275.537 140.844C275.935 140.662 276.267 140.403 276.534 140.068C276.807 139.733 276.997 139.33 277.105 138.858H279.585C279.495 139.705 279.219 140.46 278.759 141.125C278.298 141.79 277.682 142.312 276.909 142.693C276.142 143.074 275.242 143.264 274.208 143.264ZM288.433 143.264C287.143 143.264 286.032 142.989 285.1 142.438C284.174 141.881 283.458 141.099 282.952 140.094C282.452 139.082 282.202 137.898 282.202 136.54C282.202 135.199 282.452 134.017 282.952 132.994C283.458 131.972 284.163 131.173 285.066 130.599C285.975 130.026 287.038 129.739 288.254 129.739C288.992 129.739 289.708 129.861 290.401 130.105C291.095 130.349 291.717 130.733 292.268 131.256C292.819 131.778 293.254 132.457 293.572 133.293C293.89 134.122 294.049 135.131 294.049 136.318V137.222H283.643V135.312H291.552C291.552 134.642 291.416 134.048 291.143 133.531C290.87 133.009 290.487 132.597 289.992 132.295C289.504 131.994 288.93 131.844 288.271 131.844C287.555 131.844 286.93 132.02 286.396 132.372C285.867 132.719 285.458 133.173 285.168 133.736C284.884 134.293 284.742 134.898 284.742 135.551V137.043C284.742 137.918 284.896 138.662 285.202 139.276C285.515 139.889 285.95 140.358 286.506 140.682C287.063 141 287.714 141.159 288.458 141.159C288.941 141.159 289.381 141.091 289.779 140.955C290.177 140.812 290.521 140.602 290.81 140.324C291.1 140.045 291.322 139.702 291.475 139.293L293.887 139.727C293.694 140.437 293.347 141.06 292.847 141.594C292.353 142.122 291.731 142.534 290.981 142.83C290.237 143.119 289.387 143.264 288.433 143.264ZM307.166 133.105L304.857 133.514C304.76 133.219 304.607 132.937 304.396 132.67C304.192 132.403 303.913 132.185 303.561 132.014C303.209 131.844 302.768 131.759 302.24 131.759C301.518 131.759 300.916 131.92 300.433 132.244C299.95 132.562 299.709 132.974 299.709 133.48C299.709 133.918 299.871 134.27 300.195 134.537C300.518 134.804 301.041 135.023 301.763 135.193L303.842 135.67C305.047 135.949 305.945 136.378 306.535 136.957C307.126 137.537 307.422 138.29 307.422 139.216C307.422 140 307.195 140.699 306.74 141.312C306.291 141.92 305.663 142.398 304.857 142.744C304.055 143.091 303.126 143.264 302.07 143.264C300.604 143.264 299.408 142.952 298.482 142.327C297.555 141.696 296.987 140.801 296.777 139.642L299.24 139.267C299.393 139.909 299.709 140.395 300.186 140.724C300.663 141.048 301.285 141.21 302.053 141.21C302.888 141.21 303.555 141.037 304.055 140.69C304.555 140.338 304.805 139.909 304.805 139.403C304.805 138.994 304.652 138.651 304.345 138.372C304.044 138.094 303.581 137.884 302.956 137.741L300.74 137.256C299.518 136.977 298.615 136.534 298.03 135.926C297.45 135.318 297.16 134.548 297.16 133.616C297.16 132.844 297.376 132.168 297.808 131.588C298.24 131.009 298.837 130.557 299.598 130.233C300.359 129.903 301.232 129.739 302.214 129.739C303.629 129.739 304.743 130.045 305.555 130.659C306.368 131.267 306.905 132.082 307.166 133.105Z" fill="#F3F3F3"/>
<path d="M418.341 96.7159C415.648 96.6989 413.048 96.2472 410.543 95.3608C408.054 94.4744 405.821 93.0341 403.844 91.0398C401.866 89.0455 400.298 86.4034 399.139 83.1136C397.997 79.8239 397.426 75.7841 397.426 70.9943C397.443 66.5966 397.946 62.6676 398.935 59.2074C399.94 55.7301 401.372 52.7812 403.23 50.3608C405.105 47.9403 407.347 46.0994 409.955 44.8381C412.563 43.5597 415.486 42.9205 418.724 42.9205C422.219 42.9205 425.304 43.6023 427.98 44.9659C430.656 46.3125 432.804 48.1449 434.423 50.4631C436.06 52.7812 437.048 55.3807 437.389 58.2614H426.472C426.045 56.4375 425.151 55.0057 423.787 53.9659C422.423 52.9261 420.736 52.4062 418.724 52.4062C415.315 52.4062 412.724 53.8892 410.952 56.8551C409.196 59.821 408.301 63.8523 408.267 68.9489H408.625C409.409 67.3977 410.466 66.0767 411.795 64.9858C413.142 63.8778 414.668 63.0341 416.372 62.4545C418.094 61.858 419.909 61.5597 421.818 61.5597C424.92 61.5597 427.682 62.2926 430.102 63.7585C432.523 65.2074 434.432 67.2017 435.83 69.7415C437.227 72.2812 437.926 75.1875 437.926 78.4602C437.926 82.0057 437.099 85.1591 435.446 87.9205C433.81 90.6818 431.517 92.8466 428.568 94.4148C425.636 95.9659 422.227 96.733 418.341 96.7159ZM418.29 88.0227C419.994 88.0227 421.52 87.6136 422.866 86.7955C424.213 85.9773 425.27 84.8693 426.037 83.4716C426.804 82.0739 427.188 80.5057 427.188 78.767C427.188 77.0284 426.804 75.4687 426.037 74.0881C425.287 72.7074 424.247 71.608 422.918 70.7898C421.588 69.9716 420.071 69.5625 418.366 69.5625C417.088 69.5625 415.903 69.8011 414.812 70.2784C413.739 70.7557 412.793 71.4205 411.974 72.2727C411.173 73.125 410.543 74.1136 410.082 75.2386C409.622 76.3466 409.392 77.5312 409.392 78.7926C409.392 80.4801 409.776 82.0227 410.543 83.4205C411.327 84.8182 412.384 85.9347 413.713 86.7699C415.06 87.6051 416.585 88.0227 418.29 88.0227ZM464.432 96.7159C461.739 96.6989 459.14 96.2472 456.634 95.3608C454.145 94.4744 451.912 93.0341 449.935 91.0398C447.958 89.0455 446.39 86.4034 445.23 83.1136C444.088 79.8239 443.517 75.7841 443.517 70.9943C443.534 66.5966 444.037 62.6676 445.026 59.2074C446.032 55.7301 447.463 52.7812 449.321 50.3608C451.196 47.9403 453.438 46.0994 456.046 44.8381C458.654 43.5597 461.577 42.9205 464.816 42.9205C468.31 42.9205 471.395 43.6023 474.071 44.9659C476.748 46.3125 478.895 48.1449 480.515 50.4631C482.151 52.7812 483.14 55.3807 483.48 58.2614H472.563C472.137 56.4375 471.242 55.0057 469.878 53.9659C468.515 52.9261 466.827 52.4062 464.816 52.4062C461.407 52.4062 458.816 53.8892 457.043 56.8551C455.287 59.821 454.392 63.8523 454.358 68.9489H454.716C455.5 67.3977 456.557 66.0767 457.887 64.9858C459.233 63.8778 460.759 63.0341 462.463 62.4545C464.185 61.858 466 61.5597 467.909 61.5597C471.012 61.5597 473.773 62.2926 476.194 63.7585C478.614 65.2074 480.523 67.2017 481.921 69.7415C483.319 72.2812 484.017 75.1875 484.017 78.4602C484.017 82.0057 483.191 85.1591 481.537 87.9205C479.901 90.6818 477.608 92.8466 474.659 94.4148C471.728 95.9659 468.319 96.733 464.432 96.7159ZM464.381 88.0227C466.086 88.0227 467.611 87.6136 468.958 86.7955C470.304 85.9773 471.361 84.8693 472.128 83.4716C472.895 82.0739 473.279 80.5057 473.279 78.767C473.279 77.0284 472.895 75.4687 472.128 74.0881C471.378 72.7074 470.338 71.608 469.009 70.7898C467.679 69.9716 466.162 69.5625 464.458 69.5625C463.179 69.5625 461.995 69.8011 460.904 70.2784C459.83 70.7557 458.884 71.4205 458.066 72.2727C457.265 73.125 456.634 74.1136 456.174 75.2386C455.713 76.3466 455.483 77.5312 455.483 78.7926C455.483 80.4801 455.867 82.0227 456.634 83.4205C457.418 84.8182 458.475 85.9347 459.804 86.7699C461.151 87.6051 462.676 88.0227 464.381 88.0227ZM510.523 96.7159C507.83 96.6989 505.231 96.2472 502.725 95.3608C500.236 94.4744 498.004 93.0341 496.026 91.0398C494.049 89.0455 492.481 86.4034 491.322 83.1136C490.18 79.8239 489.609 75.7841 489.609 70.9943C489.626 66.5966 490.129 62.6676 491.117 59.2074C492.123 55.7301 493.555 52.7812 495.413 50.3608C497.288 47.9403 499.529 46.0994 502.137 44.8381C504.745 43.5597 507.668 42.9205 510.907 42.9205C514.401 42.9205 517.486 43.6023 520.163 44.9659C522.839 46.3125 524.986 48.1449 526.606 50.4631C528.242 52.7812 529.231 55.3807 529.572 58.2614H518.654C518.228 56.4375 517.333 55.0057 515.969 53.9659C514.606 52.9261 512.918 52.4062 510.907 52.4062C507.498 52.4062 504.907 53.8892 503.134 56.8551C501.379 59.821 500.484 63.8523 500.45 68.9489H500.808C501.592 67.3977 502.648 66.0767 503.978 64.9858C505.325 63.8778 506.85 63.0341 508.555 62.4545C510.276 61.858 512.092 61.5597 514.001 61.5597C517.103 61.5597 519.864 62.2926 522.285 63.7585C524.705 65.2074 526.614 67.2017 528.012 69.7415C529.41 72.2812 530.109 75.1875 530.109 78.4602C530.109 82.0057 529.282 85.1591 527.629 87.9205C525.992 90.6818 523.7 92.8466 520.751 94.4148C517.819 95.9659 514.41 96.733 510.523 96.7159ZM510.472 88.0227C512.177 88.0227 513.702 87.6136 515.049 86.7955C516.396 85.9773 517.452 84.8693 518.219 83.4716C518.986 82.0739 519.37 80.5057 519.37 78.767C519.37 77.0284 518.986 75.4687 518.219 74.0881C517.469 72.7074 516.43 71.608 515.1 70.7898C513.771 69.9716 512.254 69.5625 510.549 69.5625C509.271 69.5625 508.086 69.8011 506.995 70.2784C505.921 70.7557 504.975 71.4205 504.157 72.2727C503.356 73.125 502.725 74.1136 502.265 75.2386C501.805 76.3466 501.575 77.5312 501.575 78.7926C501.575 80.4801 501.958 82.0227 502.725 83.4205C503.509 84.8182 504.566 85.9347 505.896 86.7699C507.242 87.6051 508.768 88.0227 510.472 88.0227ZM552.166 88.0227V51.8182H561.319V88.0227H552.166ZM538.64 74.4972V65.3438H574.845V74.4972H538.64Z" fill="white"/>
<path d="M378.918 143V125.545H385.139C386.497 125.545 387.622 125.793 388.514 126.287C389.406 126.781 390.074 127.457 390.517 128.315C390.96 129.168 391.182 130.128 391.182 131.196C391.182 132.27 390.957 133.236 390.509 134.094C390.065 134.946 389.395 135.622 388.497 136.122C387.605 136.616 386.483 136.864 385.131 136.864H380.852V134.631H384.892C385.75 134.631 386.446 134.483 386.98 134.188C387.514 133.886 387.906 133.477 388.156 132.96C388.406 132.443 388.531 131.855 388.531 131.196C388.531 130.537 388.406 129.952 388.156 129.44C387.906 128.929 387.511 128.528 386.972 128.239C386.438 127.949 385.733 127.804 384.858 127.804H381.551V143H378.918ZM394.545 143V129.909H397.008V131.989H397.144C397.383 131.284 397.803 130.73 398.405 130.327C399.013 129.918 399.701 129.713 400.468 129.713C400.627 129.713 400.815 129.719 401.03 129.73C401.252 129.741 401.425 129.756 401.55 129.773V132.21C401.448 132.182 401.266 132.151 401.005 132.116C400.743 132.077 400.482 132.057 400.221 132.057C399.618 132.057 399.082 132.185 398.61 132.44C398.144 132.69 397.775 133.04 397.502 133.489C397.229 133.932 397.093 134.437 397.093 135.006V143H394.545ZM409.281 143.264C408.054 143.264 406.983 142.983 406.068 142.42C405.153 141.858 404.443 141.071 403.937 140.06C403.432 139.048 403.179 137.866 403.179 136.514C403.179 135.156 403.432 133.969 403.937 132.952C404.443 131.935 405.153 131.145 406.068 130.582C406.983 130.02 408.054 129.739 409.281 129.739C410.508 129.739 411.579 130.02 412.494 130.582C413.409 131.145 414.119 131.935 414.625 132.952C415.13 133.969 415.383 135.156 415.383 136.514C415.383 137.866 415.13 139.048 414.625 140.06C414.119 141.071 413.409 141.858 412.494 142.42C411.579 142.983 410.508 143.264 409.281 143.264ZM409.29 141.125C410.085 141.125 410.744 140.915 411.267 140.494C411.79 140.074 412.176 139.514 412.426 138.815C412.682 138.116 412.809 137.347 412.809 136.506C412.809 135.67 412.682 134.903 412.426 134.205C412.176 133.5 411.79 132.935 411.267 132.509C410.744 132.082 410.085 131.869 409.29 131.869C408.488 131.869 407.824 132.082 407.295 132.509C406.772 132.935 406.383 133.5 406.128 134.205C405.878 134.903 405.753 135.67 405.753 136.506C405.753 137.347 405.878 138.116 406.128 138.815C406.383 139.514 406.772 140.074 407.295 140.494C407.824 140.915 408.488 141.125 409.29 141.125ZM418.708 129.909H421.256V143.852C421.256 144.727 421.097 145.466 420.779 146.068C420.466 146.67 420 147.128 419.381 147.44C418.767 147.753 418.009 147.909 417.105 147.909C417.015 147.909 416.929 147.909 416.85 147.909C416.765 147.909 416.677 147.906 416.586 147.901V145.71C416.665 145.71 416.736 145.71 416.799 145.71C416.855 145.71 416.921 145.71 416.995 145.71C417.597 145.71 418.032 145.548 418.299 145.224C418.571 144.906 418.708 144.443 418.708 143.835V129.909ZM419.969 127.889C419.526 127.889 419.145 127.741 418.827 127.446C418.515 127.145 418.358 126.787 418.358 126.372C418.358 125.952 418.515 125.594 418.827 125.298C419.145 124.997 419.526 124.847 419.969 124.847C420.412 124.847 420.79 124.997 421.103 125.298C421.421 125.594 421.58 125.952 421.58 126.372C421.58 126.787 421.421 127.145 421.103 127.446C420.79 127.741 420.412 127.889 419.969 127.889ZM430.806 143.264C429.517 143.264 428.406 142.989 427.474 142.438C426.548 141.881 425.832 141.099 425.326 140.094C424.826 139.082 424.576 137.898 424.576 136.54C424.576 135.199 424.826 134.017 425.326 132.994C425.832 131.972 426.536 131.173 427.44 130.599C428.349 130.026 429.411 129.739 430.627 129.739C431.366 129.739 432.082 129.861 432.775 130.105C433.468 130.349 434.09 130.733 434.642 131.256C435.193 131.778 435.627 132.457 435.946 133.293C436.264 134.122 436.423 135.131 436.423 136.318V137.222H426.017V135.312H433.926C433.926 134.642 433.789 134.048 433.517 133.531C433.244 133.009 432.86 132.597 432.366 132.295C431.877 131.994 431.304 131.844 430.644 131.844C429.929 131.844 429.304 132.02 428.769 132.372C428.241 132.719 427.832 133.173 427.542 133.736C427.258 134.293 427.116 134.898 427.116 135.551V137.043C427.116 137.918 427.269 138.662 427.576 139.276C427.889 139.889 428.323 140.358 428.88 140.682C429.437 141 430.088 141.159 430.832 141.159C431.315 141.159 431.755 141.091 432.153 140.955C432.551 140.812 432.894 140.602 433.184 140.324C433.474 140.045 433.696 139.702 433.849 139.293L436.261 139.727C436.068 140.437 435.721 141.06 435.221 141.594C434.727 142.122 434.105 142.534 433.355 142.83C432.61 143.119 431.761 143.264 430.806 143.264ZM445.244 143.264C443.977 143.264 442.887 142.977 441.972 142.403C441.063 141.824 440.364 141.026 439.875 140.009C439.387 138.991 439.142 137.827 439.142 136.514C439.142 135.185 439.392 134.011 439.892 132.994C440.392 131.972 441.097 131.173 442.006 130.599C442.915 130.026 443.986 129.739 445.219 129.739C446.213 129.739 447.1 129.923 447.878 130.293C448.656 130.656 449.284 131.168 449.762 131.827C450.244 132.486 450.531 133.256 450.622 134.136H448.142C448.006 133.523 447.693 132.994 447.205 132.551C446.722 132.108 446.074 131.886 445.262 131.886C444.551 131.886 443.929 132.074 443.395 132.449C442.867 132.818 442.455 133.347 442.159 134.034C441.864 134.716 441.716 135.523 441.716 136.455C441.716 137.409 441.861 138.233 442.151 138.926C442.44 139.619 442.85 140.156 443.378 140.537C443.912 140.918 444.54 141.108 445.262 141.108C445.744 141.108 446.182 141.02 446.574 140.844C446.972 140.662 447.304 140.403 447.571 140.068C447.844 139.733 448.034 139.33 448.142 138.858H450.622C450.531 139.705 450.256 140.46 449.796 141.125C449.335 141.79 448.719 142.312 447.946 142.693C447.179 143.074 446.279 143.264 445.244 143.264ZM459.938 129.909V131.955H452.788V129.909H459.938ZM454.705 126.773H457.254V139.156C457.254 139.651 457.327 140.023 457.475 140.273C457.623 140.517 457.813 140.685 458.046 140.776C458.285 140.861 458.543 140.903 458.822 140.903C459.026 140.903 459.205 140.889 459.359 140.861C459.512 140.832 459.631 140.81 459.717 140.793L460.177 142.898C460.029 142.955 459.819 143.011 459.546 143.068C459.273 143.131 458.933 143.165 458.523 143.17C457.853 143.182 457.228 143.062 456.648 142.812C456.069 142.562 455.6 142.176 455.242 141.653C454.884 141.131 454.705 140.474 454.705 139.685V126.773ZM484.77 131.222H482.111C482.009 130.653 481.819 130.153 481.54 129.722C481.262 129.29 480.921 128.923 480.518 128.622C480.114 128.321 479.662 128.094 479.162 127.94C478.668 127.787 478.143 127.71 477.586 127.71C476.58 127.71 475.679 127.963 474.884 128.469C474.094 128.974 473.469 129.716 473.009 130.693C472.554 131.67 472.327 132.864 472.327 134.273C472.327 135.693 472.554 136.892 473.009 137.869C473.469 138.847 474.097 139.585 474.893 140.085C475.688 140.585 476.583 140.835 477.577 140.835C478.128 140.835 478.651 140.761 479.145 140.614C479.645 140.46 480.097 140.236 480.501 139.94C480.904 139.645 481.245 139.284 481.523 138.858C481.807 138.426 482.003 137.932 482.111 137.375L484.77 137.384C484.628 138.241 484.353 139.031 483.944 139.753C483.54 140.469 483.02 141.088 482.384 141.611C481.753 142.128 481.032 142.528 480.219 142.812C479.407 143.097 478.52 143.239 477.56 143.239C476.049 143.239 474.702 142.881 473.52 142.165C472.339 141.443 471.407 140.412 470.725 139.071C470.049 137.73 469.711 136.131 469.711 134.273C469.711 132.409 470.052 130.81 470.733 129.474C471.415 128.134 472.347 127.105 473.529 126.389C474.711 125.668 476.054 125.307 477.56 125.307C478.486 125.307 479.35 125.44 480.151 125.707C480.958 125.969 481.682 126.355 482.324 126.866C482.966 127.372 483.498 127.991 483.918 128.724C484.339 129.452 484.623 130.284 484.77 131.222ZM493.711 143.264C492.484 143.264 491.413 142.983 490.498 142.42C489.583 141.858 488.873 141.071 488.368 140.06C487.862 139.048 487.609 137.866 487.609 136.514C487.609 135.156 487.862 133.969 488.368 132.952C488.873 131.935 489.583 131.145 490.498 130.582C491.413 130.02 492.484 129.739 493.711 129.739C494.939 129.739 496.01 130.02 496.924 130.582C497.839 131.145 498.549 131.935 499.055 132.952C499.561 133.969 499.814 135.156 499.814 136.514C499.814 137.866 499.561 139.048 499.055 140.06C498.549 141.071 497.839 141.858 496.924 142.42C496.01 142.983 494.939 143.264 493.711 143.264ZM493.72 141.125C494.515 141.125 495.174 140.915 495.697 140.494C496.22 140.074 496.606 139.514 496.856 138.815C497.112 138.116 497.24 137.347 497.24 136.506C497.24 135.67 497.112 134.903 496.856 134.205C496.606 133.5 496.22 132.935 495.697 132.509C495.174 132.082 494.515 131.869 493.72 131.869C492.919 131.869 492.254 132.082 491.726 132.509C491.203 132.935 490.814 133.5 490.558 134.205C490.308 134.903 490.183 135.67 490.183 136.506C490.183 137.347 490.308 138.116 490.558 138.815C490.814 139.514 491.203 140.074 491.726 140.494C492.254 140.915 492.919 141.125 493.72 141.125ZM503.138 143V129.909H505.584V132.04H505.746C506.019 131.318 506.465 130.756 507.084 130.352C507.703 129.943 508.445 129.739 509.309 129.739C510.184 129.739 510.916 129.943 511.507 130.352C512.104 130.761 512.544 131.324 512.828 132.04H512.965C513.277 131.341 513.774 130.784 514.456 130.369C515.138 129.949 515.951 129.739 516.894 129.739C518.081 129.739 519.05 130.111 519.8 130.855C520.556 131.599 520.934 132.722 520.934 134.222V143H518.385V134.46C518.385 133.574 518.144 132.932 517.661 132.534C517.178 132.136 516.601 131.938 515.931 131.938C515.101 131.938 514.456 132.193 513.996 132.705C513.536 133.21 513.306 133.861 513.306 134.656V143H510.766V134.298C510.766 133.588 510.544 133.017 510.101 132.585C509.658 132.153 509.081 131.938 508.371 131.938C507.888 131.938 507.442 132.065 507.033 132.321C506.63 132.571 506.303 132.92 506.053 133.369C505.809 133.818 505.686 134.338 505.686 134.929V143H503.138ZM524.829 147.909V129.909H527.318V132.031H527.531C527.678 131.759 527.892 131.443 528.17 131.085C528.448 130.727 528.835 130.415 529.329 130.148C529.823 129.875 530.477 129.739 531.289 129.739C532.346 129.739 533.289 130.006 534.119 130.54C534.948 131.074 535.599 131.844 536.07 132.849C536.548 133.855 536.786 135.065 536.786 136.48C536.786 137.895 536.551 139.108 536.079 140.119C535.607 141.125 534.96 141.901 534.136 142.446C533.312 142.986 532.372 143.256 531.315 143.256C530.519 143.256 529.869 143.122 529.363 142.855C528.863 142.588 528.471 142.276 528.187 141.918C527.903 141.56 527.684 141.241 527.531 140.963H527.377V147.909H524.829ZM527.326 136.455C527.326 137.375 527.46 138.182 527.727 138.875C527.994 139.568 528.38 140.111 528.886 140.503C529.392 140.889 530.011 141.082 530.744 141.082C531.505 141.082 532.142 140.881 532.653 140.477C533.164 140.068 533.551 139.514 533.812 138.815C534.079 138.116 534.213 137.33 534.213 136.455C534.213 135.591 534.082 134.815 533.82 134.128C533.565 133.44 533.178 132.898 532.661 132.5C532.15 132.102 531.511 131.903 530.744 131.903C530.005 131.903 529.38 132.094 528.869 132.474C528.363 132.855 527.98 133.386 527.718 134.068C527.457 134.75 527.326 135.545 527.326 136.455ZM542.67 125.545V143H540.122V125.545H542.67ZM552.22 143.264C550.93 143.264 549.82 142.989 548.888 142.438C547.962 141.881 547.246 141.099 546.74 140.094C546.24 139.082 545.99 137.898 545.99 136.54C545.99 135.199 546.24 134.017 546.74 132.994C547.246 131.972 547.95 131.173 548.854 130.599C549.763 130.026 550.825 129.739 552.041 129.739C552.78 129.739 553.496 129.861 554.189 130.105C554.882 130.349 555.504 130.733 556.055 131.256C556.606 131.778 557.041 132.457 557.359 133.293C557.678 134.122 557.837 135.131 557.837 136.318V137.222H547.43V135.312H555.339C555.339 134.642 555.203 134.048 554.93 133.531C554.658 133.009 554.274 132.597 553.78 132.295C553.291 131.994 552.717 131.844 552.058 131.844C551.342 131.844 550.717 132.02 550.183 132.372C549.655 132.719 549.246 133.173 548.956 133.736C548.672 134.293 548.53 134.898 548.53 135.551V137.043C548.53 137.918 548.683 138.662 548.99 139.276C549.303 139.889 549.737 140.358 550.294 140.682C550.851 141 551.501 141.159 552.246 141.159C552.729 141.159 553.169 141.091 553.567 140.955C553.964 140.812 554.308 140.602 554.598 140.324C554.888 140.045 555.109 139.702 555.263 139.293L557.675 139.727C557.481 140.437 557.135 141.06 556.635 141.594C556.141 142.122 555.518 142.534 554.768 142.83C554.024 143.119 553.175 143.264 552.22 143.264ZM567.255 129.909V131.955H560.104V129.909H567.255ZM562.022 126.773H564.57V139.156C564.57 139.651 564.644 140.023 564.792 140.273C564.939 140.517 565.13 140.685 565.363 140.776C565.601 140.861 565.86 140.903 566.138 140.903C566.343 140.903 566.522 140.889 566.675 140.861C566.829 140.832 566.948 140.81 567.033 140.793L567.493 142.898C567.346 142.955 567.135 143.011 566.863 143.068C566.59 143.131 566.249 143.165 565.84 143.17C565.17 143.182 564.545 143.062 563.965 142.812C563.385 142.562 562.917 142.176 562.559 141.653C562.201 141.131 562.022 140.474 562.022 139.685V126.773ZM576.055 143.264C574.765 143.264 573.655 142.989 572.723 142.438C571.797 141.881 571.081 141.099 570.575 140.094C570.075 139.082 569.825 137.898 569.825 136.54C569.825 135.199 570.075 134.017 570.575 132.994C571.081 131.972 571.785 131.173 572.689 130.599C573.598 130.026 574.66 129.739 575.876 129.739C576.615 129.739 577.331 129.861 578.024 130.105C578.717 130.349 579.339 130.733 579.89 131.256C580.441 131.778 580.876 132.457 581.194 133.293C581.512 134.122 581.672 135.131 581.672 136.318V137.222H571.265V135.312H579.174C579.174 134.642 579.038 134.048 578.765 133.531C578.493 133.009 578.109 132.597 577.615 132.295C577.126 131.994 576.552 131.844 575.893 131.844C575.177 131.844 574.552 132.02 574.018 132.372C573.49 132.719 573.081 133.173 572.791 133.736C572.507 134.293 572.365 134.898 572.365 135.551V137.043C572.365 137.918 572.518 138.662 572.825 139.276C573.137 139.889 573.572 140.358 574.129 140.682C574.686 141 575.336 141.159 576.081 141.159C576.564 141.159 577.004 141.091 577.402 140.955C577.799 140.812 578.143 140.602 578.433 140.324C578.723 140.045 578.944 139.702 579.098 139.293L581.51 139.727C581.316 140.437 580.97 141.06 580.47 141.594C579.976 142.122 579.353 142.534 578.603 142.83C577.859 143.119 577.01 143.264 576.055 143.264ZM589.88 143.256C588.823 143.256 587.88 142.986 587.05 142.446C586.226 141.901 585.578 141.125 585.107 140.119C584.641 139.108 584.408 137.895 584.408 136.48C584.408 135.065 584.644 133.855 585.115 132.849C585.593 131.844 586.246 131.074 587.076 130.54C587.905 130.006 588.845 129.739 589.897 129.739C590.709 129.739 591.363 129.875 591.857 130.148C592.357 130.415 592.743 130.727 593.016 131.085C593.294 131.443 593.51 131.759 593.664 132.031H593.817V125.545H596.365V143H593.877V140.963H593.664C593.51 141.241 593.289 141.56 592.999 141.918C592.715 142.276 592.323 142.588 591.823 142.855C591.323 143.122 590.675 143.256 589.88 143.256ZM590.442 141.082C591.175 141.082 591.794 140.889 592.3 140.503C592.811 140.111 593.198 139.568 593.459 138.875C593.726 138.182 593.86 137.375 593.86 136.455C593.86 135.545 593.729 134.75 593.468 134.068C593.206 133.386 592.823 132.855 592.317 132.474C591.811 132.094 591.186 131.903 590.442 131.903C589.675 131.903 589.036 132.102 588.524 132.5C588.013 132.898 587.627 133.44 587.365 134.128C587.11 134.815 586.982 135.591 586.982 136.455C586.982 137.33 587.113 138.116 587.374 138.815C587.635 139.514 588.022 140.068 588.533 140.477C589.05 140.881 589.686 141.082 590.442 141.082Z" fill="#F3F3F3"/>
<path d="M723.369 96.7159C719.756 96.7159 716.534 96.0511 713.705 94.7216C710.892 93.392 708.659 91.5597 707.006 89.2244C705.352 86.8892 704.491 84.2131 704.423 81.196H715.162C715.281 83.2244 716.134 84.8693 717.719 86.1307C719.304 87.392 721.188 88.0227 723.369 88.0227C725.108 88.0227 726.642 87.6392 727.972 86.8722C729.318 86.0881 730.366 85.0057 731.116 83.625C731.884 82.2273 732.267 80.625 732.267 78.8182C732.267 76.9773 731.875 75.358 731.091 73.9602C730.324 72.5625 729.259 71.4716 727.895 70.6875C726.531 69.9034 724.972 69.5028 723.216 69.4858C721.682 69.4858 720.19 69.8011 718.741 70.4318C717.31 71.0625 716.193 71.9233 715.392 73.0142L705.548 71.25L708.028 43.6364H740.04V52.6875H717.156L715.801 65.804H716.108C717.028 64.5085 718.418 63.4347 720.276 62.5824C722.134 61.7301 724.213 61.304 726.514 61.304C729.668 61.304 732.48 62.0455 734.952 63.5284C737.423 65.0114 739.375 67.0483 740.807 69.6392C742.239 72.2131 742.946 75.179 742.929 78.5369C742.946 82.0653 742.128 85.2017 740.474 87.946C738.838 90.6733 736.545 92.821 733.597 94.3892C730.665 95.9403 727.256 96.7159 723.369 96.7159ZM768.336 96.7159C764.722 96.7159 761.5 96.0511 758.671 94.7216C755.858 93.392 753.625 91.5597 751.972 89.2244C750.319 86.8892 749.458 84.2131 749.39 81.196H760.128C760.248 83.2244 761.1 84.8693 762.685 86.1307C764.27 87.392 766.154 88.0227 768.336 88.0227C770.074 88.0227 771.608 87.6392 772.938 86.8722C774.284 86.0881 775.333 85.0057 776.083 83.625C776.85 82.2273 777.233 80.625 777.233 78.8182C777.233 76.9773 776.841 75.358 776.057 73.9602C775.29 72.5625 774.225 71.4716 772.861 70.6875C771.498 69.9034 769.938 69.5028 768.182 69.4858C766.648 69.4858 765.157 69.8011 763.708 70.4318C762.276 71.0625 761.159 71.9233 760.358 73.0142L750.515 71.25L752.995 43.6364H785.006V52.6875H762.123L760.767 65.804H761.074C761.995 64.5085 763.384 63.4347 765.242 62.5824C767.1 61.7301 769.179 61.304 771.48 61.304C774.634 61.304 777.446 62.0455 779.918 63.5284C782.39 65.0114 784.341 67.0483 785.773 69.6392C787.205 72.2131 787.912 75.179 787.895 78.5369C787.912 82.0653 787.094 85.2017 785.441 87.946C783.804 90.6733 781.512 92.821 778.563 94.3892C775.631 95.9403 772.222 96.7159 768.336 96.7159ZM813.302 96.7159C809.688 96.7159 806.467 96.0511 803.637 94.7216C800.825 93.392 798.592 91.5597 796.938 89.2244C795.285 86.8892 794.424 84.2131 794.356 81.196H805.094C805.214 83.2244 806.066 84.8693 807.651 86.1307C809.236 87.392 811.12 88.0227 813.302 88.0227C815.04 88.0227 816.575 87.6392 817.904 86.8722C819.251 86.0881 820.299 85.0057 821.049 83.625C821.816 82.2273 822.2 80.625 822.2 78.8182C822.2 76.9773 821.808 75.358 821.023 73.9602C820.256 72.5625 819.191 71.4716 817.827 70.6875C816.464 69.9034 814.904 69.5028 813.148 69.4858C811.614 69.4858 810.123 69.8011 808.674 70.4318C807.242 71.0625 806.126 71.9233 805.325 73.0142L795.481 71.25L797.961 43.6364H829.972V52.6875H807.089L805.734 65.804H806.04C806.961 64.5085 808.35 63.4347 810.208 62.5824C812.066 61.7301 814.146 61.304 816.447 61.304C819.6 61.304 822.413 62.0455 824.884 63.5284C827.356 65.0114 829.308 67.0483 830.739 69.6392C832.171 72.2131 832.879 75.179 832.861 78.5369C832.879 82.0653 832.06 85.2017 830.407 87.946C828.771 90.6733 826.478 92.821 823.529 94.3892C820.597 95.9403 817.188 96.7159 813.302 96.7159ZM854.791 88.0227V51.8182H863.944V88.0227H854.791ZM841.265 74.4972V65.3438H877.47V74.4972H841.265Z" fill="white"/>
<path d="M712.438 130.131C712.347 129.324 711.972 128.699 711.312 128.256C710.653 127.807 709.824 127.582 708.824 127.582C708.108 127.582 707.489 127.696 706.966 127.923C706.443 128.145 706.037 128.452 705.747 128.844C705.463 129.23 705.321 129.67 705.321 130.165C705.321 130.58 705.418 130.937 705.611 131.239C705.81 131.54 706.068 131.793 706.386 131.997C706.71 132.196 707.057 132.364 707.426 132.5C707.795 132.631 708.151 132.739 708.491 132.824L710.196 133.267C710.753 133.403 711.324 133.588 711.909 133.821C712.494 134.054 713.037 134.361 713.537 134.741C714.037 135.122 714.44 135.594 714.747 136.156C715.06 136.719 715.216 137.392 715.216 138.176C715.216 139.165 714.96 140.043 714.449 140.81C713.943 141.577 713.207 142.182 712.241 142.625C711.281 143.068 710.119 143.29 708.756 143.29C707.449 143.29 706.318 143.082 705.364 142.668C704.409 142.253 703.662 141.665 703.122 140.903C702.582 140.136 702.284 139.227 702.227 138.176H704.869C704.92 138.807 705.125 139.332 705.483 139.753C705.847 140.168 706.31 140.477 706.872 140.682C707.44 140.881 708.062 140.98 708.739 140.98C709.483 140.98 710.145 140.864 710.724 140.631C711.31 140.392 711.77 140.062 712.105 139.642C712.44 139.216 712.608 138.719 712.608 138.151C712.608 137.634 712.46 137.21 712.165 136.881C711.875 136.551 711.48 136.278 710.98 136.062C710.486 135.847 709.926 135.656 709.301 135.491L707.239 134.929C705.841 134.548 704.733 133.989 703.915 133.25C703.102 132.511 702.696 131.534 702.696 130.318C702.696 129.312 702.969 128.435 703.514 127.685C704.06 126.935 704.798 126.352 705.73 125.938C706.662 125.517 707.713 125.307 708.884 125.307C710.065 125.307 711.108 125.514 712.011 125.929C712.92 126.344 713.636 126.915 714.159 127.642C714.682 128.364 714.955 129.193 714.977 130.131H712.438ZM722.448 143.29C721.618 143.29 720.868 143.136 720.198 142.83C719.528 142.517 718.996 142.065 718.604 141.474C718.218 140.884 718.025 140.159 718.025 139.301C718.025 138.562 718.167 137.955 718.451 137.477C718.735 137 719.118 136.622 719.601 136.344C720.084 136.065 720.624 135.855 721.221 135.713C721.817 135.571 722.425 135.463 723.045 135.389C723.829 135.298 724.465 135.224 724.954 135.168C725.442 135.105 725.797 135.006 726.019 134.869C726.241 134.733 726.351 134.511 726.351 134.205V134.145C726.351 133.401 726.141 132.824 725.721 132.415C725.306 132.006 724.687 131.801 723.863 131.801C723.005 131.801 722.329 131.991 721.834 132.372C721.346 132.747 721.008 133.165 720.82 133.625L718.425 133.08C718.709 132.284 719.124 131.642 719.67 131.153C720.221 130.659 720.854 130.301 721.57 130.08C722.286 129.852 723.039 129.739 723.829 129.739C724.351 129.739 724.905 129.801 725.491 129.926C726.082 130.045 726.633 130.267 727.144 130.591C727.661 130.915 728.084 131.378 728.414 131.98C728.743 132.577 728.908 133.352 728.908 134.307V143H726.42V141.21H726.317C726.153 141.54 725.905 141.864 725.576 142.182C725.246 142.5 724.823 142.764 724.306 142.974C723.789 143.185 723.17 143.29 722.448 143.29ZM723.002 141.244C723.707 141.244 724.309 141.105 724.809 140.827C725.315 140.548 725.698 140.185 725.959 139.736C726.226 139.281 726.36 138.795 726.36 138.278V136.591C726.269 136.682 726.093 136.767 725.832 136.847C725.576 136.92 725.283 136.986 724.954 137.043C724.624 137.094 724.303 137.142 723.991 137.188C723.678 137.227 723.417 137.261 723.207 137.29C722.712 137.352 722.261 137.457 721.851 137.605C721.448 137.753 721.124 137.966 720.88 138.244C720.641 138.517 720.522 138.881 720.522 139.335C720.522 139.966 720.755 140.443 721.221 140.767C721.687 141.085 722.28 141.244 723.002 141.244ZM738.893 129.909V131.955H731.743V129.909H738.893ZM733.66 126.773H736.209V139.156C736.209 139.651 736.282 140.023 736.43 140.273C736.578 140.517 736.768 140.685 737.001 140.776C737.24 140.861 737.498 140.903 737.777 140.903C737.981 140.903 738.16 140.889 738.314 140.861C738.467 140.832 738.586 140.81 738.672 140.793L739.132 142.898C738.984 142.955 738.774 143.011 738.501 143.068C738.228 143.131 737.888 143.165 737.478 143.17C736.808 143.182 736.183 143.062 735.603 142.812C735.024 142.562 734.555 142.176 734.197 141.653C733.839 141.131 733.66 140.474 733.66 139.685V126.773ZM742.192 143V129.909H744.74V143H742.192ZM743.479 127.889C743.036 127.889 742.655 127.741 742.337 127.446C742.025 127.145 741.868 126.787 741.868 126.372C741.868 125.952 742.025 125.594 742.337 125.298C742.655 124.997 743.036 124.847 743.479 124.847C743.922 124.847 744.3 124.997 744.613 125.298C744.931 125.594 745.09 125.952 745.09 126.372C745.09 126.787 744.931 127.145 744.613 127.446C744.3 127.741 743.922 127.889 743.479 127.889ZM758.458 133.105L756.149 133.514C756.052 133.219 755.899 132.937 755.688 132.67C755.484 132.403 755.206 132.185 754.853 132.014C754.501 131.844 754.061 131.759 753.532 131.759C752.811 131.759 752.208 131.92 751.725 132.244C751.242 132.562 751.001 132.974 751.001 133.48C751.001 133.918 751.163 134.27 751.487 134.537C751.811 134.804 752.333 135.023 753.055 135.193L755.134 135.67C756.339 135.949 757.237 136.378 757.828 136.957C758.419 137.537 758.714 138.29 758.714 139.216C758.714 140 758.487 140.699 758.032 141.312C757.583 141.92 756.956 142.398 756.149 142.744C755.348 143.091 754.419 143.264 753.362 143.264C751.896 143.264 750.7 142.952 749.774 142.327C748.848 141.696 748.279 140.801 748.069 139.642L750.532 139.267C750.686 139.909 751.001 140.395 751.478 140.724C751.956 141.048 752.578 141.21 753.345 141.21C754.18 141.21 754.848 141.037 755.348 140.69C755.848 140.338 756.098 139.909 756.098 139.403C756.098 138.994 755.944 138.651 755.637 138.372C755.336 138.094 754.873 137.884 754.248 137.741L752.032 137.256C750.811 136.977 749.907 136.534 749.322 135.926C748.742 135.318 748.453 134.548 748.453 133.616C748.453 132.844 748.669 132.168 749.1 131.588C749.532 131.009 750.129 130.557 750.89 130.233C751.652 129.903 752.524 129.739 753.507 129.739C754.921 129.739 756.035 130.045 756.848 130.659C757.66 131.267 758.197 132.082 758.458 133.105ZM768.226 129.909V131.955H760.828V129.909H768.226ZM762.857 143V128.392C762.857 127.574 763.036 126.895 763.394 126.355C763.752 125.81 764.226 125.403 764.817 125.136C765.408 124.864 766.05 124.727 766.743 124.727C767.254 124.727 767.692 124.77 768.056 124.855C768.419 124.935 768.689 125.009 768.865 125.077L768.269 127.139C768.149 127.105 767.996 127.065 767.808 127.02C767.621 126.969 767.394 126.943 767.127 126.943C766.507 126.943 766.064 127.097 765.797 127.403C765.536 127.71 765.405 128.153 765.405 128.733V143H762.857ZM771.335 143V129.909H773.884V143H771.335ZM772.622 127.889C772.179 127.889 771.798 127.741 771.48 127.446C771.168 127.145 771.011 126.787 771.011 126.372C771.011 125.952 771.168 125.594 771.48 125.298C771.798 124.997 772.179 124.847 772.622 124.847C773.065 124.847 773.443 124.997 773.756 125.298C774.074 125.594 774.233 125.952 774.233 126.372C774.233 126.787 774.074 127.145 773.756 127.446C773.443 127.741 773.065 127.889 772.622 127.889ZM783.434 143.264C782.144 143.264 781.033 142.989 780.101 142.438C779.175 141.881 778.459 141.099 777.954 140.094C777.454 139.082 777.204 137.898 777.204 136.54C777.204 135.199 777.454 134.017 777.954 132.994C778.459 131.972 779.164 131.173 780.067 130.599C780.976 130.026 782.039 129.739 783.255 129.739C783.994 129.739 784.709 129.861 785.403 130.105C786.096 130.349 786.718 130.733 787.269 131.256C787.82 131.778 788.255 132.457 788.573 133.293C788.891 134.122 789.05 135.131 789.05 136.318V137.222H778.644V135.312H786.553C786.553 134.642 786.417 134.048 786.144 133.531C785.871 133.009 785.488 132.597 784.994 132.295C784.505 131.994 783.931 131.844 783.272 131.844C782.556 131.844 781.931 132.02 781.397 132.372C780.869 132.719 780.459 133.173 780.17 133.736C779.886 134.293 779.744 134.898 779.744 135.551V137.043C779.744 137.918 779.897 138.662 780.204 139.276C780.516 139.889 780.951 140.358 781.508 140.682C782.065 141 782.715 141.159 783.459 141.159C783.942 141.159 784.383 141.091 784.78 140.955C785.178 140.812 785.522 140.602 785.812 140.324C786.101 140.045 786.323 139.702 786.476 139.293L788.888 139.727C788.695 140.437 788.349 141.06 787.849 141.594C787.354 142.122 786.732 142.534 785.982 142.83C785.238 143.119 784.388 143.264 783.434 143.264ZM797.258 143.256C796.202 143.256 795.258 142.986 794.429 142.446C793.605 141.901 792.957 141.125 792.486 140.119C792.02 139.108 791.787 137.895 791.787 136.48C791.787 135.065 792.023 133.855 792.494 132.849C792.971 131.844 793.625 131.074 794.454 130.54C795.284 130.006 796.224 129.739 797.275 129.739C798.088 129.739 798.741 129.875 799.236 130.148C799.736 130.415 800.122 130.727 800.395 131.085C800.673 131.443 800.889 131.759 801.042 132.031H801.196V125.545H803.744V143H801.255V140.963H801.042C800.889 141.241 800.667 141.56 800.378 141.918C800.094 142.276 799.702 142.588 799.202 142.855C798.702 143.122 798.054 143.256 797.258 143.256ZM797.821 141.082C798.554 141.082 799.173 140.889 799.679 140.503C800.19 140.111 800.577 139.568 800.838 138.875C801.105 138.182 801.238 137.375 801.238 136.455C801.238 135.545 801.108 134.75 800.846 134.068C800.585 133.386 800.202 132.855 799.696 132.474C799.19 132.094 798.565 131.903 797.821 131.903C797.054 131.903 796.415 132.102 795.903 132.5C795.392 132.898 795.005 133.44 794.744 134.128C794.488 134.815 794.361 135.591 794.361 136.455C794.361 137.33 794.491 138.116 794.753 138.815C795.014 139.514 795.4 140.068 795.912 140.477C796.429 140.881 797.065 141.082 797.821 141.082ZM829.394 131.222H826.735C826.633 130.653 826.443 130.153 826.164 129.722C825.886 129.29 825.545 128.923 825.142 128.622C824.738 128.321 824.287 128.094 823.787 127.94C823.292 127.787 822.767 127.71 822.21 127.71C821.204 127.71 820.304 127.963 819.508 128.469C818.718 128.974 818.093 129.716 817.633 130.693C817.179 131.67 816.951 132.864 816.951 134.273C816.951 135.693 817.179 136.892 817.633 137.869C818.093 138.847 818.721 139.585 819.517 140.085C820.312 140.585 821.207 140.835 822.201 140.835C822.752 140.835 823.275 140.761 823.769 140.614C824.269 140.46 824.721 140.236 825.125 139.94C825.528 139.645 825.869 139.284 826.147 138.858C826.431 138.426 826.627 137.932 826.735 137.375L829.394 137.384C829.252 138.241 828.977 139.031 828.568 139.753C828.164 140.469 827.644 141.088 827.008 141.611C826.377 142.128 825.656 142.528 824.843 142.812C824.031 143.097 823.144 143.239 822.184 143.239C820.673 143.239 819.326 142.881 818.144 142.165C816.963 141.443 816.031 140.412 815.349 139.071C814.673 137.73 814.335 136.131 814.335 134.273C814.335 132.409 814.676 130.81 815.358 129.474C816.039 128.134 816.971 127.105 818.153 126.389C819.335 125.668 820.679 125.307 822.184 125.307C823.11 125.307 823.974 125.44 824.775 125.707C825.582 125.969 826.306 126.355 826.948 126.866C827.59 127.372 828.122 127.991 828.542 128.724C828.963 129.452 829.247 130.284 829.394 131.222ZM835.369 125.545V143H832.821V125.545H835.369ZM839.278 143V129.909H841.826V143H839.278ZM840.565 127.889C840.122 127.889 839.741 127.741 839.423 127.446C839.11 127.145 838.954 126.787 838.954 126.372C838.954 125.952 839.11 125.594 839.423 125.298C839.741 124.997 840.122 124.847 840.565 124.847C841.008 124.847 841.386 124.997 841.698 125.298C842.016 125.594 842.175 125.952 842.175 126.372C842.175 126.787 842.016 127.145 841.698 127.446C841.386 127.741 841.008 127.889 840.565 127.889ZM851.376 143.264C850.087 143.264 848.976 142.989 848.044 142.438C847.118 141.881 846.402 141.099 845.896 140.094C845.396 139.082 845.146 137.898 845.146 136.54C845.146 135.199 845.396 134.017 845.896 132.994C846.402 131.972 847.106 131.173 848.01 130.599C848.919 130.026 849.981 129.739 851.197 129.739C851.936 129.739 852.652 129.861 853.345 130.105C854.038 130.349 854.66 130.733 855.212 131.256C855.763 131.778 856.197 132.457 856.516 133.293C856.834 134.122 856.993 135.131 856.993 136.318V137.222H846.587V135.312H854.496C854.496 134.642 854.359 134.048 854.087 133.531C853.814 133.009 853.43 132.597 852.936 132.295C852.447 131.994 851.874 131.844 851.214 131.844C850.499 131.844 849.874 132.02 849.339 132.372C848.811 132.719 848.402 133.173 848.112 133.736C847.828 134.293 847.686 134.898 847.686 135.551V137.043C847.686 137.918 847.839 138.662 848.146 139.276C848.459 139.889 848.893 140.358 849.45 140.682C850.007 141 850.658 141.159 851.402 141.159C851.885 141.159 852.325 141.091 852.723 140.955C853.121 140.812 853.464 140.602 853.754 140.324C854.044 140.045 854.266 139.702 854.419 139.293L856.831 139.727C856.638 140.437 856.291 141.06 855.791 141.594C855.297 142.122 854.675 142.534 853.925 142.83C853.18 143.119 852.331 143.264 851.376 143.264ZM862.849 135.227V143H860.3V129.909H862.746V132.04H862.908C863.209 131.347 863.681 130.79 864.323 130.369C864.971 129.949 865.786 129.739 866.769 129.739C867.661 129.739 868.442 129.926 869.113 130.301C869.783 130.67 870.303 131.222 870.672 131.955C871.042 132.687 871.226 133.594 871.226 134.673V143H868.678V134.98C868.678 134.031 868.431 133.29 867.937 132.756C867.442 132.216 866.763 131.946 865.9 131.946C865.309 131.946 864.783 132.074 864.323 132.33C863.868 132.585 863.508 132.96 863.241 133.455C862.979 133.943 862.849 134.534 862.849 135.227ZM881.235 129.909V131.955H874.084V129.909H881.235ZM876.002 126.773H878.55V139.156C878.55 139.651 878.624 140.023 878.772 140.273C878.919 140.517 879.11 140.685 879.343 140.776C879.581 140.861 879.84 140.903 880.118 140.903C880.323 140.903 880.502 140.889 880.655 140.861C880.809 140.832 880.928 140.81 881.013 140.793L881.473 142.898C881.326 142.955 881.115 143.011 880.843 143.068C880.57 143.131 880.229 143.165 879.82 143.17C879.15 143.182 878.525 143.062 877.945 142.812C877.365 142.562 876.897 142.176 876.539 141.653C876.181 141.131 876.002 140.474 876.002 139.685V126.773Z" fill="#F3F3F3"/>
<path d="M1057.53 43.6364V96H1046.45V54.1449H1046.15L1034.16 61.6619V51.8438L1047.12 43.6364H1057.53ZM1089.06 97.1506C1084.66 97.1335 1080.88 96.0511 1077.71 93.9034C1074.56 91.7557 1072.13 88.6449 1070.42 84.571C1068.74 80.4972 1067.9 75.5966 1067.92 69.8693C1067.92 64.1591 1068.76 59.2926 1070.45 55.2699C1072.15 51.2472 1074.58 48.1875 1077.74 46.0909C1080.91 43.9773 1084.68 42.9205 1089.06 42.9205C1093.44 42.9205 1097.21 43.9773 1100.36 46.0909C1103.53 48.2045 1105.97 51.2727 1107.68 55.2955C1109.38 59.3011 1110.22 64.1591 1110.21 69.8693C1110.21 75.6136 1109.35 80.5227 1107.65 84.5966C1105.96 88.6705 1103.54 91.7812 1100.39 93.929C1097.24 96.0767 1093.46 97.1506 1089.06 97.1506ZM1089.06 87.9716C1092.06 87.9716 1094.46 86.4631 1096.25 83.446C1098.04 80.429 1098.92 75.9034 1098.91 69.8693C1098.91 65.8977 1098.5 62.5909 1097.68 59.9489C1096.88 57.3068 1095.74 55.321 1094.25 53.9915C1092.79 52.6619 1091.06 51.9972 1089.06 51.9972C1086.08 51.9972 1083.69 53.4886 1081.9 56.4716C1080.11 59.4545 1079.21 63.9205 1079.19 69.8693C1079.19 73.892 1079.59 77.25 1080.39 79.9432C1081.21 82.6193 1082.36 84.6307 1083.85 85.9773C1085.33 87.3068 1087.07 87.9716 1089.06 87.9716ZM1132.31 93.1619V56.9574H1141.46V93.1619H1132.31ZM1118.78 79.6364V70.483H1154.99V79.6364H1118.78Z" fill="white"/>
<path d="M996.892 143H994.097L1000.38 125.545H1003.42L1009.7 143H1006.91L1001.97 128.716H1001.84L996.892 143ZM997.361 136.165H1006.43V138.381H997.361V136.165ZM1013.7 143L1009.84 129.909H1012.48L1015.04 139.523H1015.17L1017.74 129.909H1020.38L1022.93 139.48H1023.06L1025.61 129.909H1028.24L1024.4 143H1021.8L1019.14 133.548H1018.95L1016.29 143H1013.7ZM1034.95 143.29C1034.12 143.29 1033.37 143.136 1032.7 142.83C1032.03 142.517 1031.5 142.065 1031.11 141.474C1030.72 140.884 1030.53 140.159 1030.53 139.301C1030.53 138.562 1030.67 137.955 1030.95 137.477C1031.24 137 1031.62 136.622 1032.1 136.344C1032.59 136.065 1033.13 135.855 1033.72 135.713C1034.32 135.571 1034.93 135.463 1035.55 135.389C1036.33 135.298 1036.97 135.224 1037.46 135.168C1037.95 135.105 1038.3 135.006 1038.52 134.869C1038.74 134.733 1038.85 134.511 1038.85 134.205V134.145C1038.85 133.401 1038.64 132.824 1038.22 132.415C1037.81 132.006 1037.19 131.801 1036.37 131.801C1035.51 131.801 1034.83 131.991 1034.34 132.372C1033.85 132.747 1033.51 133.165 1033.32 133.625L1030.93 133.08C1031.21 132.284 1031.63 131.642 1032.17 131.153C1032.72 130.659 1033.36 130.301 1034.07 130.08C1034.79 129.852 1035.54 129.739 1036.33 129.739C1036.85 129.739 1037.41 129.801 1037.99 129.926C1038.58 130.045 1039.14 130.267 1039.65 130.591C1040.16 130.915 1040.59 131.378 1040.92 131.98C1041.25 132.577 1041.41 133.352 1041.41 134.307V143H1038.92V141.21H1038.82C1038.66 141.54 1038.41 141.864 1038.08 142.182C1037.75 142.5 1037.33 142.764 1036.81 142.974C1036.29 143.185 1035.67 143.29 1034.95 143.29ZM1035.51 141.244C1036.21 141.244 1036.81 141.105 1037.31 140.827C1037.82 140.548 1038.2 140.185 1038.46 139.736C1038.73 139.281 1038.86 138.795 1038.86 138.278V136.591C1038.77 136.682 1038.6 136.767 1038.33 136.847C1038.08 136.92 1037.79 136.986 1037.46 137.043C1037.13 137.094 1036.81 137.142 1036.49 137.188C1036.18 137.227 1035.92 137.261 1035.71 137.29C1035.22 137.352 1034.76 137.457 1034.35 137.605C1033.95 137.753 1033.63 137.966 1033.38 138.244C1033.14 138.517 1033.03 138.881 1033.03 139.335C1033.03 139.966 1033.26 140.443 1033.72 140.767C1034.19 141.085 1034.78 141.244 1035.51 141.244ZM1045.29 143V129.909H1047.75V131.989H1047.89C1048.12 131.284 1048.54 130.73 1049.15 130.327C1049.75 129.918 1050.44 129.713 1051.21 129.713C1051.37 129.713 1051.56 129.719 1051.77 129.73C1051.99 129.741 1052.17 129.756 1052.29 129.773V132.21C1052.19 132.182 1052.01 132.151 1051.75 132.116C1051.48 132.077 1051.22 132.057 1050.96 132.057C1050.36 132.057 1049.82 132.185 1049.35 132.44C1048.89 132.69 1048.52 133.04 1048.24 133.489C1047.97 133.932 1047.83 134.437 1047.83 135.006V143H1045.29ZM1059.41 143.256C1058.35 143.256 1057.41 142.986 1056.58 142.446C1055.76 141.901 1055.11 141.125 1054.64 140.119C1054.17 139.108 1053.94 137.895 1053.94 136.48C1053.94 135.065 1054.17 133.855 1054.64 132.849C1055.12 131.844 1055.78 131.074 1056.6 130.54C1057.43 130.006 1058.37 129.739 1059.43 129.739C1060.24 129.739 1060.89 129.875 1061.39 130.148C1061.89 130.415 1062.27 130.727 1062.54 131.085C1062.82 131.443 1063.04 131.759 1063.19 132.031H1063.35V125.545H1065.89V143H1063.41V140.963H1063.19C1063.04 141.241 1062.82 141.56 1062.53 141.918C1062.24 142.276 1061.85 142.588 1061.35 142.855C1060.85 143.122 1060.2 143.256 1059.41 143.256ZM1059.97 141.082C1060.7 141.082 1061.32 140.889 1061.83 140.503C1062.34 140.111 1062.73 139.568 1062.99 138.875C1063.26 138.182 1063.39 137.375 1063.39 136.455C1063.39 135.545 1063.26 134.75 1063 134.068C1062.74 133.386 1062.35 132.855 1061.85 132.474C1061.34 132.094 1060.72 131.903 1059.97 131.903C1059.2 131.903 1058.56 132.102 1058.05 132.5C1057.54 132.898 1057.16 133.44 1056.89 134.128C1056.64 134.815 1056.51 135.591 1056.51 136.455C1056.51 137.33 1056.64 138.116 1056.9 138.815C1057.16 139.514 1057.55 140.068 1058.06 140.477C1058.58 140.881 1059.22 141.082 1059.97 141.082ZM1079.82 133.105L1077.51 133.514C1077.41 133.219 1077.26 132.937 1077.05 132.67C1076.85 132.403 1076.57 132.185 1076.22 132.014C1075.86 131.844 1075.42 131.759 1074.9 131.759C1074.17 131.759 1073.57 131.92 1073.09 132.244C1072.61 132.562 1072.36 132.974 1072.36 133.48C1072.36 133.918 1072.53 134.27 1072.85 134.537C1073.17 134.804 1073.7 135.023 1074.42 135.193L1076.5 135.67C1077.7 135.949 1078.6 136.378 1079.19 136.957C1079.78 137.537 1080.08 138.29 1080.08 139.216C1080.08 140 1079.85 140.699 1079.4 141.312C1078.95 141.92 1078.32 142.398 1077.51 142.744C1076.71 143.091 1075.78 143.264 1074.72 143.264C1073.26 143.264 1072.06 142.952 1071.14 142.327C1070.21 141.696 1069.64 140.801 1069.43 139.642L1071.9 139.267C1072.05 139.909 1072.36 140.395 1072.84 140.724C1073.32 141.048 1073.94 141.21 1074.71 141.21C1075.54 141.21 1076.21 141.037 1076.71 140.69C1077.21 140.338 1077.46 139.909 1077.46 139.403C1077.46 138.994 1077.31 138.651 1077 138.372C1076.7 138.094 1076.24 137.884 1075.61 137.741L1073.4 137.256C1072.17 136.977 1071.27 136.534 1070.68 135.926C1070.11 135.318 1069.82 134.548 1069.82 133.616C1069.82 132.844 1070.03 132.168 1070.46 131.588C1070.9 131.009 1071.49 130.557 1072.25 130.233C1073.01 129.903 1073.89 129.739 1074.87 129.739C1076.28 129.739 1077.4 130.045 1078.21 130.659C1079.02 131.267 1079.56 132.082 1079.82 133.105ZM1091.87 143H1089.07L1095.36 125.545H1098.4L1104.68 143H1101.88L1096.95 128.716H1096.81L1091.87 143ZM1092.34 136.165H1101.41V138.381H1092.34V136.165ZM1112.78 143.264C1111.51 143.264 1110.42 142.977 1109.51 142.403C1108.6 141.824 1107.9 141.026 1107.41 140.009C1106.92 138.991 1106.68 137.827 1106.68 136.514C1106.68 135.185 1106.93 134.011 1107.43 132.994C1107.93 131.972 1108.63 131.173 1109.54 130.599C1110.45 130.026 1111.52 129.739 1112.75 129.739C1113.75 129.739 1114.63 129.923 1115.41 130.293C1116.19 130.656 1116.82 131.168 1117.3 131.827C1117.78 132.486 1118.07 133.256 1118.16 134.136H1115.68C1115.54 133.523 1115.23 132.994 1114.74 132.551C1114.26 132.108 1113.61 131.886 1112.8 131.886C1112.09 131.886 1111.46 132.074 1110.93 132.449C1110.4 132.818 1109.99 133.347 1109.69 134.034C1109.4 134.716 1109.25 135.523 1109.25 136.455C1109.25 137.409 1109.39 138.233 1109.68 138.926C1109.97 139.619 1110.38 140.156 1110.91 140.537C1111.45 140.918 1112.07 141.108 1112.8 141.108C1113.28 141.108 1113.72 141.02 1114.11 140.844C1114.51 140.662 1114.84 140.403 1115.1 140.068C1115.38 139.733 1115.57 139.33 1115.68 138.858H1118.16C1118.07 139.705 1117.79 140.46 1117.33 141.125C1116.87 141.79 1116.25 142.312 1115.48 142.693C1114.71 143.074 1113.81 143.264 1112.78 143.264ZM1123.91 135.227V143H1121.36V125.545H1123.88V132.04H1124.04C1124.34 131.335 1124.81 130.776 1125.44 130.361C1126.07 129.946 1126.9 129.739 1127.92 129.739C1128.81 129.739 1129.6 129.923 1130.27 130.293C1130.94 130.662 1131.47 131.213 1131.84 131.946C1132.21 132.673 1132.4 133.582 1132.4 134.673V143H1129.85V134.98C1129.85 134.02 1129.6 133.276 1129.11 132.747C1128.61 132.213 1127.93 131.946 1127.05 131.946C1126.44 131.946 1125.9 132.074 1125.43 132.33C1124.95 132.585 1124.58 132.96 1124.31 133.455C1124.04 133.943 1123.91 134.534 1123.91 135.227ZM1136.28 143V129.909H1138.83V143H1136.28ZM1137.57 127.889C1137.12 127.889 1136.74 127.741 1136.42 127.446C1136.11 127.145 1135.95 126.787 1135.95 126.372C1135.95 125.952 1136.11 125.594 1136.42 125.298C1136.74 124.997 1137.12 124.847 1137.57 124.847C1138.01 124.847 1138.39 124.997 1138.7 125.298C1139.02 125.594 1139.18 125.952 1139.18 126.372C1139.18 126.787 1139.02 127.145 1138.7 127.446C1138.39 127.741 1138.01 127.889 1137.57 127.889ZM1148.38 143.264C1147.09 143.264 1145.98 142.989 1145.04 142.438C1144.12 141.881 1143.4 141.099 1142.9 140.094C1142.4 139.082 1142.15 137.898 1142.15 136.54C1142.15 135.199 1142.4 134.017 1142.9 132.994C1143.4 131.972 1144.11 131.173 1145.01 130.599C1145.92 130.026 1146.98 129.739 1148.2 129.739C1148.94 129.739 1149.65 129.861 1150.35 130.105C1151.04 130.349 1151.66 130.733 1152.21 131.256C1152.76 131.778 1153.2 132.457 1153.52 133.293C1153.83 134.122 1153.99 135.131 1153.99 136.318V137.222H1143.59V135.312H1151.5C1151.5 134.642 1151.36 134.048 1151.09 133.531C1150.81 133.009 1150.43 132.597 1149.94 132.295C1149.45 131.994 1148.87 131.844 1148.22 131.844C1147.5 131.844 1146.87 132.02 1146.34 132.372C1145.81 132.719 1145.4 133.173 1145.11 133.736C1144.83 134.293 1144.69 134.898 1144.69 135.551V137.043C1144.69 137.918 1144.84 138.662 1145.15 139.276C1145.46 139.889 1145.89 140.358 1146.45 140.682C1147.01 141 1147.66 141.159 1148.4 141.159C1148.89 141.159 1149.33 141.091 1149.72 140.955C1150.12 140.812 1150.47 140.602 1150.76 140.324C1151.04 140.045 1151.27 139.702 1151.42 139.293L1153.83 139.727C1153.64 140.437 1153.29 141.06 1152.79 141.594C1152.3 142.122 1151.68 142.534 1150.93 142.83C1150.18 143.119 1149.33 143.264 1148.38 143.264ZM1168.13 129.909L1163.38 143H1160.65L1155.89 129.909H1158.63L1161.95 139.983H1162.08L1165.39 129.909H1168.13ZM1176.2 143.264C1174.91 143.264 1173.8 142.989 1172.86 142.438C1171.94 141.881 1171.22 141.099 1170.72 140.094C1170.22 139.082 1169.97 137.898 1169.97 136.54C1169.97 135.199 1170.22 134.017 1170.72 132.994C1171.22 131.972 1171.93 131.173 1172.83 130.599C1173.74 130.026 1174.8 129.739 1176.02 129.739C1176.76 129.739 1177.47 129.861 1178.17 130.105C1178.86 130.349 1179.48 130.733 1180.03 131.256C1180.58 131.778 1181.02 132.457 1181.34 133.293C1181.65 134.122 1181.81 135.131 1181.81 136.318V137.222H1171.41V135.312H1179.32C1179.32 134.642 1179.18 134.048 1178.91 133.531C1178.63 133.009 1178.25 132.597 1177.76 132.295C1177.27 131.994 1176.69 131.844 1176.03 131.844C1175.32 131.844 1174.69 132.02 1174.16 132.372C1173.63 132.719 1173.22 133.173 1172.93 133.736C1172.65 134.293 1172.51 134.898 1172.51 135.551V137.043C1172.51 137.918 1172.66 138.662 1172.97 139.276C1173.28 139.889 1173.71 140.358 1174.27 140.682C1174.83 141 1175.48 141.159 1176.22 141.159C1176.71 141.159 1177.15 141.091 1177.54 140.955C1177.94 140.812 1178.28 140.602 1178.57 140.324C1178.86 140.045 1179.09 139.702 1179.24 139.293L1181.65 139.727C1181.46 140.437 1181.11 141.06 1180.61 141.594C1180.12 142.122 1179.49 142.534 1178.74 142.83C1178 143.119 1177.15 143.264 1176.2 143.264ZM1190.02 143.256C1188.96 143.256 1188.02 142.986 1187.19 142.446C1186.37 141.901 1185.72 141.125 1185.25 140.119C1184.78 139.108 1184.55 137.895 1184.55 136.48C1184.55 135.065 1184.79 133.855 1185.26 132.849C1185.73 131.844 1186.39 131.074 1187.22 130.54C1188.05 130.006 1188.99 129.739 1190.04 129.739C1190.85 129.739 1191.5 129.875 1192 130.148C1192.5 130.415 1192.88 130.727 1193.16 131.085C1193.44 131.443 1193.65 131.759 1193.81 132.031H1193.96V125.545H1196.51V143H1194.02V140.963H1193.81C1193.65 141.241 1193.43 141.56 1193.14 141.918C1192.86 142.276 1192.46 142.588 1191.96 142.855C1191.46 143.122 1190.82 143.256 1190.02 143.256ZM1190.58 141.082C1191.32 141.082 1191.94 140.889 1192.44 140.503C1192.95 140.111 1193.34 139.568 1193.6 138.875C1193.87 138.182 1194 137.375 1194 136.455C1194 135.545 1193.87 134.75 1193.61 134.068C1193.35 133.386 1192.96 132.855 1192.46 132.474C1191.95 132.094 1191.33 131.903 1190.58 131.903C1189.82 131.903 1189.18 132.102 1188.67 132.5C1188.15 132.898 1187.77 133.44 1187.51 134.128C1187.25 134.815 1187.12 135.591 1187.12 136.455C1187.12 137.33 1187.25 138.116 1187.52 138.815C1187.78 139.514 1188.16 140.068 1188.67 140.477C1189.19 140.881 1189.83 141.082 1190.58 141.082Z" fill="#F3F3F3"/>
<defs>
<linearGradient id="paint0_linear_167_846" x1="1280" y1="181" x2="670.585" y2="-555.143" gradientUnits="userSpaceOnUse">
<stop stop-color="#00796D"/>
<stop offset="1" stop-color="#38C682"/>
</linearGradient>
</defs>
</svg>
