<svg width="327" height="468" viewBox="0 0 327 468" fill="none" xmlns="http://www.w3.org/2000/svg">
<rect width="327" height="468" rx="20" fill="url(#paint0_linear_167_879)"/>
<path d="M137.899 32.0909V67H130.518V39.0966H130.314L122.319 44.108V37.5625L130.961 32.0909H137.899ZM158.923 67.767C155.991 67.7557 153.469 67.0341 151.355 65.6023C149.253 64.1705 147.634 62.0966 146.497 59.3807C145.372 56.6648 144.815 53.3977 144.827 49.5795C144.827 45.7727 145.389 42.5284 146.514 39.8466C147.651 37.1648 149.27 35.125 151.372 33.7273C153.486 32.3182 156.003 31.6136 158.923 31.6136C161.844 31.6136 164.355 32.3182 166.457 33.7273C168.571 35.1364 170.196 37.1818 171.332 39.8636C172.469 42.5341 173.031 45.7727 173.02 49.5795C173.02 53.4091 172.452 56.6818 171.315 59.3977C170.19 62.1136 168.577 64.1875 166.474 65.6193C164.372 67.0511 161.855 67.767 158.923 67.767ZM158.923 61.6477C160.923 61.6477 162.52 60.642 163.713 58.6307C164.906 56.6193 165.497 53.6023 165.486 49.5795C165.486 46.9318 165.213 44.7273 164.668 42.9659C164.134 41.2045 163.372 39.8807 162.384 38.9943C161.406 38.108 160.253 37.6648 158.923 37.6648C156.935 37.6648 155.344 38.6591 154.151 40.6477C152.957 42.6364 152.355 45.6136 152.344 49.5795C152.344 52.2614 152.611 54.5 153.145 56.2955C153.69 58.0795 154.457 59.4205 155.446 60.3182C156.435 61.2045 157.594 61.6477 158.923 61.6477ZM187.754 61.6818V37.5455H193.857V61.6818H187.754ZM178.737 52.6648V46.5625H202.874V52.6648H178.737Z" fill="white"/>
<path d="M84.581 90.3636H86.1946L89.4219 95.7955H89.5582L92.7855 90.3636H94.3991L90.1946 97.2045V102H88.7855V97.2045L84.581 90.3636ZM98.4645 102.182C97.6236 102.182 96.8982 101.996 96.2884 101.625C95.6823 101.25 95.2145 100.727 94.8849 100.057C94.5592 99.3826 94.3963 98.5985 94.3963 97.7045C94.3963 96.8106 94.5592 96.0227 94.8849 95.3409C95.2145 94.6553 95.6728 94.1212 96.2599 93.7386C96.8509 93.3523 97.5402 93.1591 98.3281 93.1591C98.7827 93.1591 99.2315 93.2348 99.6747 93.3864C100.118 93.5379 100.521 93.7841 100.885 94.125C101.249 94.4621 101.538 94.9091 101.754 95.4659C101.97 96.0227 102.078 96.7083 102.078 97.5227V98.0909H95.3509V96.9318H100.714C100.714 96.4394 100.616 96 100.419 95.6136C100.226 95.2273 99.9493 94.9223 99.5895 94.6989C99.2334 94.4754 98.813 94.3636 98.3281 94.3636C97.794 94.3636 97.3319 94.4962 96.9418 94.7614C96.5554 95.0227 96.258 95.3636 96.0497 95.7841C95.8414 96.2045 95.7372 96.6553 95.7372 97.1364V97.9091C95.7372 98.5682 95.8509 99.1269 96.0781 99.5852C96.3092 100.04 96.6293 100.386 97.0384 100.625C97.4474 100.86 97.9228 100.977 98.4645 100.977C98.8168 100.977 99.1349 100.928 99.419 100.83C99.7069 100.727 99.955 100.576 100.163 100.375C100.372 100.17 100.533 99.9167 100.646 99.6136L101.942 99.9773C101.805 100.417 101.576 100.803 101.254 101.136C100.932 101.466 100.535 101.723 100.061 101.909C99.5876 102.091 99.0554 102.182 98.4645 102.182ZM106.686 102.205C106.133 102.205 105.631 102.1 105.18 101.892C104.73 101.68 104.372 101.375 104.107 100.977C103.841 100.576 103.709 100.091 103.709 99.5227C103.709 99.0227 103.807 98.6174 104.004 98.3068C104.201 97.9924 104.464 97.7462 104.794 97.5682C105.124 97.3902 105.487 97.2576 105.885 97.1705C106.286 97.0795 106.69 97.0076 107.095 96.9545C107.625 96.8864 108.055 96.8352 108.385 96.8011C108.718 96.7633 108.961 96.7008 109.112 96.6136C109.268 96.5265 109.345 96.375 109.345 96.1591V96.1136C109.345 95.553 109.192 95.1174 108.885 94.8068C108.582 94.4962 108.122 94.3409 107.504 94.3409C106.864 94.3409 106.362 94.4811 105.999 94.7614C105.635 95.0417 105.379 95.3409 105.232 95.6591L103.959 95.2045C104.186 94.6742 104.489 94.2614 104.868 93.9659C105.25 93.6667 105.667 93.4583 106.118 93.3409C106.572 93.2197 107.019 93.1591 107.459 93.1591C107.739 93.1591 108.061 93.1932 108.425 93.2614C108.792 93.3258 109.146 93.4602 109.487 93.6648C109.832 93.8693 110.118 94.178 110.345 94.5909C110.572 95.0038 110.686 95.5568 110.686 96.25V102H109.345V100.818H109.277C109.186 101.008 109.035 101.21 108.822 101.426C108.61 101.642 108.328 101.826 107.976 101.977C107.624 102.129 107.194 102.205 106.686 102.205ZM106.891 101C107.421 101 107.868 100.896 108.232 100.688C108.599 100.479 108.875 100.21 109.061 99.8807C109.25 99.5511 109.345 99.2045 109.345 98.8409V97.6136C109.288 97.6818 109.163 97.7443 108.97 97.8011C108.781 97.8542 108.561 97.9015 108.311 97.9432C108.065 97.9811 107.824 98.0152 107.589 98.0455C107.358 98.072 107.171 98.0947 107.027 98.1136C106.679 98.1591 106.353 98.233 106.05 98.3352C105.75 98.4337 105.508 98.5833 105.322 98.7841C105.141 98.9811 105.05 99.25 105.05 99.5909C105.05 100.057 105.222 100.409 105.567 100.648C105.915 100.883 106.357 101 106.891 101ZM113.134 102V93.2727H114.429V94.5909H114.52C114.679 94.1591 114.967 93.8087 115.384 93.5398C115.8 93.2708 116.27 93.1364 116.793 93.1364C116.891 93.1364 117.014 93.1383 117.162 93.142C117.31 93.1458 117.421 93.1515 117.497 93.1591V94.5227C117.452 94.5114 117.348 94.4943 117.185 94.4716C117.026 94.4451 116.857 94.4318 116.679 94.4318C116.255 94.4318 115.876 94.5208 115.543 94.6989C115.213 94.8731 114.952 95.1155 114.759 95.4261C114.569 95.733 114.474 96.0833 114.474 96.4773V102H113.134ZM125.268 95.2273L124.064 95.5682C123.988 95.3674 123.876 95.1723 123.729 94.983C123.585 94.7898 123.388 94.6307 123.138 94.5057C122.888 94.3807 122.568 94.3182 122.178 94.3182C121.643 94.3182 121.198 94.4413 120.842 94.6875C120.49 94.9299 120.314 95.2386 120.314 95.6136C120.314 95.947 120.435 96.2102 120.678 96.4034C120.92 96.5966 121.299 96.7576 121.814 96.8864L123.109 97.2045C123.89 97.3939 124.471 97.6837 124.854 98.0739C125.236 98.4602 125.428 98.9583 125.428 99.5682C125.428 100.068 125.284 100.515 124.996 100.909C124.712 101.303 124.314 101.614 123.803 101.841C123.291 102.068 122.696 102.182 122.018 102.182C121.128 102.182 120.392 101.989 119.808 101.602C119.225 101.216 118.856 100.652 118.7 99.9091L119.973 99.5909C120.094 100.061 120.323 100.413 120.661 100.648C121.001 100.883 121.446 101 121.996 101C122.621 101 123.117 100.867 123.484 100.602C123.856 100.333 124.041 100.011 124.041 99.6364C124.041 99.3333 123.935 99.0795 123.723 98.875C123.511 98.6667 123.185 98.5114 122.746 98.4091L121.291 98.0682C120.492 97.8788 119.905 97.5852 119.53 97.1875C119.159 96.786 118.973 96.2841 118.973 95.6818C118.973 95.1894 119.111 94.7538 119.388 94.375C119.668 93.9962 120.049 93.6989 120.53 93.483C121.015 93.267 121.564 93.1591 122.178 93.1591C123.041 93.1591 123.719 93.3485 124.212 93.7273C124.708 94.1061 125.06 94.6061 125.268 95.2273ZM135.491 102.182C134.704 102.182 134.012 101.994 133.418 101.619C132.827 101.244 132.365 100.72 132.031 100.045C131.702 99.3712 131.537 98.5833 131.537 97.6818C131.537 96.7727 131.702 95.9792 132.031 95.3011C132.365 94.6231 132.827 94.0966 133.418 93.7216C134.012 93.3466 134.704 93.1591 135.491 93.1591C136.279 93.1591 136.969 93.3466 137.56 93.7216C138.154 94.0966 138.616 94.6231 138.946 95.3011C139.279 95.9792 139.446 96.7727 139.446 97.6818C139.446 98.5833 139.279 99.3712 138.946 100.045C138.616 100.72 138.154 101.244 137.56 101.619C136.969 101.994 136.279 102.182 135.491 102.182ZM135.491 100.977C136.09 100.977 136.582 100.824 136.969 100.517C137.355 100.21 137.641 99.8068 137.827 99.3068C138.012 98.8068 138.105 98.2652 138.105 97.6818C138.105 97.0985 138.012 96.5549 137.827 96.0511C137.641 95.5473 137.355 95.1402 136.969 94.8295C136.582 94.5189 136.09 94.3636 135.491 94.3636C134.893 94.3636 134.401 94.5189 134.014 94.8295C133.628 95.1402 133.342 95.5473 133.156 96.0511C132.971 96.5549 132.878 97.0985 132.878 97.6818C132.878 98.2652 132.971 98.8068 133.156 99.3068C133.342 99.8068 133.628 100.21 134.014 100.517C134.401 100.824 134.893 100.977 135.491 100.977ZM145.379 93.2727V94.4091H140.675V93.2727H145.379ZM142.084 102V92.0682C142.084 91.5682 142.201 91.1515 142.436 90.8182C142.671 90.4848 142.976 90.2348 143.351 90.0682C143.726 89.9015 144.122 89.8182 144.538 89.8182C144.868 89.8182 145.137 89.8447 145.345 89.8977C145.554 89.9508 145.709 90 145.811 90.0455L145.425 91.2045C145.357 91.1818 145.262 91.1534 145.141 91.1193C145.023 91.0852 144.868 91.0682 144.675 91.0682C144.232 91.0682 143.911 91.1799 143.714 91.4034C143.521 91.6269 143.425 91.9545 143.425 92.3864V102H142.084ZM151.94 102V90.3636H158.963V91.6136H153.349V95.5455H158.599V96.7955H153.349V100.75H159.054V102H151.94ZM162.321 93.2727L164.412 96.8409L166.503 93.2727H168.048L165.23 97.6364L168.048 102H166.503L164.412 98.6136L162.321 102H160.776L163.548 97.6364L160.776 93.2727H162.321ZM169.962 105.273V93.2727H171.257V94.6591H171.416C171.515 94.5076 171.651 94.3144 171.825 94.0795C172.003 93.8409 172.257 93.6288 172.587 93.4432C172.92 93.2538 173.371 93.1591 173.939 93.1591C174.674 93.1591 175.321 93.3428 175.882 93.7102C176.443 94.0777 176.88 94.5985 177.195 95.2727C177.509 95.947 177.666 96.7424 177.666 97.6591C177.666 98.5833 177.509 99.3845 177.195 100.062C176.88 100.737 176.445 101.259 175.888 101.631C175.331 101.998 174.689 102.182 173.962 102.182C173.401 102.182 172.952 102.089 172.615 101.903C172.278 101.714 172.018 101.5 171.837 101.261C171.655 101.019 171.515 100.818 171.416 100.659H171.303V105.273H169.962ZM171.28 97.6364C171.28 98.2955 171.376 98.8769 171.57 99.3807C171.763 99.8807 172.045 100.273 172.416 100.557C172.787 100.837 173.242 100.977 173.78 100.977C174.34 100.977 174.808 100.83 175.183 100.534C175.562 100.235 175.846 99.8333 176.036 99.3295C176.229 98.822 176.325 98.2576 176.325 97.6364C176.325 97.0227 176.231 96.4697 176.041 95.9773C175.856 95.4811 175.573 95.089 175.195 94.8011C174.82 94.5095 174.348 94.3636 173.78 94.3636C173.234 94.3636 172.776 94.5019 172.405 94.7784C172.034 95.0511 171.753 95.4337 171.564 95.9261C171.375 96.4148 171.28 96.9848 171.28 97.6364ZM183.371 102.182C182.53 102.182 181.804 101.996 181.195 101.625C180.589 101.25 180.121 100.727 179.791 100.057C179.465 99.3826 179.303 98.5985 179.303 97.7045C179.303 96.8106 179.465 96.0227 179.791 95.3409C180.121 94.6553 180.579 94.1212 181.166 93.7386C181.757 93.3523 182.446 93.1591 183.234 93.1591C183.689 93.1591 184.138 93.2348 184.581 93.3864C185.024 93.5379 185.428 93.7841 185.791 94.125C186.155 94.4621 186.445 94.9091 186.661 95.4659C186.876 96.0227 186.984 96.7083 186.984 97.5227V98.0909H180.257V96.9318H185.621C185.621 96.4394 185.522 96 185.325 95.6136C185.132 95.2273 184.856 94.9223 184.496 94.6989C184.14 94.4754 183.719 94.3636 183.234 94.3636C182.7 94.3636 182.238 94.4962 181.848 94.7614C181.462 95.0227 181.164 95.3636 180.956 95.7841C180.748 96.2045 180.643 96.6553 180.643 97.1364V97.9091C180.643 98.5682 180.757 99.1269 180.984 99.5852C181.215 100.04 181.536 100.386 181.945 100.625C182.354 100.86 182.829 100.977 183.371 100.977C183.723 100.977 184.041 100.928 184.325 100.83C184.613 100.727 184.861 100.576 185.07 100.375C185.278 100.17 185.439 99.9167 185.553 99.6136L186.848 99.9773C186.712 100.417 186.482 100.803 186.161 101.136C185.839 101.466 185.441 101.723 184.967 101.909C184.494 102.091 183.962 102.182 183.371 102.182ZM189.024 102V93.2727H190.32V94.5909H190.411C190.57 94.1591 190.857 93.8087 191.274 93.5398C191.691 93.2708 192.161 93.1364 192.683 93.1364C192.782 93.1364 192.905 93.1383 193.053 93.142C193.2 93.1458 193.312 93.1515 193.388 93.1591V94.5227C193.342 94.5114 193.238 94.4943 193.075 94.4716C192.916 94.4451 192.748 94.4318 192.57 94.4318C192.145 94.4318 191.767 94.5208 191.433 94.6989C191.104 94.8731 190.842 95.1155 190.649 95.4261C190.46 95.733 190.365 96.0833 190.365 96.4773V102H189.024ZM194.977 102V93.2727H196.318V102H194.977ZM195.659 91.8182C195.398 91.8182 195.172 91.7292 194.983 91.5511C194.797 91.3731 194.705 91.1591 194.705 90.9091C194.705 90.6591 194.797 90.4451 194.983 90.267C195.172 90.089 195.398 90 195.659 90C195.92 90 196.144 90.089 196.33 90.267C196.519 90.4451 196.614 90.6591 196.614 90.9091C196.614 91.1591 196.519 91.3731 196.33 91.5511C196.144 91.7292 195.92 91.8182 195.659 91.8182ZM202.433 102.182C201.592 102.182 200.867 101.996 200.257 101.625C199.651 101.25 199.183 100.727 198.854 100.057C198.528 99.3826 198.365 98.5985 198.365 97.7045C198.365 96.8106 198.528 96.0227 198.854 95.3409C199.183 94.6553 199.642 94.1212 200.229 93.7386C200.82 93.3523 201.509 93.1591 202.297 93.1591C202.751 93.1591 203.2 93.2348 203.643 93.3864C204.087 93.5379 204.49 93.7841 204.854 94.125C205.217 94.4621 205.507 94.9091 205.723 95.4659C205.939 96.0227 206.047 96.7083 206.047 97.5227V98.0909H199.32V96.9318H204.683C204.683 96.4394 204.585 96 204.388 95.6136C204.195 95.2273 203.918 94.9223 203.558 94.6989C203.202 94.4754 202.782 94.3636 202.297 94.3636C201.763 94.3636 201.301 94.4962 200.911 94.7614C200.524 95.0227 200.227 95.3636 200.018 95.7841C199.81 96.2045 199.706 96.6553 199.706 97.1364V97.9091C199.706 98.5682 199.82 99.1269 200.047 99.5852C200.278 100.04 200.598 100.386 201.007 100.625C201.416 100.86 201.892 100.977 202.433 100.977C202.786 100.977 203.104 100.928 203.388 100.83C203.676 100.727 203.924 100.576 204.132 100.375C204.34 100.17 204.501 99.9167 204.615 99.6136L205.911 99.9773C205.774 100.417 205.545 100.803 205.223 101.136C204.901 101.466 204.503 101.723 204.03 101.909C203.556 102.091 203.024 102.182 202.433 102.182ZM209.428 96.75V102H208.087V93.2727H209.382V94.6364H209.496C209.7 94.1932 210.011 93.8371 210.428 93.5682C210.844 93.2955 211.382 93.1591 212.041 93.1591C212.632 93.1591 213.149 93.2803 213.592 93.5227C214.036 93.7614 214.38 94.125 214.626 94.6136C214.873 95.0985 214.996 95.7121 214.996 96.4545V102H213.655V96.5455C213.655 95.8598 213.477 95.3258 213.121 94.9432C212.765 94.5568 212.276 94.3636 211.655 94.3636C211.227 94.3636 210.844 94.4564 210.507 94.642C210.174 94.8277 209.911 95.0985 209.717 95.4545C209.524 95.8106 209.428 96.2424 209.428 96.75ZM220.991 102.182C220.173 102.182 219.469 101.989 218.878 101.602C218.287 101.216 217.832 100.684 217.514 100.006C217.196 99.3277 217.037 98.553 217.037 97.6818C217.037 96.7955 217.2 96.0133 217.526 95.3352C217.855 94.6534 218.313 94.1212 218.901 93.7386C219.491 93.3523 220.181 93.1591 220.969 93.1591C221.582 93.1591 222.135 93.2727 222.628 93.5C223.12 93.7273 223.524 94.0455 223.838 94.4545C224.152 94.8636 224.348 95.3409 224.423 95.8864H223.082C222.98 95.4886 222.753 95.1364 222.401 94.8295C222.052 94.5189 221.582 94.3636 220.991 94.3636C220.469 94.3636 220.01 94.5 219.616 94.7727C219.226 95.0417 218.921 95.4223 218.702 95.9148C218.486 96.4034 218.378 96.9773 218.378 97.6364C218.378 98.3106 218.484 98.8977 218.696 99.3977C218.912 99.8977 219.215 100.286 219.605 100.562C219.999 100.839 220.461 100.977 220.991 100.977C221.34 100.977 221.656 100.917 221.94 100.795C222.224 100.674 222.465 100.5 222.662 100.273C222.859 100.045 222.999 99.7727 223.082 99.4545H224.423C224.348 99.9697 224.16 100.434 223.861 100.847C223.565 101.256 223.173 101.581 222.685 101.824C222.2 102.062 221.635 102.182 220.991 102.182ZM230.043 102.182C229.202 102.182 228.476 101.996 227.866 101.625C227.26 101.25 226.793 100.727 226.463 100.057C226.137 99.3826 225.974 98.5985 225.974 97.7045C225.974 96.8106 226.137 96.0227 226.463 95.3409C226.793 94.6553 227.251 94.1212 227.838 93.7386C228.429 93.3523 229.118 93.1591 229.906 93.1591C230.361 93.1591 230.81 93.2348 231.253 93.3864C231.696 93.5379 232.099 93.7841 232.463 94.125C232.827 94.4621 233.116 94.9091 233.332 95.4659C233.548 96.0227 233.656 96.7083 233.656 97.5227V98.0909H226.929V96.9318H232.293C232.293 96.4394 232.194 96 231.997 95.6136C231.804 95.2273 231.527 94.9223 231.168 94.6989C230.812 94.4754 230.391 94.3636 229.906 94.3636C229.372 94.3636 228.91 94.4962 228.52 94.7614C228.134 95.0227 227.836 95.3636 227.628 95.7841C227.42 96.2045 227.315 96.6553 227.315 97.1364V97.9091C227.315 98.5682 227.429 99.1269 227.656 99.5852C227.887 100.04 228.207 100.386 228.616 100.625C229.026 100.86 229.501 100.977 230.043 100.977C230.395 100.977 230.713 100.928 230.997 100.83C231.285 100.727 231.533 100.576 231.741 100.375C231.95 100.17 232.111 99.9167 232.224 99.6136L233.52 99.9773C233.384 100.417 233.154 100.803 232.832 101.136C232.51 101.466 232.113 101.723 231.639 101.909C231.166 102.091 230.634 102.182 230.043 102.182ZM241.878 95.2273L240.673 95.5682C240.598 95.3674 240.486 95.1723 240.338 94.983C240.194 94.7898 239.997 94.6307 239.747 94.5057C239.497 94.3807 239.177 94.3182 238.787 94.3182C238.253 94.3182 237.808 94.4413 237.452 94.6875C237.099 94.9299 236.923 95.2386 236.923 95.6136C236.923 95.947 237.045 96.2102 237.287 96.4034C237.529 96.5966 237.908 96.7576 238.423 96.8864L239.719 97.2045C240.499 97.3939 241.08 97.6837 241.463 98.0739C241.846 98.4602 242.037 98.9583 242.037 99.5682C242.037 100.068 241.893 100.515 241.605 100.909C241.321 101.303 240.923 101.614 240.412 101.841C239.901 102.068 239.306 102.182 238.628 102.182C237.738 102.182 237.001 101.989 236.418 101.602C235.834 101.216 235.465 100.652 235.31 99.9091L236.582 99.5909C236.704 100.061 236.933 100.413 237.27 100.648C237.611 100.883 238.056 101 238.605 101C239.23 101 239.726 100.867 240.094 100.602C240.465 100.333 240.651 100.011 240.651 99.6364C240.651 99.3333 240.545 99.0795 240.332 98.875C240.12 98.6667 239.795 98.5114 239.355 98.4091L237.901 98.0682C237.101 97.8788 236.514 97.5852 236.139 97.1875C235.768 96.786 235.582 96.2841 235.582 95.6818C235.582 95.1894 235.721 94.7538 235.997 94.375C236.277 93.9962 236.658 93.6989 237.139 93.483C237.624 93.267 238.173 93.1591 238.787 93.1591C239.651 93.1591 240.329 93.3485 240.821 93.7273C241.317 94.1061 241.67 94.6061 241.878 95.2273Z" fill="#F3F3F3"/>
<path d="M117.324 175.477C115.528 175.466 113.795 175.165 112.125 174.574C110.466 173.983 108.977 173.023 107.659 171.693C106.341 170.364 105.295 168.602 104.522 166.409C103.761 164.216 103.38 161.523 103.38 158.33C103.392 155.398 103.727 152.778 104.386 150.472C105.056 148.153 106.011 146.187 107.25 144.574C108.5 142.96 109.994 141.733 111.733 140.892C113.471 140.04 115.42 139.614 117.579 139.614C119.909 139.614 121.966 140.068 123.75 140.977C125.534 141.875 126.966 143.097 128.045 144.642C129.136 146.188 129.795 147.92 130.022 149.841H122.744C122.46 148.625 121.863 147.67 120.954 146.977C120.045 146.284 118.92 145.938 117.579 145.938C115.306 145.938 113.579 146.926 112.397 148.903C111.227 150.881 110.63 153.568 110.608 156.966H110.846C111.369 155.932 112.074 155.051 112.96 154.324C113.858 153.585 114.875 153.023 116.011 152.636C117.159 152.239 118.369 152.04 119.642 152.04C121.71 152.04 123.551 152.528 125.164 153.506C126.778 154.472 128.051 155.801 128.983 157.494C129.914 159.187 130.38 161.125 130.38 163.307C130.38 165.67 129.829 167.773 128.727 169.614C127.636 171.455 126.108 172.898 124.142 173.943C122.187 174.977 119.914 175.489 117.324 175.477ZM117.289 169.682C118.426 169.682 119.443 169.409 120.341 168.864C121.238 168.318 121.943 167.58 122.454 166.648C122.966 165.716 123.221 164.67 123.221 163.511C123.221 162.352 122.966 161.312 122.454 160.392C121.954 159.472 121.261 158.739 120.375 158.193C119.488 157.648 118.477 157.375 117.341 157.375C116.488 157.375 115.699 157.534 114.971 157.852C114.255 158.17 113.625 158.614 113.079 159.182C112.545 159.75 112.125 160.409 111.818 161.159C111.511 161.898 111.358 162.687 111.358 163.528C111.358 164.653 111.613 165.682 112.125 166.614C112.647 167.545 113.352 168.29 114.238 168.847C115.136 169.403 116.153 169.682 117.289 169.682ZM148.051 175.477C146.256 175.466 144.523 175.165 142.852 174.574C141.193 173.983 139.704 173.023 138.386 171.693C137.068 170.364 136.023 168.602 135.25 166.409C134.489 164.216 134.108 161.523 134.108 158.33C134.119 155.398 134.454 152.778 135.114 150.472C135.784 148.153 136.739 146.187 137.977 144.574C139.227 142.96 140.721 141.733 142.46 140.892C144.199 140.04 146.148 139.614 148.307 139.614C150.636 139.614 152.693 140.068 154.477 140.977C156.261 141.875 157.693 143.097 158.773 144.642C159.864 146.188 160.523 147.92 160.75 149.841H153.471C153.187 148.625 152.591 147.67 151.682 146.977C150.773 146.284 149.648 145.938 148.307 145.938C146.034 145.938 144.307 146.926 143.125 148.903C141.954 150.881 141.358 153.568 141.335 156.966H141.574C142.096 155.932 142.801 155.051 143.687 154.324C144.585 153.585 145.602 153.023 146.739 152.636C147.886 152.239 149.096 152.04 150.369 152.04C152.437 152.04 154.278 152.528 155.892 153.506C157.506 154.472 158.778 155.801 159.71 157.494C160.642 159.187 161.108 161.125 161.108 163.307C161.108 165.67 160.557 167.773 159.454 169.614C158.364 171.455 156.835 172.898 154.869 173.943C152.915 174.977 150.642 175.489 148.051 175.477ZM148.017 169.682C149.153 169.682 150.17 169.409 151.068 168.864C151.966 168.318 152.67 167.58 153.182 166.648C153.693 165.716 153.949 164.67 153.949 163.511C153.949 162.352 153.693 161.312 153.182 160.392C152.682 159.472 151.989 158.739 151.102 158.193C150.216 157.648 149.204 157.375 148.068 157.375C147.216 157.375 146.426 157.534 145.699 157.852C144.983 158.17 144.352 158.614 143.807 159.182C143.273 159.75 142.852 160.409 142.545 161.159C142.239 161.898 142.085 162.687 142.085 163.528C142.085 164.653 142.341 165.682 142.852 166.614C143.375 167.545 144.079 168.29 144.966 168.847C145.864 169.403 146.881 169.682 148.017 169.682ZM178.779 175.477C176.983 175.466 175.25 175.165 173.58 174.574C171.921 173.983 170.432 173.023 169.114 171.693C167.796 170.364 166.75 168.602 165.977 166.409C165.216 164.216 164.835 161.523 164.835 158.33C164.847 155.398 165.182 152.778 165.841 150.472C166.511 148.153 167.466 146.187 168.705 144.574C169.955 142.96 171.449 141.733 173.188 140.892C174.926 140.04 176.875 139.614 179.034 139.614C181.364 139.614 183.421 140.068 185.205 140.977C186.989 141.875 188.421 143.097 189.5 144.642C190.591 146.188 191.25 147.92 191.477 149.841H184.199C183.915 148.625 183.318 147.67 182.409 146.977C181.5 146.284 180.375 145.938 179.034 145.938C176.761 145.938 175.034 146.926 173.852 148.903C172.682 150.881 172.085 153.568 172.063 156.966H172.301C172.824 155.932 173.529 155.051 174.415 154.324C175.313 153.585 176.33 153.023 177.466 152.636C178.614 152.239 179.824 152.04 181.097 152.04C183.165 152.04 185.006 152.528 186.619 153.506C188.233 154.472 189.506 155.801 190.438 157.494C191.369 159.187 191.835 161.125 191.835 163.307C191.835 165.67 191.284 167.773 190.182 169.614C189.091 171.455 187.563 172.898 185.597 173.943C183.642 174.977 181.369 175.489 178.779 175.477ZM178.744 169.682C179.881 169.682 180.898 169.409 181.796 168.864C182.693 168.318 183.398 167.58 183.909 166.648C184.421 165.716 184.676 164.67 184.676 163.511C184.676 162.352 184.421 161.312 183.909 160.392C183.409 159.472 182.716 158.739 181.83 158.193C180.943 157.648 179.932 157.375 178.796 157.375C177.943 157.375 177.154 157.534 176.426 157.852C175.71 158.17 175.08 158.614 174.534 159.182C174 159.75 173.58 160.409 173.273 161.159C172.966 161.898 172.813 162.687 172.813 163.528C172.813 164.653 173.068 165.682 173.58 166.614C174.102 167.545 174.807 168.29 175.693 168.847C176.591 169.403 177.608 169.682 178.744 169.682ZM206.54 169.682V145.545H212.642V169.682H206.54ZM197.523 160.665V154.562H221.659V160.665H197.523Z" fill="white"/>
<path d="M94.5732 214V202.364H98.505C99.4179 202.364 100.164 202.528 100.744 202.858C101.327 203.184 101.759 203.625 102.039 204.182C102.319 204.739 102.46 205.36 102.46 206.045C102.46 206.731 102.319 207.354 102.039 207.915C101.763 208.475 101.335 208.922 100.755 209.256C100.175 209.585 99.433 209.75 98.5277 209.75H95.7095V208.5H98.4822C99.1072 208.5 99.6091 208.392 99.9879 208.176C100.367 207.96 100.641 207.669 100.812 207.301C100.986 206.93 101.073 206.511 101.073 206.045C101.073 205.58 100.986 205.163 100.812 204.795C100.641 204.428 100.365 204.14 99.9822 203.932C99.5997 203.72 99.0921 203.614 98.4595 203.614H95.9822V214H94.5732ZM104.548 214V205.273H105.843V206.591H105.934C106.093 206.159 106.381 205.809 106.798 205.54C107.214 205.271 107.684 205.136 108.207 205.136C108.305 205.136 108.428 205.138 108.576 205.142C108.724 205.146 108.835 205.152 108.911 205.159V206.523C108.866 206.511 108.762 206.494 108.599 206.472C108.44 206.445 108.271 206.432 108.093 206.432C107.669 206.432 107.29 206.521 106.957 206.699C106.627 206.873 106.366 207.116 106.173 207.426C105.983 207.733 105.888 208.083 105.888 208.477V214H104.548ZM113.781 214.182C112.993 214.182 112.301 213.994 111.707 213.619C111.116 213.244 110.654 212.72 110.32 212.045C109.991 211.371 109.826 210.583 109.826 209.682C109.826 208.773 109.991 207.979 110.32 207.301C110.654 206.623 111.116 206.097 111.707 205.722C112.301 205.347 112.993 205.159 113.781 205.159C114.568 205.159 115.258 205.347 115.849 205.722C116.443 206.097 116.906 206.623 117.235 207.301C117.568 207.979 117.735 208.773 117.735 209.682C117.735 210.583 117.568 211.371 117.235 212.045C116.906 212.72 116.443 213.244 115.849 213.619C115.258 213.994 114.568 214.182 113.781 214.182ZM113.781 212.977C114.379 212.977 114.871 212.824 115.258 212.517C115.644 212.21 115.93 211.807 116.116 211.307C116.301 210.807 116.394 210.265 116.394 209.682C116.394 209.098 116.301 208.555 116.116 208.051C115.93 207.547 115.644 207.14 115.258 206.83C114.871 206.519 114.379 206.364 113.781 206.364C113.182 206.364 112.69 206.519 112.303 206.83C111.917 207.14 111.631 207.547 111.445 208.051C111.26 208.555 111.167 209.098 111.167 209.682C111.167 210.265 111.26 210.807 111.445 211.307C111.631 211.807 111.917 212.21 112.303 212.517C112.69 212.824 113.182 212.977 113.781 212.977ZM119.782 205.273H121.123V214.636C121.123 215.174 121.03 215.64 120.844 216.034C120.663 216.428 120.386 216.733 120.015 216.949C119.647 217.165 119.183 217.273 118.623 217.273C118.577 217.273 118.532 217.273 118.487 217.273C118.441 217.273 118.396 217.273 118.35 217.273V216.023C118.396 216.023 118.437 216.023 118.475 216.023C118.513 216.023 118.555 216.023 118.6 216.023C119.009 216.023 119.308 215.902 119.498 215.659C119.687 215.42 119.782 215.08 119.782 214.636V205.273ZM120.441 203.818C120.18 203.818 119.954 203.729 119.765 203.551C119.579 203.373 119.487 203.159 119.487 202.909C119.487 202.659 119.579 202.445 119.765 202.267C119.954 202.089 120.18 202 120.441 202C120.702 202 120.926 202.089 121.112 202.267C121.301 202.445 121.396 202.659 121.396 202.909C121.396 203.159 121.301 203.373 121.112 203.551C120.926 203.729 120.702 203.818 120.441 203.818ZM127.238 214.182C126.397 214.182 125.672 213.996 125.062 213.625C124.456 213.25 123.988 212.727 123.658 212.057C123.333 211.383 123.17 210.598 123.17 209.705C123.17 208.811 123.333 208.023 123.658 207.341C123.988 206.655 124.446 206.121 125.033 205.739C125.624 205.352 126.314 205.159 127.102 205.159C127.556 205.159 128.005 205.235 128.448 205.386C128.891 205.538 129.295 205.784 129.658 206.125C130.022 206.462 130.312 206.909 130.528 207.466C130.744 208.023 130.852 208.708 130.852 209.523V210.091H124.124V208.932H129.488C129.488 208.439 129.389 208 129.192 207.614C128.999 207.227 128.723 206.922 128.363 206.699C128.007 206.475 127.586 206.364 127.102 206.364C126.567 206.364 126.105 206.496 125.715 206.761C125.329 207.023 125.031 207.364 124.823 207.784C124.615 208.205 124.511 208.655 124.511 209.136V209.909C124.511 210.568 124.624 211.127 124.852 211.585C125.083 212.04 125.403 212.386 125.812 212.625C126.221 212.86 126.696 212.977 127.238 212.977C127.59 212.977 127.908 212.928 128.192 212.83C128.48 212.727 128.728 212.576 128.937 212.375C129.145 212.17 129.306 211.917 129.42 211.614L130.715 211.977C130.579 212.417 130.35 212.803 130.028 213.136C129.706 213.466 129.308 213.723 128.835 213.909C128.361 214.091 127.829 214.182 127.238 214.182ZM136.437 214.182C135.619 214.182 134.914 213.989 134.323 213.602C133.732 213.216 133.278 212.684 132.96 212.006C132.641 211.328 132.482 210.553 132.482 209.682C132.482 208.795 132.645 208.013 132.971 207.335C133.3 206.653 133.759 206.121 134.346 205.739C134.937 205.352 135.626 205.159 136.414 205.159C137.028 205.159 137.581 205.273 138.073 205.5C138.566 205.727 138.969 206.045 139.283 206.455C139.598 206.864 139.793 207.341 139.869 207.886H138.528C138.425 207.489 138.198 207.136 137.846 206.83C137.497 206.519 137.028 206.364 136.437 206.364C135.914 206.364 135.456 206.5 135.062 206.773C134.672 207.042 134.367 207.422 134.147 207.915C133.931 208.403 133.823 208.977 133.823 209.636C133.823 210.311 133.929 210.898 134.141 211.398C134.357 211.898 134.66 212.286 135.05 212.562C135.444 212.839 135.906 212.977 136.437 212.977C136.785 212.977 137.102 212.917 137.386 212.795C137.67 212.674 137.91 212.5 138.107 212.273C138.304 212.045 138.444 211.773 138.528 211.455H139.869C139.793 211.97 139.605 212.434 139.306 212.847C139.011 213.256 138.619 213.581 138.13 213.824C137.645 214.062 137.081 214.182 136.437 214.182ZM145.624 205.273V206.409H141.102V205.273H145.624ZM142.42 203.182H143.761V211.5C143.761 211.879 143.816 212.163 143.925 212.352C144.039 212.538 144.183 212.663 144.357 212.727C144.535 212.788 144.723 212.818 144.92 212.818C145.067 212.818 145.189 212.811 145.283 212.795C145.378 212.777 145.454 212.761 145.511 212.75L145.783 213.955C145.692 213.989 145.566 214.023 145.403 214.057C145.24 214.095 145.033 214.114 144.783 214.114C144.405 214.114 144.033 214.032 143.67 213.869C143.31 213.706 143.011 213.458 142.772 213.125C142.537 212.792 142.42 212.371 142.42 211.864V203.182ZM161.687 206H160.278C160.194 205.595 160.049 205.239 159.84 204.932C159.636 204.625 159.386 204.367 159.09 204.159C158.799 203.947 158.475 203.788 158.119 203.682C157.763 203.576 157.391 203.523 157.005 203.523C156.3 203.523 155.662 203.701 155.09 204.057C154.522 204.413 154.069 204.938 153.732 205.631C153.399 206.324 153.232 207.174 153.232 208.182C153.232 209.189 153.399 210.04 153.732 210.733C154.069 211.426 154.522 211.951 155.09 212.307C155.662 212.663 156.3 212.841 157.005 212.841C157.391 212.841 157.763 212.788 158.119 212.682C158.475 212.576 158.799 212.419 159.09 212.21C159.386 211.998 159.636 211.739 159.84 211.432C160.049 211.121 160.194 210.765 160.278 210.364H161.687C161.581 210.958 161.388 211.491 161.107 211.96C160.827 212.43 160.478 212.83 160.062 213.159C159.645 213.485 159.177 213.733 158.658 213.903C158.143 214.074 157.592 214.159 157.005 214.159C156.013 214.159 155.13 213.917 154.357 213.432C153.585 212.947 152.977 212.258 152.533 211.364C152.09 210.47 151.869 209.409 151.869 208.182C151.869 206.955 152.09 205.894 152.533 205C152.977 204.106 153.585 203.417 154.357 202.932C155.13 202.447 156.013 202.205 157.005 202.205C157.592 202.205 158.143 202.29 158.658 202.46C159.177 202.631 159.645 202.881 160.062 203.21C160.478 203.536 160.827 203.934 161.107 204.403C161.388 204.869 161.581 205.402 161.687 206ZM167.327 214.182C166.54 214.182 165.848 213.994 165.254 213.619C164.663 213.244 164.201 212.72 163.867 212.045C163.538 211.371 163.373 210.583 163.373 209.682C163.373 208.773 163.538 207.979 163.867 207.301C164.201 206.623 164.663 206.097 165.254 205.722C165.848 205.347 166.54 205.159 167.327 205.159C168.115 205.159 168.805 205.347 169.396 205.722C169.99 206.097 170.452 206.623 170.782 207.301C171.115 207.979 171.282 208.773 171.282 209.682C171.282 210.583 171.115 211.371 170.782 212.045C170.452 212.72 169.99 213.244 169.396 213.619C168.805 213.994 168.115 214.182 167.327 214.182ZM167.327 212.977C167.926 212.977 168.418 212.824 168.805 212.517C169.191 212.21 169.477 211.807 169.663 211.307C169.848 210.807 169.941 210.265 169.941 209.682C169.941 209.098 169.848 208.555 169.663 208.051C169.477 207.547 169.191 207.14 168.805 206.83C168.418 206.519 167.926 206.364 167.327 206.364C166.729 206.364 166.237 206.519 165.85 206.83C165.464 207.14 165.178 207.547 164.992 208.051C164.807 208.555 164.714 209.098 164.714 209.682C164.714 210.265 164.807 210.807 164.992 211.307C165.178 211.807 165.464 212.21 165.85 212.517C166.237 212.824 166.729 212.977 167.327 212.977ZM173.329 214V205.273H174.624V206.636H174.738C174.92 206.17 175.213 205.809 175.619 205.551C176.024 205.29 176.511 205.159 177.079 205.159C177.655 205.159 178.134 205.29 178.516 205.551C178.903 205.809 179.204 206.17 179.42 206.636H179.511C179.734 206.186 180.069 205.828 180.516 205.562C180.963 205.294 181.499 205.159 182.124 205.159C182.905 205.159 183.543 205.403 184.039 205.892C184.535 206.377 184.783 207.133 184.783 208.159V214H183.442V208.159C183.442 207.515 183.266 207.055 182.914 206.778C182.562 206.502 182.147 206.364 181.67 206.364C181.056 206.364 180.581 206.549 180.244 206.92C179.906 207.288 179.738 207.754 179.738 208.318V214H178.374V208.023C178.374 207.527 178.213 207.127 177.891 206.824C177.569 206.517 177.155 206.364 176.647 206.364C176.299 206.364 175.973 206.456 175.67 206.642C175.371 206.828 175.128 207.085 174.942 207.415C174.761 207.741 174.67 208.117 174.67 208.545V214H173.329ZM187.235 217.273V205.273H188.531V206.659H188.69C188.788 206.508 188.924 206.314 189.099 206.08C189.277 205.841 189.531 205.629 189.86 205.443C190.193 205.254 190.644 205.159 191.212 205.159C191.947 205.159 192.595 205.343 193.156 205.71C193.716 206.078 194.154 206.598 194.468 207.273C194.782 207.947 194.94 208.742 194.94 209.659C194.94 210.583 194.782 211.384 194.468 212.062C194.154 212.737 193.718 213.259 193.161 213.631C192.604 213.998 191.962 214.182 191.235 214.182C190.674 214.182 190.226 214.089 189.888 213.903C189.551 213.714 189.292 213.5 189.11 213.261C188.928 213.019 188.788 212.818 188.69 212.659H188.576V217.273H187.235ZM188.553 209.636C188.553 210.295 188.65 210.877 188.843 211.381C189.036 211.881 189.318 212.273 189.69 212.557C190.061 212.837 190.515 212.977 191.053 212.977C191.614 212.977 192.082 212.83 192.457 212.534C192.835 212.235 193.12 211.833 193.309 211.33C193.502 210.822 193.599 210.258 193.599 209.636C193.599 209.023 193.504 208.47 193.315 207.977C193.129 207.481 192.847 207.089 192.468 206.801C192.093 206.509 191.621 206.364 191.053 206.364C190.508 206.364 190.049 206.502 189.678 206.778C189.307 207.051 189.027 207.434 188.837 207.926C188.648 208.415 188.553 208.985 188.553 209.636ZM198.326 202.364V214H196.985V202.364H198.326ZM204.441 214.182C203.6 214.182 202.875 213.996 202.265 213.625C201.659 213.25 201.191 212.727 200.862 212.057C200.536 211.383 200.373 210.598 200.373 209.705C200.373 208.811 200.536 208.023 200.862 207.341C201.191 206.655 201.649 206.121 202.237 205.739C202.827 205.352 203.517 205.159 204.305 205.159C204.759 205.159 205.208 205.235 205.651 205.386C206.094 205.538 206.498 205.784 206.862 206.125C207.225 206.462 207.515 206.909 207.731 207.466C207.947 208.023 208.055 208.708 208.055 209.523V210.091H201.327V208.932H206.691C206.691 208.439 206.593 208 206.396 207.614C206.202 207.227 205.926 206.922 205.566 206.699C205.21 206.475 204.79 206.364 204.305 206.364C203.771 206.364 203.308 206.496 202.918 206.761C202.532 207.023 202.235 207.364 202.026 207.784C201.818 208.205 201.714 208.655 201.714 209.136V209.909C201.714 210.568 201.827 211.127 202.055 211.585C202.286 212.04 202.606 212.386 203.015 212.625C203.424 212.86 203.899 212.977 204.441 212.977C204.793 212.977 205.112 212.928 205.396 212.83C205.683 212.727 205.932 212.576 206.14 212.375C206.348 212.17 206.509 211.917 206.623 211.614L207.918 211.977C207.782 212.417 207.553 212.803 207.231 213.136C206.909 213.466 206.511 213.723 206.038 213.909C205.564 214.091 205.032 214.182 204.441 214.182ZM213.89 205.273V206.409H209.367V205.273H213.89ZM210.685 203.182H212.026V211.5C212.026 211.879 212.081 212.163 212.191 212.352C212.305 212.538 212.449 212.663 212.623 212.727C212.801 212.788 212.988 212.818 213.185 212.818C213.333 212.818 213.454 212.811 213.549 212.795C213.644 212.777 213.719 212.761 213.776 212.75L214.049 213.955C213.958 213.989 213.831 214.023 213.668 214.057C213.505 214.095 213.299 214.114 213.049 214.114C212.67 214.114 212.299 214.032 211.935 213.869C211.576 213.706 211.276 213.458 211.038 213.125C210.803 212.792 210.685 212.371 210.685 211.864V203.182ZM219.472 214.182C218.631 214.182 217.906 213.996 217.296 213.625C216.69 213.25 216.222 212.727 215.893 212.057C215.567 211.383 215.404 210.598 215.404 209.705C215.404 208.811 215.567 208.023 215.893 207.341C216.222 206.655 216.681 206.121 217.268 205.739C217.859 205.352 218.548 205.159 219.336 205.159C219.79 205.159 220.239 205.235 220.683 205.386C221.126 205.538 221.529 205.784 221.893 206.125C222.256 206.462 222.546 206.909 222.762 207.466C222.978 208.023 223.086 208.708 223.086 209.523V210.091H216.359V208.932H221.722C221.722 208.439 221.624 208 221.427 207.614C221.234 207.227 220.957 206.922 220.597 206.699C220.241 206.475 219.821 206.364 219.336 206.364C218.802 206.364 218.34 206.496 217.95 206.761C217.563 207.023 217.266 207.364 217.058 207.784C216.849 208.205 216.745 208.655 216.745 209.136V209.909C216.745 210.568 216.859 211.127 217.086 211.585C217.317 212.04 217.637 212.386 218.046 212.625C218.455 212.86 218.931 212.977 219.472 212.977C219.825 212.977 220.143 212.928 220.427 212.83C220.715 212.727 220.963 212.576 221.171 212.375C221.379 212.17 221.54 211.917 221.654 211.614L222.95 211.977C222.813 212.417 222.584 212.803 222.262 213.136C221.94 213.466 221.542 213.723 221.069 213.909C220.595 214.091 220.063 214.182 219.472 214.182ZM228.421 214.182C227.694 214.182 227.052 213.998 226.495 213.631C225.938 213.259 225.503 212.737 225.188 212.062C224.874 211.384 224.717 210.583 224.717 209.659C224.717 208.742 224.874 207.947 225.188 207.273C225.503 206.598 225.94 206.078 226.501 205.71C227.061 205.343 227.709 205.159 228.444 205.159C229.012 205.159 229.461 205.254 229.79 205.443C230.124 205.629 230.378 205.841 230.552 206.08C230.73 206.314 230.868 206.508 230.967 206.659H231.08V202.364H232.421V214H231.126V212.659H230.967C230.868 212.818 230.728 213.019 230.546 213.261C230.364 213.5 230.105 213.714 229.768 213.903C229.431 214.089 228.982 214.182 228.421 214.182ZM228.603 212.977C229.141 212.977 229.595 212.837 229.967 212.557C230.338 212.273 230.62 211.881 230.813 211.381C231.006 210.877 231.103 210.295 231.103 209.636C231.103 208.985 231.008 208.415 230.819 207.926C230.629 207.434 230.349 207.051 229.978 206.778C229.607 206.502 229.148 206.364 228.603 206.364C228.035 206.364 227.561 206.509 227.183 206.801C226.808 207.089 226.525 207.481 226.336 207.977C226.15 208.47 226.058 209.023 226.058 209.636C226.058 210.258 226.152 210.822 226.342 211.33C226.535 211.833 226.819 212.235 227.194 212.534C227.573 212.83 228.042 212.977 228.603 212.977Z" fill="#F3F3F3"/>
<path d="M117.801 287.477C115.392 287.477 113.244 287.034 111.358 286.148C109.483 285.261 107.994 284.04 106.892 282.483C105.789 280.926 105.216 279.142 105.17 277.131H112.329C112.409 278.483 112.977 279.58 114.034 280.42C115.091 281.261 116.346 281.682 117.801 281.682C118.96 281.682 119.983 281.426 120.869 280.915C121.767 280.392 122.466 279.67 122.966 278.75C123.477 277.818 123.733 276.75 123.733 275.545C123.733 274.318 123.471 273.239 122.949 272.307C122.437 271.375 121.727 270.648 120.818 270.125C119.909 269.602 118.869 269.335 117.699 269.324C116.676 269.324 115.681 269.534 114.716 269.955C113.761 270.375 113.017 270.949 112.483 271.676L105.92 270.5L107.574 252.091H128.914V258.125H113.659L112.755 266.869H112.96C113.574 266.006 114.5 265.29 115.738 264.722C116.977 264.153 118.363 263.869 119.897 263.869C122 263.869 123.875 264.364 125.522 265.352C127.17 266.341 128.471 267.699 129.426 269.426C130.38 271.142 130.852 273.119 130.841 275.358C130.852 277.71 130.306 279.801 129.204 281.631C128.113 283.449 126.585 284.881 124.619 285.926C122.664 286.96 120.392 287.477 117.801 287.477ZM147.778 287.477C145.369 287.477 143.221 287.034 141.335 286.148C139.46 285.261 137.971 284.04 136.869 282.483C135.767 280.926 135.193 279.142 135.148 277.131H142.307C142.386 278.483 142.954 279.58 144.011 280.42C145.068 281.261 146.324 281.682 147.778 281.682C148.937 281.682 149.96 281.426 150.846 280.915C151.744 280.392 152.443 279.67 152.943 278.75C153.454 277.818 153.71 276.75 153.71 275.545C153.71 274.318 153.449 273.239 152.926 272.307C152.415 271.375 151.704 270.648 150.795 270.125C149.886 269.602 148.846 269.335 147.676 269.324C146.653 269.324 145.659 269.534 144.693 269.955C143.739 270.375 142.994 270.949 142.46 271.676L135.898 270.5L137.551 252.091H158.892V258.125H143.636L142.733 266.869H142.937C143.551 266.006 144.477 265.29 145.716 264.722C146.954 264.153 148.341 263.869 149.875 263.869C151.977 263.869 153.852 264.364 155.5 265.352C157.148 266.341 158.449 267.699 159.403 269.426C160.358 271.142 160.829 273.119 160.818 275.358C160.829 277.71 160.284 279.801 159.182 281.631C158.091 283.449 156.562 284.881 154.596 285.926C152.642 286.96 150.369 287.477 147.778 287.477ZM177.756 287.477C175.347 287.477 173.199 287.034 171.313 286.148C169.438 285.261 167.949 284.04 166.847 282.483C165.744 280.926 165.171 279.142 165.125 277.131H172.284C172.364 278.483 172.932 279.58 173.989 280.42C175.046 281.261 176.301 281.682 177.756 281.682C178.915 281.682 179.938 281.426 180.824 280.915C181.722 280.392 182.421 279.67 182.921 278.75C183.432 277.818 183.688 276.75 183.688 275.545C183.688 274.318 183.426 273.239 182.904 272.307C182.392 271.375 181.682 270.648 180.773 270.125C179.864 269.602 178.824 269.335 177.654 269.324C176.631 269.324 175.636 269.534 174.671 269.955C173.716 270.375 172.972 270.949 172.438 271.676L165.875 270.5L167.529 252.091H188.869V258.125H173.614L172.71 266.869H172.915C173.529 266.006 174.455 265.29 175.693 264.722C176.932 264.153 178.318 263.869 179.852 263.869C181.955 263.869 183.83 264.364 185.477 265.352C187.125 266.341 188.426 267.699 189.381 269.426C190.335 271.142 190.807 273.119 190.796 275.358C190.807 277.71 190.261 279.801 189.159 281.631C188.068 283.449 186.54 284.881 184.574 285.926C182.619 286.96 180.347 287.477 177.756 287.477ZM205.415 281.682V257.545H211.517V281.682H205.415ZM196.398 272.665V266.562H220.534V272.665H196.398Z" fill="white"/>
<path d="M114.163 317.273C114.095 316.697 113.819 316.25 113.334 315.932C112.849 315.614 112.254 315.455 111.55 315.455C111.035 315.455 110.584 315.538 110.197 315.705C109.815 315.871 109.516 316.1 109.3 316.392C109.088 316.684 108.982 317.015 108.982 317.386C108.982 317.697 109.055 317.964 109.203 318.188C109.355 318.407 109.548 318.591 109.783 318.739C110.018 318.883 110.264 319.002 110.521 319.097C110.779 319.187 111.016 319.261 111.232 319.318L112.413 319.636C112.716 319.716 113.054 319.826 113.425 319.966C113.8 320.106 114.158 320.297 114.499 320.54C114.843 320.778 115.127 321.085 115.351 321.46C115.574 321.835 115.686 322.295 115.686 322.841C115.686 323.47 115.521 324.038 115.192 324.545C114.866 325.053 114.389 325.456 113.76 325.756C113.135 326.055 112.375 326.205 111.482 326.205C110.648 326.205 109.927 326.07 109.317 325.801C108.711 325.532 108.233 325.157 107.885 324.676C107.54 324.195 107.345 323.636 107.3 323H108.754C108.792 323.439 108.94 323.803 109.197 324.091C109.459 324.375 109.788 324.587 110.186 324.727C110.588 324.864 111.019 324.932 111.482 324.932C112.019 324.932 112.502 324.845 112.93 324.67C113.358 324.492 113.697 324.246 113.947 323.932C114.197 323.614 114.322 323.242 114.322 322.818C114.322 322.432 114.214 322.117 113.999 321.875C113.783 321.633 113.499 321.436 113.146 321.284C112.794 321.133 112.413 321 112.004 320.886L110.572 320.477C109.663 320.216 108.944 319.843 108.413 319.358C107.883 318.873 107.618 318.239 107.618 317.455C107.618 316.803 107.794 316.235 108.146 315.75C108.502 315.261 108.98 314.883 109.578 314.614C110.18 314.341 110.853 314.205 111.595 314.205C112.345 314.205 113.012 314.339 113.595 314.608C114.179 314.873 114.641 315.237 114.982 315.699C115.326 316.161 115.508 316.686 115.527 317.273H114.163ZM120.389 326.205C119.836 326.205 119.334 326.1 118.884 325.892C118.433 325.68 118.075 325.375 117.81 324.977C117.545 324.576 117.412 324.091 117.412 323.523C117.412 323.023 117.51 322.617 117.707 322.307C117.904 321.992 118.168 321.746 118.497 321.568C118.827 321.39 119.19 321.258 119.588 321.17C119.99 321.08 120.393 321.008 120.798 320.955C121.329 320.886 121.759 320.835 122.088 320.801C122.421 320.763 122.664 320.701 122.815 320.614C122.971 320.527 123.048 320.375 123.048 320.159V320.114C123.048 319.553 122.895 319.117 122.588 318.807C122.285 318.496 121.825 318.341 121.207 318.341C120.567 318.341 120.065 318.481 119.702 318.761C119.338 319.042 119.082 319.341 118.935 319.659L117.662 319.205C117.889 318.674 118.192 318.261 118.571 317.966C118.954 317.667 119.37 317.458 119.821 317.341C120.276 317.22 120.723 317.159 121.162 317.159C121.442 317.159 121.764 317.193 122.128 317.261C122.495 317.326 122.849 317.46 123.19 317.665C123.535 317.869 123.821 318.178 124.048 318.591C124.276 319.004 124.389 319.557 124.389 320.25V326H123.048V324.818H122.98C122.889 325.008 122.738 325.21 122.526 325.426C122.313 325.642 122.031 325.826 121.679 325.977C121.327 326.129 120.897 326.205 120.389 326.205ZM120.594 325C121.124 325 121.571 324.896 121.935 324.688C122.302 324.479 122.579 324.21 122.764 323.881C122.954 323.551 123.048 323.205 123.048 322.841V321.614C122.991 321.682 122.866 321.744 122.673 321.801C122.484 321.854 122.264 321.902 122.014 321.943C121.768 321.981 121.527 322.015 121.293 322.045C121.062 322.072 120.874 322.095 120.73 322.114C120.382 322.159 120.056 322.233 119.753 322.335C119.454 322.434 119.211 322.583 119.026 322.784C118.844 322.981 118.753 323.25 118.753 323.591C118.753 324.057 118.925 324.409 119.27 324.648C119.618 324.883 120.06 325 120.594 325ZM130.632 317.273V318.409H126.109V317.273H130.632ZM127.428 315.182H128.768V323.5C128.768 323.879 128.823 324.163 128.933 324.352C129.047 324.538 129.191 324.663 129.365 324.727C129.543 324.788 129.731 324.818 129.928 324.818C130.075 324.818 130.196 324.811 130.291 324.795C130.386 324.777 130.462 324.761 130.518 324.75L130.791 325.955C130.7 325.989 130.573 326.023 130.411 326.057C130.248 326.095 130.041 326.114 129.791 326.114C129.412 326.114 129.041 326.032 128.678 325.869C128.318 325.706 128.018 325.458 127.78 325.125C127.545 324.792 127.428 324.371 127.428 323.864V315.182ZM132.649 326V317.273H133.99V326H132.649ZM133.331 315.818C133.07 315.818 132.844 315.729 132.655 315.551C132.469 315.373 132.376 315.159 132.376 314.909C132.376 314.659 132.469 314.445 132.655 314.267C132.844 314.089 133.07 314 133.331 314C133.592 314 133.816 314.089 134.001 314.267C134.191 314.445 134.286 314.659 134.286 314.909C134.286 315.159 134.191 315.373 134.001 315.551C133.816 315.729 133.592 315.818 133.331 315.818ZM142.628 319.227L141.423 319.568C141.348 319.367 141.236 319.172 141.088 318.983C140.944 318.79 140.747 318.631 140.497 318.506C140.247 318.381 139.927 318.318 139.537 318.318C139.003 318.318 138.558 318.441 138.202 318.688C137.849 318.93 137.673 319.239 137.673 319.614C137.673 319.947 137.795 320.21 138.037 320.403C138.279 320.597 138.658 320.758 139.173 320.886L140.469 321.205C141.249 321.394 141.83 321.684 142.213 322.074C142.596 322.46 142.787 322.958 142.787 323.568C142.787 324.068 142.643 324.515 142.355 324.909C142.071 325.303 141.673 325.614 141.162 325.841C140.651 326.068 140.056 326.182 139.378 326.182C138.488 326.182 137.751 325.989 137.168 325.602C136.584 325.216 136.215 324.652 136.06 323.909L137.332 323.591C137.454 324.061 137.683 324.413 138.02 324.648C138.361 324.883 138.806 325 139.355 325C139.98 325 140.476 324.867 140.844 324.602C141.215 324.333 141.401 324.011 141.401 323.636C141.401 323.333 141.295 323.08 141.082 322.875C140.87 322.667 140.545 322.511 140.105 322.409L138.651 322.068C137.851 321.879 137.264 321.585 136.889 321.188C136.518 320.786 136.332 320.284 136.332 319.682C136.332 319.189 136.471 318.754 136.747 318.375C137.027 317.996 137.408 317.699 137.889 317.483C138.374 317.267 138.923 317.159 139.537 317.159C140.401 317.159 141.079 317.348 141.571 317.727C142.067 318.106 142.42 318.606 142.628 319.227ZM148.692 317.273V318.409H143.987V317.273H148.692ZM145.396 326V316.068C145.396 315.568 145.514 315.152 145.749 314.818C145.983 314.485 146.288 314.235 146.663 314.068C147.038 313.902 147.434 313.818 147.851 313.818C148.18 313.818 148.449 313.845 148.658 313.898C148.866 313.951 149.021 314 149.124 314.045L148.737 315.205C148.669 315.182 148.574 315.153 148.453 315.119C148.336 315.085 148.18 315.068 147.987 315.068C147.544 315.068 147.224 315.18 147.027 315.403C146.834 315.627 146.737 315.955 146.737 316.386V326H145.396ZM150.571 326V317.273H151.912V326H150.571ZM151.253 315.818C150.991 315.818 150.766 315.729 150.577 315.551C150.391 315.373 150.298 315.159 150.298 314.909C150.298 314.659 150.391 314.445 150.577 314.267C150.766 314.089 150.991 314 151.253 314C151.514 314 151.738 314.089 151.923 314.267C152.113 314.445 152.207 314.659 152.207 314.909C152.207 315.159 152.113 315.373 151.923 315.551C151.738 315.729 151.514 315.818 151.253 315.818ZM158.027 326.182C157.186 326.182 156.461 325.996 155.851 325.625C155.245 325.25 154.777 324.727 154.447 324.057C154.122 323.383 153.959 322.598 153.959 321.705C153.959 320.811 154.122 320.023 154.447 319.341C154.777 318.655 155.235 318.121 155.822 317.739C156.413 317.352 157.103 317.159 157.891 317.159C158.345 317.159 158.794 317.235 159.237 317.386C159.68 317.538 160.084 317.784 160.447 318.125C160.811 318.462 161.101 318.909 161.317 319.466C161.533 320.023 161.641 320.708 161.641 321.523V322.091H154.913V320.932H160.277C160.277 320.439 160.179 320 159.982 319.614C159.788 319.227 159.512 318.922 159.152 318.699C158.796 318.475 158.375 318.364 157.891 318.364C157.357 318.364 156.894 318.496 156.504 318.761C156.118 319.023 155.821 319.364 155.612 319.784C155.404 320.205 155.3 320.655 155.3 321.136V321.909C155.3 322.568 155.413 323.127 155.641 323.585C155.872 324.04 156.192 324.386 156.601 324.625C157.01 324.86 157.485 324.977 158.027 324.977C158.379 324.977 158.697 324.928 158.982 324.83C159.269 324.727 159.518 324.576 159.726 324.375C159.934 324.17 160.095 323.917 160.209 323.614L161.504 323.977C161.368 324.417 161.139 324.803 160.817 325.136C160.495 325.466 160.097 325.723 159.624 325.909C159.15 326.091 158.618 326.182 158.027 326.182ZM166.976 326.182C166.249 326.182 165.607 325.998 165.05 325.631C164.493 325.259 164.057 324.737 163.743 324.062C163.429 323.384 163.271 322.583 163.271 321.659C163.271 320.742 163.429 319.947 163.743 319.273C164.057 318.598 164.495 318.078 165.055 317.71C165.616 317.343 166.264 317.159 166.999 317.159C167.567 317.159 168.016 317.254 168.345 317.443C168.679 317.629 168.932 317.841 169.107 318.08C169.285 318.314 169.423 318.508 169.521 318.659H169.635V314.364H170.976V326H169.68V324.659H169.521C169.423 324.818 169.283 325.019 169.101 325.261C168.919 325.5 168.66 325.714 168.322 325.903C167.985 326.089 167.536 326.182 166.976 326.182ZM167.158 324.977C167.696 324.977 168.15 324.837 168.521 324.557C168.893 324.273 169.175 323.881 169.368 323.381C169.561 322.877 169.658 322.295 169.658 321.636C169.658 320.985 169.563 320.415 169.374 319.926C169.184 319.434 168.904 319.051 168.533 318.778C168.161 318.502 167.703 318.364 167.158 318.364C166.589 318.364 166.116 318.509 165.737 318.801C165.362 319.089 165.08 319.481 164.891 319.977C164.705 320.47 164.612 321.023 164.612 321.636C164.612 322.258 164.707 322.822 164.896 323.33C165.089 323.833 165.374 324.235 165.749 324.534C166.127 324.83 166.597 324.977 167.158 324.977ZM187.663 318H186.254C186.171 317.595 186.025 317.239 185.817 316.932C185.612 316.625 185.362 316.367 185.067 316.159C184.775 315.947 184.451 315.788 184.095 315.682C183.739 315.576 183.368 315.523 182.982 315.523C182.277 315.523 181.639 315.701 181.067 316.057C180.499 316.413 180.046 316.938 179.709 317.631C179.375 318.324 179.209 319.174 179.209 320.182C179.209 321.189 179.375 322.04 179.709 322.733C180.046 323.426 180.499 323.951 181.067 324.307C181.639 324.663 182.277 324.841 182.982 324.841C183.368 324.841 183.739 324.788 184.095 324.682C184.451 324.576 184.775 324.419 185.067 324.21C185.362 323.998 185.612 323.739 185.817 323.432C186.025 323.121 186.171 322.765 186.254 322.364H187.663C187.557 322.958 187.364 323.491 187.084 323.96C186.804 324.43 186.455 324.83 186.038 325.159C185.622 325.485 185.154 325.733 184.635 325.903C184.12 326.074 183.569 326.159 182.982 326.159C181.989 326.159 181.107 325.917 180.334 325.432C179.561 324.947 178.953 324.258 178.51 323.364C178.067 322.47 177.845 321.409 177.845 320.182C177.845 318.955 178.067 317.894 178.51 317C178.953 316.106 179.561 315.417 180.334 314.932C181.107 314.447 181.989 314.205 182.982 314.205C183.569 314.205 184.12 314.29 184.635 314.46C185.154 314.631 185.622 314.881 186.038 315.21C186.455 315.536 186.804 315.934 187.084 316.403C187.364 316.869 187.557 317.402 187.663 318ZM191.099 314.364V326H189.759V314.364H191.099ZM193.555 326V317.273H194.896V326H193.555ZM194.237 315.818C193.976 315.818 193.75 315.729 193.561 315.551C193.375 315.373 193.283 315.159 193.283 314.909C193.283 314.659 193.375 314.445 193.561 314.267C193.75 314.089 193.976 314 194.237 314C194.499 314 194.722 314.089 194.908 314.267C195.097 314.445 195.192 314.659 195.192 314.909C195.192 315.159 195.097 315.373 194.908 315.551C194.722 315.729 194.499 315.818 194.237 315.818ZM201.011 326.182C200.17 326.182 199.445 325.996 198.835 325.625C198.229 325.25 197.761 324.727 197.432 324.057C197.106 323.383 196.943 322.598 196.943 321.705C196.943 320.811 197.106 320.023 197.432 319.341C197.761 318.655 198.22 318.121 198.807 317.739C199.398 317.352 200.087 317.159 200.875 317.159C201.33 317.159 201.778 317.235 202.222 317.386C202.665 317.538 203.068 317.784 203.432 318.125C203.795 318.462 204.085 318.909 204.301 319.466C204.517 320.023 204.625 320.708 204.625 321.523V322.091H197.898V320.932H203.261C203.261 320.439 203.163 320 202.966 319.614C202.773 319.227 202.496 318.922 202.136 318.699C201.78 318.475 201.36 318.364 200.875 318.364C200.341 318.364 199.879 318.496 199.489 318.761C199.102 319.023 198.805 319.364 198.597 319.784C198.388 320.205 198.284 320.655 198.284 321.136V321.909C198.284 322.568 198.398 323.127 198.625 323.585C198.856 324.04 199.176 324.386 199.585 324.625C199.994 324.86 200.47 324.977 201.011 324.977C201.364 324.977 201.682 324.928 201.966 324.83C202.254 324.727 202.502 324.576 202.71 324.375C202.919 324.17 203.08 323.917 203.193 323.614L204.489 323.977C204.352 324.417 204.123 324.803 203.801 325.136C203.479 325.466 203.081 325.723 202.608 325.909C202.134 326.091 201.602 326.182 201.011 326.182ZM208.006 320.75V326H206.665V317.273H207.96V318.636H208.074C208.278 318.193 208.589 317.837 209.006 317.568C209.422 317.295 209.96 317.159 210.619 317.159C211.21 317.159 211.727 317.28 212.17 317.523C212.614 317.761 212.958 318.125 213.205 318.614C213.451 319.098 213.574 319.712 213.574 320.455V326H212.233V320.545C212.233 319.86 212.055 319.326 211.699 318.943C211.343 318.557 210.854 318.364 210.233 318.364C209.805 318.364 209.422 318.456 209.085 318.642C208.752 318.828 208.489 319.098 208.295 319.455C208.102 319.811 208.006 320.242 208.006 320.75ZM219.82 317.273V318.409H215.297V317.273H219.82ZM216.615 315.182H217.956V323.5C217.956 323.879 218.011 324.163 218.121 324.352C218.234 324.538 218.378 324.663 218.553 324.727C218.731 324.788 218.918 324.818 219.115 324.818C219.263 324.818 219.384 324.811 219.479 324.795C219.573 324.777 219.649 324.761 219.706 324.75L219.979 325.955C219.888 325.989 219.761 326.023 219.598 326.057C219.435 326.095 219.229 326.114 218.979 326.114C218.6 326.114 218.229 326.032 217.865 325.869C217.505 325.706 217.206 325.458 216.967 325.125C216.732 324.792 216.615 324.371 216.615 323.864V315.182Z" fill="#F3F3F3"/>
<path d="M154.786 364.091V399H147.405V371.097H147.201L139.207 376.108V369.562L147.849 364.091H154.786ZM174.873 399.477C172.464 399.477 170.316 399.034 168.43 398.148C166.555 397.261 165.066 396.04 163.964 394.483C162.862 392.926 162.288 391.142 162.242 389.131H169.401C169.481 390.483 170.049 391.58 171.106 392.42C172.163 393.261 173.418 393.682 174.873 393.682C176.032 393.682 177.055 393.426 177.941 392.915C178.839 392.392 179.538 391.67 180.038 390.75C180.549 389.818 180.805 388.75 180.805 387.545C180.805 386.318 180.543 385.239 180.021 384.307C179.509 383.375 178.799 382.648 177.89 382.125C176.981 381.602 175.941 381.335 174.771 381.324C173.748 381.324 172.754 381.534 171.788 381.955C170.833 382.375 170.089 382.949 169.555 383.676L162.992 382.5L164.646 364.091H185.987V370.125H170.731L169.828 378.869H170.032C170.646 378.006 171.572 377.29 172.81 376.722C174.049 376.153 175.435 375.869 176.97 375.869C179.072 375.869 180.947 376.364 182.595 377.352C184.242 378.341 185.543 379.699 186.498 381.426C187.453 383.142 187.924 385.119 187.913 387.358C187.924 389.71 187.379 391.801 186.276 393.631C185.185 395.449 183.657 396.881 181.691 397.926C179.737 398.96 177.464 399.477 174.873 399.477Z" fill="white"/>
<path d="M104.511 438H103.034L107.307 426.364H108.761L113.034 438H111.557L108.08 428.205H107.989L104.511 438ZM105.057 433.455H111.011V434.705H105.057V433.455ZM115.548 438L112.889 429.273H114.298L116.185 435.955H116.276L118.139 429.273H119.571L121.412 435.932H121.503L123.389 429.273H124.798L122.139 438H120.821L118.912 431.295H118.776L116.866 438H115.548ZM129.139 438.205C128.586 438.205 128.084 438.1 127.634 437.892C127.183 437.68 126.825 437.375 126.56 436.977C126.295 436.576 126.162 436.091 126.162 435.523C126.162 435.023 126.26 434.617 126.457 434.307C126.654 433.992 126.918 433.746 127.247 433.568C127.577 433.39 127.94 433.258 128.338 433.17C128.74 433.08 129.143 433.008 129.548 432.955C130.079 432.886 130.509 432.835 130.838 432.801C131.171 432.763 131.414 432.701 131.565 432.614C131.721 432.527 131.798 432.375 131.798 432.159V432.114C131.798 431.553 131.645 431.117 131.338 430.807C131.035 430.496 130.575 430.341 129.957 430.341C129.317 430.341 128.815 430.481 128.452 430.761C128.088 431.042 127.832 431.341 127.685 431.659L126.412 431.205C126.639 430.674 126.942 430.261 127.321 429.966C127.704 429.667 128.12 429.458 128.571 429.341C129.026 429.22 129.473 429.159 129.912 429.159C130.192 429.159 130.514 429.193 130.878 429.261C131.245 429.326 131.599 429.46 131.94 429.665C132.285 429.869 132.571 430.178 132.798 430.591C133.026 431.004 133.139 431.557 133.139 432.25V438H131.798V436.818H131.73C131.639 437.008 131.488 437.21 131.276 437.426C131.063 437.642 130.781 437.826 130.429 437.977C130.077 438.129 129.647 438.205 129.139 438.205ZM129.344 437C129.874 437 130.321 436.896 130.685 436.688C131.052 436.479 131.329 436.21 131.514 435.881C131.704 435.551 131.798 435.205 131.798 434.841V433.614C131.741 433.682 131.616 433.744 131.423 433.801C131.234 433.854 131.014 433.902 130.764 433.943C130.518 433.981 130.277 434.015 130.043 434.045C129.812 434.072 129.624 434.095 129.48 434.114C129.132 434.159 128.806 434.233 128.503 434.335C128.204 434.434 127.961 434.583 127.776 434.784C127.594 434.981 127.503 435.25 127.503 435.591C127.503 436.057 127.675 436.409 128.02 436.648C128.368 436.883 128.81 437 129.344 437ZM135.587 438V429.273H136.882V430.591H136.973C137.132 430.159 137.42 429.809 137.837 429.54C138.253 429.271 138.723 429.136 139.246 429.136C139.344 429.136 139.467 429.138 139.615 429.142C139.763 429.146 139.875 429.152 139.95 429.159V430.523C139.905 430.511 139.801 430.494 139.638 430.472C139.479 430.445 139.31 430.432 139.132 430.432C138.708 430.432 138.329 430.521 137.996 430.699C137.666 430.873 137.405 431.116 137.212 431.426C137.022 431.733 136.928 432.083 136.928 432.477V438H135.587ZM144.57 438.182C143.842 438.182 143.2 437.998 142.643 437.631C142.087 437.259 141.651 436.737 141.337 436.062C141.022 435.384 140.865 434.583 140.865 433.659C140.865 432.742 141.022 431.947 141.337 431.273C141.651 430.598 142.089 430.078 142.649 429.71C143.21 429.343 143.857 429.159 144.592 429.159C145.161 429.159 145.609 429.254 145.939 429.443C146.272 429.629 146.526 429.841 146.7 430.08C146.878 430.314 147.017 430.508 147.115 430.659H147.229V426.364H148.57V438H147.274V436.659H147.115C147.017 436.818 146.876 437.019 146.695 437.261C146.513 437.5 146.253 437.714 145.916 437.903C145.579 438.089 145.13 438.182 144.57 438.182ZM144.751 436.977C145.289 436.977 145.744 436.837 146.115 436.557C146.486 436.273 146.768 435.881 146.962 435.381C147.155 434.877 147.251 434.295 147.251 433.636C147.251 432.985 147.157 432.415 146.967 431.926C146.778 431.434 146.498 431.051 146.126 430.778C145.755 430.502 145.297 430.364 144.751 430.364C144.183 430.364 143.71 430.509 143.331 430.801C142.956 431.089 142.674 431.481 142.484 431.977C142.299 432.47 142.206 433.023 142.206 433.636C142.206 434.258 142.301 434.822 142.49 435.33C142.683 435.833 142.967 436.235 143.342 436.534C143.721 436.83 144.191 436.977 144.751 436.977ZM156.371 438H154.893L159.166 426.364H160.621L164.893 438H163.416L159.939 428.205H159.848L156.371 438ZM156.916 433.455H162.871V434.705H156.916V433.455ZM170.07 438.182C169.251 438.182 168.547 437.989 167.956 437.602C167.365 437.216 166.911 436.684 166.592 436.006C166.274 435.328 166.115 434.553 166.115 433.682C166.115 432.795 166.278 432.013 166.604 431.335C166.933 430.653 167.392 430.121 167.979 429.739C168.57 429.352 169.259 429.159 170.047 429.159C170.661 429.159 171.214 429.273 171.706 429.5C172.198 429.727 172.602 430.045 172.916 430.455C173.231 430.864 173.426 431.341 173.501 431.886H172.161C172.058 431.489 171.831 431.136 171.479 430.83C171.13 430.519 170.661 430.364 170.07 430.364C169.547 430.364 169.089 430.5 168.695 430.773C168.304 431.042 168 431.422 167.78 431.915C167.564 432.403 167.456 432.977 167.456 433.636C167.456 434.311 167.562 434.898 167.774 435.398C167.99 435.898 168.293 436.286 168.683 436.562C169.077 436.839 169.539 436.977 170.07 436.977C170.418 436.977 170.734 436.917 171.018 436.795C171.303 436.674 171.543 436.5 171.74 436.273C171.937 436.045 172.077 435.773 172.161 435.455H173.501C173.426 435.97 173.238 436.434 172.939 436.847C172.643 437.256 172.251 437.581 171.763 437.824C171.278 438.062 170.714 438.182 170.07 438.182ZM176.803 432.75V438H175.462V426.364H176.803V430.636H176.916C177.121 430.186 177.428 429.828 177.837 429.562C178.25 429.294 178.799 429.159 179.484 429.159C180.079 429.159 180.6 429.278 181.047 429.517C181.494 429.752 181.84 430.114 182.087 430.602C182.337 431.087 182.462 431.705 182.462 432.455V438H181.121V432.545C181.121 431.852 180.941 431.316 180.581 430.938C180.225 430.555 179.731 430.364 179.098 430.364C178.659 430.364 178.265 430.456 177.916 430.642C177.571 430.828 177.299 431.098 177.098 431.455C176.901 431.811 176.803 432.242 176.803 432.75ZM184.915 438V429.273H186.256V438H184.915ZM185.597 427.818C185.335 427.818 185.11 427.729 184.92 427.551C184.735 427.373 184.642 427.159 184.642 426.909C184.642 426.659 184.735 426.445 184.92 426.267C185.11 426.089 185.335 426 185.597 426C185.858 426 186.081 426.089 186.267 426.267C186.456 426.445 186.551 426.659 186.551 426.909C186.551 427.159 186.456 427.373 186.267 427.551C186.081 427.729 185.858 427.818 185.597 427.818ZM192.371 438.182C191.53 438.182 190.804 437.996 190.195 437.625C189.589 437.25 189.121 436.727 188.791 436.057C188.465 435.383 188.303 434.598 188.303 433.705C188.303 432.811 188.465 432.023 188.791 431.341C189.121 430.655 189.579 430.121 190.166 429.739C190.757 429.352 191.446 429.159 192.234 429.159C192.689 429.159 193.138 429.235 193.581 429.386C194.024 429.538 194.428 429.784 194.791 430.125C195.155 430.462 195.445 430.909 195.661 431.466C195.876 432.023 195.984 432.708 195.984 433.523V434.091H189.257V432.932H194.621C194.621 432.439 194.522 432 194.325 431.614C194.132 431.227 193.856 430.922 193.496 430.699C193.14 430.475 192.719 430.364 192.234 430.364C191.7 430.364 191.238 430.496 190.848 430.761C190.462 431.023 190.164 431.364 189.956 431.784C189.748 432.205 189.643 432.655 189.643 433.136V433.909C189.643 434.568 189.757 435.127 189.984 435.585C190.215 436.04 190.536 436.386 190.945 436.625C191.354 436.86 191.829 436.977 192.371 436.977C192.723 436.977 193.041 436.928 193.325 436.83C193.613 436.727 193.861 436.576 194.07 436.375C194.278 436.17 194.439 435.917 194.553 435.614L195.848 435.977C195.712 436.417 195.482 436.803 195.161 437.136C194.839 437.466 194.441 437.723 193.967 437.909C193.494 438.091 192.962 438.182 192.371 438.182ZM204.895 429.273L201.668 438H200.304L197.077 429.273H198.531L200.94 436.227H201.031L203.44 429.273H204.895ZM210.011 438.182C209.17 438.182 208.445 437.996 207.835 437.625C207.229 437.25 206.761 436.727 206.432 436.057C206.106 435.383 205.943 434.598 205.943 433.705C205.943 432.811 206.106 432.023 206.432 431.341C206.761 430.655 207.22 430.121 207.807 429.739C208.398 429.352 209.087 429.159 209.875 429.159C210.33 429.159 210.778 429.235 211.222 429.386C211.665 429.538 212.068 429.784 212.432 430.125C212.795 430.462 213.085 430.909 213.301 431.466C213.517 432.023 213.625 432.708 213.625 433.523V434.091H206.898V432.932H212.261C212.261 432.439 212.163 432 211.966 431.614C211.773 431.227 211.496 430.922 211.136 430.699C210.78 430.475 210.36 430.364 209.875 430.364C209.341 430.364 208.879 430.496 208.489 430.761C208.102 431.023 207.805 431.364 207.597 431.784C207.388 432.205 207.284 432.655 207.284 433.136V433.909C207.284 434.568 207.398 435.127 207.625 435.585C207.856 436.04 208.176 436.386 208.585 436.625C208.994 436.86 209.47 436.977 210.011 436.977C210.364 436.977 210.682 436.928 210.966 436.83C211.254 436.727 211.502 436.576 211.71 436.375C211.919 436.17 212.08 435.917 212.193 435.614L213.489 435.977C213.352 436.417 213.123 436.803 212.801 437.136C212.479 437.466 212.081 437.723 211.608 437.909C211.134 438.091 210.602 438.182 210.011 438.182ZM218.96 438.182C218.233 438.182 217.591 437.998 217.034 437.631C216.477 437.259 216.042 436.737 215.727 436.062C215.413 435.384 215.256 434.583 215.256 433.659C215.256 432.742 215.413 431.947 215.727 431.273C216.042 430.598 216.479 430.078 217.04 429.71C217.6 429.343 218.248 429.159 218.983 429.159C219.551 429.159 220 429.254 220.33 429.443C220.663 429.629 220.917 429.841 221.091 430.08C221.269 430.314 221.407 430.508 221.506 430.659H221.619V426.364H222.96V438H221.665V436.659H221.506C221.407 436.818 221.267 437.019 221.085 437.261C220.903 437.5 220.644 437.714 220.307 437.903C219.97 438.089 219.521 438.182 218.96 438.182ZM219.142 436.977C219.68 436.977 220.134 436.837 220.506 436.557C220.877 436.273 221.159 435.881 221.352 435.381C221.545 434.877 221.642 434.295 221.642 433.636C221.642 432.985 221.547 432.415 221.358 431.926C221.169 431.434 220.888 431.051 220.517 430.778C220.146 430.502 219.688 430.364 219.142 430.364C218.574 430.364 218.1 430.509 217.722 430.801C217.347 431.089 217.064 431.481 216.875 431.977C216.689 432.47 216.597 433.023 216.597 433.636C216.597 434.258 216.691 434.822 216.881 435.33C217.074 435.833 217.358 436.235 217.733 436.534C218.112 436.83 218.581 436.977 219.142 436.977Z" fill="#F3F3F3"/>
<defs>
<linearGradient id="paint0_linear_167_879" x1="327" y1="468" x2="-50.4785" y2="422.948" gradientUnits="userSpaceOnUse">
<stop stop-color="#00796D"/>
<stop offset="1" stop-color="#38C682"/>
</linearGradient>
</defs>
</svg>
