<svg width="1280" height="334" viewBox="0 0 1280 334" fill="none" xmlns="http://www.w3.org/2000/svg">
<mask id="mask0_150_920" style="mask-type:alpha" maskUnits="userSpaceOnUse" x="0" y="0" width="1280" height="334">
<path fill-rule="evenodd" clip-rule="evenodd" d="M1055 18.3353C1055 8.20899 1046.79 0 1036.66 0H243.335C233.209 0 225 8.20899 225 18.3353C225 28.4616 216.791 36.6706 206.665 36.6706H20C8.95431 36.6706 0 45.6249 0 56.6706V314C0 325.046 8.95431 334 20 334H1260C1271.05 334 1280 325.046 1280 314V56.6706C1280 45.6249 1271.05 36.6706 1260 36.6706H1073.34C1063.21 36.6706 1055 28.4616 1055 18.3353Z" fill="url(#paint0_linear_150_920)"/>
</mask>
<g mask="url(#mask0_150_920)">
<g filter="url(#filter0_b_150_920)">
<path fill-rule="evenodd" clip-rule="evenodd" d="M1055 18.3353C1055 8.20899 1046.79 0 1036.66 0H243.335C233.209 0 225 8.20899 225 18.3353C225 28.4616 216.791 36.6706 206.665 36.6706H20C8.95431 36.6706 0 45.6249 0 56.6706V314C0 325.046 8.95431 334 20 334H1260C1271.05 334 1280 325.046 1280 314V56.6706C1280 45.6249 1271.05 36.6706 1260 36.6706H1073.34C1063.21 36.6706 1055 28.4616 1055 18.3353Z" fill="url(#paint1_linear_150_920)" fill-opacity="0.8"/>
</g>
<path opacity="0.1" d="M1365 274C1365 353.529 1300.53 418 1221 418C1141.47 418 1077 353.529 1077 274C1077 194.471 1141.47 130 1221 130C1300.53 130 1365 194.471 1365 274ZM1144.47 274C1144.47 316.265 1178.74 350.527 1221 350.527C1263.26 350.527 1297.53 316.265 1297.53 274C1297.53 231.735 1263.26 197.473 1221 197.473C1178.74 197.473 1144.47 231.735 1144.47 274Z" fill="white"/>
<path opacity="0.2" d="M274 50C274 -50.5158 192.516 -132 92 -132C-8.51582 -132 -90 -50.5158 -90 50C-90 150.516 -8.51582 232 92 232C192.516 232 274 150.516 274 50ZM-4.72192 50C-4.72192 -3.41805 38.582 -46.7219 92 -46.7219C145.418 -46.7219 188.722 -3.41805 188.722 50C188.722 103.418 145.418 146.722 92 146.722C38.582 146.722 -4.72192 103.418 -4.72192 50Z" fill="url(#paint2_linear_150_920)"/>
<rect x="151" y="117" width="108" height="108" rx="54" fill="url(#paint3_linear_150_920)"/>
<rect x="162" y="128" width="86" height="86" rx="43" fill="white"/>
<rect x="162" y="128" width="86" height="86" rx="43" stroke="url(#paint4_linear_150_920)" stroke-width="2"/>
<path d="M214.078 149.333H195.922C188.035 149.333 183.333 154.035 183.333 161.922V180.057C183.333 187.965 188.035 192.667 195.922 192.667H214.057C221.943 192.667 226.645 187.965 226.645 180.078V161.922C226.667 154.035 221.965 149.333 214.078 149.333ZM203.982 174.315L195.922 182.375H200.667C201.555 182.375 202.292 183.112 202.292 184C202.292 184.888 201.555 185.625 200.667 185.625H192C191.783 185.625 191.567 185.582 191.372 185.495C190.982 185.322 190.657 185.018 190.483 184.607C190.418 184.412 190.375 184.217 190.375 184V175.333C190.375 174.445 191.112 173.708 192 173.708C192.888 173.708 193.625 174.445 193.625 175.333V180.078L201.685 172.018C202.313 171.39 203.353 171.39 203.982 172.018C204.61 172.647 204.61 173.687 203.982 174.315ZM219.625 166.667C219.625 167.555 218.888 168.292 218 168.292C217.112 168.292 216.375 167.555 216.375 166.667V161.922L208.315 169.982C207.99 170.307 207.578 170.458 207.167 170.458C206.755 170.458 206.343 170.307 206.018 169.982C205.39 169.353 205.39 168.313 206.018 167.685L214.078 159.625H209.333C208.445 159.625 207.708 158.888 207.708 158C207.708 157.112 208.445 156.375 209.333 156.375H218C218.217 156.375 218.412 156.418 218.628 156.505C219.019 156.678 219.343 156.982 219.517 157.393C219.582 157.588 219.625 157.783 219.625 158V166.667Z" fill="url(#paint5_linear_150_920)"/>
<path d="M81.2457 260V242.545H92.1889V244.812H83.8793V250.131H91.6179V252.389H83.8793V257.733H92.2912V260H81.2457ZM97.5135 246.909L100.403 252.006L103.317 246.909H106.104L102.022 253.455L106.138 260H103.352L100.403 255.108L97.4624 260H94.6669L98.7408 253.455L94.718 246.909H97.5135ZM108.721 264.909V246.909H111.21V249.031H111.423C111.57 248.759 111.783 248.443 112.062 248.085C112.34 247.727 112.727 247.415 113.221 247.148C113.715 246.875 114.369 246.739 115.181 246.739C116.238 246.739 117.181 247.006 118.011 247.54C118.84 248.074 119.491 248.844 119.962 249.849C120.44 250.855 120.678 252.065 120.678 253.48C120.678 254.895 120.442 256.108 119.971 257.119C119.499 258.125 118.852 258.901 118.028 259.446C117.204 259.986 116.263 260.256 115.207 260.256C114.411 260.256 113.761 260.122 113.255 259.855C112.755 259.588 112.363 259.276 112.079 258.918C111.795 258.56 111.576 258.241 111.423 257.963H111.269V264.909H108.721ZM111.218 253.455C111.218 254.375 111.352 255.182 111.619 255.875C111.886 256.568 112.272 257.111 112.778 257.503C113.283 257.889 113.903 258.082 114.636 258.082C115.397 258.082 116.033 257.881 116.545 257.477C117.056 257.068 117.442 256.514 117.704 255.815C117.971 255.116 118.104 254.33 118.104 253.455C118.104 252.591 117.974 251.815 117.712 251.128C117.457 250.44 117.07 249.898 116.553 249.5C116.042 249.102 115.403 248.903 114.636 248.903C113.897 248.903 113.272 249.094 112.761 249.474C112.255 249.855 111.871 250.386 111.61 251.068C111.349 251.75 111.218 252.545 111.218 253.455ZM127.343 260.29C126.513 260.29 125.763 260.136 125.093 259.83C124.423 259.517 123.891 259.065 123.499 258.474C123.113 257.884 122.92 257.159 122.92 256.301C122.92 255.562 123.062 254.955 123.346 254.477C123.63 254 124.013 253.622 124.496 253.344C124.979 253.065 125.519 252.855 126.116 252.713C126.712 252.571 127.32 252.463 127.94 252.389C128.724 252.298 129.36 252.224 129.849 252.168C130.337 252.105 130.692 252.006 130.914 251.869C131.136 251.733 131.246 251.511 131.246 251.205V251.145C131.246 250.401 131.036 249.824 130.616 249.415C130.201 249.006 129.582 248.801 128.758 248.801C127.9 248.801 127.224 248.991 126.729 249.372C126.241 249.747 125.903 250.165 125.715 250.625L123.32 250.08C123.604 249.284 124.019 248.642 124.565 248.153C125.116 247.659 125.749 247.301 126.465 247.08C127.181 246.852 127.934 246.739 128.724 246.739C129.246 246.739 129.8 246.801 130.386 246.926C130.977 247.045 131.528 247.267 132.039 247.591C132.556 247.915 132.979 248.378 133.309 248.98C133.638 249.577 133.803 250.352 133.803 251.307V260H131.315V258.21H131.212C131.048 258.54 130.8 258.864 130.471 259.182C130.141 259.5 129.718 259.764 129.201 259.974C128.684 260.185 128.065 260.29 127.343 260.29ZM127.897 258.244C128.602 258.244 129.204 258.105 129.704 257.827C130.21 257.548 130.593 257.185 130.854 256.736C131.121 256.281 131.255 255.795 131.255 255.278V253.591C131.164 253.682 130.988 253.767 130.727 253.847C130.471 253.92 130.178 253.986 129.849 254.043C129.519 254.094 129.198 254.142 128.886 254.188C128.573 254.227 128.312 254.261 128.102 254.29C127.607 254.352 127.156 254.457 126.746 254.605C126.343 254.753 126.019 254.966 125.775 255.244C125.536 255.517 125.417 255.881 125.417 256.335C125.417 256.966 125.65 257.443 126.116 257.767C126.582 258.085 127.175 258.244 127.897 258.244ZM139.746 252.227V260H137.197V246.909H139.643V249.04H139.805C140.107 248.347 140.578 247.79 141.22 247.369C141.868 246.949 142.683 246.739 143.666 246.739C144.558 246.739 145.339 246.926 146.01 247.301C146.68 247.67 147.2 248.222 147.57 248.955C147.939 249.687 148.124 250.594 148.124 251.673V260H145.575V251.98C145.575 251.031 145.328 250.29 144.834 249.756C144.339 249.216 143.661 248.946 142.797 248.946C142.206 248.946 141.68 249.074 141.22 249.33C140.766 249.585 140.405 249.96 140.138 250.455C139.876 250.943 139.746 251.534 139.746 252.227ZM156.442 260.256C155.385 260.256 154.442 259.986 153.612 259.446C152.788 258.901 152.141 258.125 151.669 257.119C151.203 256.108 150.97 254.895 150.97 253.48C150.97 252.065 151.206 250.855 151.678 249.849C152.155 248.844 152.808 248.074 153.638 247.54C154.467 247.006 155.408 246.739 156.459 246.739C157.271 246.739 157.925 246.875 158.419 247.148C158.919 247.415 159.305 247.727 159.578 248.085C159.857 248.443 160.072 248.759 160.226 249.031H160.379V242.545H162.928V260H160.439V257.963H160.226C160.072 258.241 159.851 258.56 159.561 258.918C159.277 259.276 158.885 259.588 158.385 259.855C157.885 260.122 157.237 260.256 156.442 260.256ZM157.004 258.082C157.737 258.082 158.357 257.889 158.862 257.503C159.374 257.111 159.76 256.568 160.021 255.875C160.288 255.182 160.422 254.375 160.422 253.455C160.422 252.545 160.291 251.75 160.03 251.068C159.768 250.386 159.385 249.855 158.879 249.474C158.374 249.094 157.749 248.903 157.004 248.903C156.237 248.903 155.598 249.102 155.087 249.5C154.575 249.898 154.189 250.44 153.928 251.128C153.672 251.815 153.544 252.591 153.544 253.455C153.544 254.33 153.675 255.116 153.936 255.815C154.197 256.514 154.584 257.068 155.095 257.477C155.612 257.881 156.249 258.082 157.004 258.082ZM166.565 260V246.909H169.113V260H166.565ZM167.852 244.889C167.408 244.889 167.028 244.741 166.71 244.446C166.397 244.145 166.241 243.787 166.241 243.372C166.241 242.952 166.397 242.594 166.71 242.298C167.028 241.997 167.408 241.847 167.852 241.847C168.295 241.847 168.673 241.997 168.985 242.298C169.303 242.594 169.462 242.952 169.462 243.372C169.462 243.787 169.303 244.145 168.985 244.446C168.673 244.741 168.295 244.889 167.852 244.889ZM175.089 252.227V260H172.541V246.909H174.987V249.04H175.149C175.45 248.347 175.922 247.79 176.564 247.369C177.212 246.949 178.027 246.739 179.01 246.739C179.902 246.739 180.683 246.926 181.354 247.301C182.024 247.67 182.544 248.222 182.913 248.955C183.283 249.687 183.467 250.594 183.467 251.673V260H180.919V251.98C180.919 251.031 180.672 250.29 180.178 249.756C179.683 249.216 179.004 248.946 178.141 248.946C177.55 248.946 177.024 249.074 176.564 249.33C176.109 249.585 175.749 249.96 175.482 250.455C175.22 250.943 175.089 251.534 175.089 252.227ZM192.374 265.182C191.334 265.182 190.439 265.045 189.689 264.773C188.945 264.5 188.337 264.139 187.865 263.69C187.393 263.241 187.041 262.75 186.808 262.216L188.999 261.312C189.152 261.562 189.357 261.827 189.612 262.105C189.874 262.389 190.226 262.631 190.669 262.83C191.118 263.028 191.695 263.128 192.399 263.128C193.365 263.128 194.163 262.892 194.794 262.42C195.425 261.955 195.74 261.21 195.74 260.188V257.614H195.578C195.425 257.892 195.203 258.202 194.913 258.543C194.629 258.884 194.237 259.179 193.737 259.429C193.237 259.679 192.587 259.804 191.786 259.804C190.751 259.804 189.82 259.562 188.99 259.08C188.166 258.591 187.513 257.872 187.03 256.923C186.553 255.969 186.314 254.795 186.314 253.403C186.314 252.011 186.55 250.818 187.021 249.824C187.499 248.83 188.152 248.068 188.982 247.54C189.811 247.006 190.751 246.739 191.803 246.739C192.615 246.739 193.271 246.875 193.771 247.148C194.271 247.415 194.661 247.727 194.939 248.085C195.223 248.443 195.442 248.759 195.595 249.031H195.783V246.909H198.28V260.29C198.28 261.415 198.018 262.338 197.496 263.06C196.973 263.781 196.266 264.315 195.374 264.662C194.487 265.009 193.487 265.182 192.374 265.182ZM192.348 257.69C193.081 257.69 193.7 257.52 194.206 257.179C194.717 256.832 195.104 256.338 195.365 255.696C195.632 255.048 195.766 254.273 195.766 253.369C195.766 252.489 195.635 251.713 195.374 251.043C195.112 250.372 194.729 249.849 194.223 249.474C193.717 249.094 193.092 248.903 192.348 248.903C191.581 248.903 190.942 249.102 190.43 249.5C189.919 249.892 189.533 250.426 189.271 251.102C189.016 251.778 188.888 252.534 188.888 253.369C188.888 254.227 189.018 254.98 189.28 255.628C189.541 256.276 189.928 256.781 190.439 257.145C190.956 257.509 191.592 257.69 192.348 257.69ZM214.16 246.909V248.955H207.009V246.909H214.16ZM208.927 243.773H211.475V256.156C211.475 256.651 211.549 257.023 211.697 257.273C211.844 257.517 212.035 257.685 212.268 257.776C212.506 257.861 212.765 257.903 213.043 257.903C213.248 257.903 213.427 257.889 213.58 257.861C213.734 257.832 213.853 257.81 213.938 257.793L214.398 259.898C214.251 259.955 214.04 260.011 213.768 260.068C213.495 260.131 213.154 260.165 212.745 260.17C212.075 260.182 211.45 260.062 210.87 259.812C210.29 259.562 209.822 259.176 209.464 258.653C209.106 258.131 208.927 257.474 208.927 256.685V243.773ZM219.808 252.227V260H217.26V242.545H219.774V249.04H219.936C220.243 248.335 220.712 247.776 221.342 247.361C221.973 246.946 222.797 246.739 223.814 246.739C224.712 246.739 225.496 246.923 226.166 247.293C226.842 247.662 227.365 248.213 227.734 248.946C228.109 249.673 228.297 250.582 228.297 251.673V260H225.749V251.98C225.749 251.02 225.501 250.276 225.007 249.747C224.513 249.213 223.825 248.946 222.945 248.946C222.342 248.946 221.803 249.074 221.325 249.33C220.854 249.585 220.482 249.96 220.209 250.455C219.942 250.943 219.808 251.534 219.808 252.227ZM237.339 260.264C236.05 260.264 234.939 259.989 234.007 259.438C233.081 258.881 232.365 258.099 231.859 257.094C231.359 256.082 231.109 254.898 231.109 253.54C231.109 252.199 231.359 251.017 231.859 249.994C232.365 248.972 233.07 248.173 233.973 247.599C234.882 247.026 235.945 246.739 237.161 246.739C237.899 246.739 238.615 246.861 239.308 247.105C240.001 247.349 240.624 247.733 241.175 248.256C241.726 248.778 242.161 249.457 242.479 250.293C242.797 251.122 242.956 252.131 242.956 253.318V254.222H232.55V252.312H240.459C240.459 251.642 240.322 251.048 240.05 250.531C239.777 250.009 239.393 249.597 238.899 249.295C238.411 248.994 237.837 248.844 237.178 248.844C236.462 248.844 235.837 249.02 235.303 249.372C234.774 249.719 234.365 250.173 234.075 250.736C233.791 251.293 233.649 251.898 233.649 252.551V254.043C233.649 254.918 233.803 255.662 234.109 256.276C234.422 256.889 234.857 257.358 235.413 257.682C235.97 258 236.621 258.159 237.365 258.159C237.848 258.159 238.288 258.091 238.686 257.955C239.084 257.812 239.428 257.602 239.717 257.324C240.007 257.045 240.229 256.702 240.382 256.293L242.794 256.727C242.601 257.437 242.254 258.06 241.754 258.594C241.26 259.122 240.638 259.534 239.888 259.83C239.143 260.119 238.294 260.264 237.339 260.264ZM252.339 242.545H255.536L261.092 256.114H261.297L266.854 242.545H270.05V260H267.544V247.369H267.382L262.234 259.974H260.155L255.007 247.361H254.845V260H252.339V242.545ZM277.484 260.29C276.654 260.29 275.904 260.136 275.234 259.83C274.563 259.517 274.032 259.065 273.64 258.474C273.254 257.884 273.06 257.159 273.06 256.301C273.06 255.562 273.202 254.955 273.487 254.477C273.771 254 274.154 253.622 274.637 253.344C275.12 253.065 275.66 252.855 276.256 252.713C276.853 252.571 277.461 252.463 278.08 252.389C278.864 252.298 279.501 252.224 279.989 252.168C280.478 252.105 280.833 252.006 281.055 251.869C281.276 251.733 281.387 251.511 281.387 251.205V251.145C281.387 250.401 281.177 249.824 280.756 249.415C280.342 249.006 279.722 248.801 278.898 248.801C278.04 248.801 277.364 248.991 276.87 249.372C276.381 249.747 276.043 250.165 275.856 250.625L273.461 250.08C273.745 249.284 274.16 248.642 274.705 248.153C275.256 247.659 275.89 247.301 276.606 247.08C277.322 246.852 278.075 246.739 278.864 246.739C279.387 246.739 279.941 246.801 280.526 246.926C281.117 247.045 281.668 247.267 282.18 247.591C282.697 247.915 283.12 248.378 283.45 248.98C283.779 249.577 283.944 250.352 283.944 251.307V260H281.455V258.21H281.353C281.188 258.54 280.941 258.864 280.612 259.182C280.282 259.5 279.859 259.764 279.342 259.974C278.825 260.185 278.205 260.29 277.484 260.29ZM278.038 258.244C278.742 258.244 279.344 258.105 279.844 257.827C280.35 257.548 280.734 257.185 280.995 256.736C281.262 256.281 281.396 255.795 281.396 255.278V253.591C281.305 253.682 281.129 253.767 280.867 253.847C280.612 253.92 280.319 253.986 279.989 254.043C279.66 254.094 279.339 254.142 279.026 254.188C278.714 254.227 278.452 254.261 278.242 254.29C277.748 254.352 277.296 254.457 276.887 254.605C276.484 254.753 276.16 254.966 275.915 255.244C275.677 255.517 275.558 255.881 275.558 256.335C275.558 256.966 275.79 257.443 276.256 257.767C276.722 258.085 277.316 258.244 278.038 258.244ZM287.338 260V246.909H289.801V248.989H289.938C290.176 248.284 290.597 247.73 291.199 247.327C291.807 246.918 292.494 246.713 293.261 246.713C293.42 246.713 293.608 246.719 293.824 246.73C294.045 246.741 294.219 246.756 294.344 246.773V249.21C294.241 249.182 294.06 249.151 293.798 249.116C293.537 249.077 293.276 249.057 293.014 249.057C292.412 249.057 291.875 249.185 291.403 249.44C290.938 249.69 290.568 250.04 290.295 250.489C290.023 250.932 289.886 251.437 289.886 252.006V260H287.338ZM298.893 255.56L298.876 252.449H299.319L304.535 246.909H307.586L301.637 253.216H301.237L298.893 255.56ZM296.549 260V242.545H299.097V260H296.549ZM304.816 260L300.129 253.778L301.884 251.997L307.944 260H304.816ZM315.011 260.264C313.722 260.264 312.611 259.989 311.679 259.438C310.753 258.881 310.037 258.099 309.531 257.094C309.031 256.082 308.781 254.898 308.781 253.54C308.781 252.199 309.031 251.017 309.531 249.994C310.037 248.972 310.741 248.173 311.645 247.599C312.554 247.026 313.616 246.739 314.832 246.739C315.571 246.739 316.287 246.861 316.98 247.105C317.673 247.349 318.295 247.733 318.847 248.256C319.398 248.778 319.832 249.457 320.151 250.293C320.469 251.122 320.628 252.131 320.628 253.318V254.222H310.222V252.312H318.131C318.131 251.642 317.994 251.048 317.722 250.531C317.449 250.009 317.065 249.597 316.571 249.295C316.082 248.994 315.509 248.844 314.849 248.844C314.134 248.844 313.509 249.02 312.974 249.372C312.446 249.719 312.037 250.173 311.747 250.736C311.463 251.293 311.321 251.898 311.321 252.551V254.043C311.321 254.918 311.474 255.662 311.781 256.276C312.094 256.889 312.528 257.358 313.085 257.682C313.642 258 314.293 258.159 315.037 258.159C315.52 258.159 315.96 258.091 316.358 257.955C316.756 257.812 317.099 257.602 317.389 257.324C317.679 257.045 317.901 256.702 318.054 256.293L320.466 256.727C320.273 257.437 319.926 258.06 319.426 258.594C318.932 259.122 318.31 259.534 317.56 259.83C316.815 260.119 315.966 260.264 315.011 260.264ZM329.566 246.909V248.955H322.415V246.909H329.566ZM324.333 243.773H326.881V256.156C326.881 256.651 326.955 257.023 327.103 257.273C327.251 257.517 327.441 257.685 327.674 257.776C327.913 257.861 328.171 257.903 328.45 257.903C328.654 257.903 328.833 257.889 328.987 257.861C329.14 257.832 329.259 257.81 329.344 257.793L329.805 259.898C329.657 259.955 329.447 260.011 329.174 260.068C328.901 260.131 328.56 260.165 328.151 260.17C327.481 260.182 326.856 260.062 326.276 259.812C325.697 259.562 325.228 259.176 324.87 258.653C324.512 258.131 324.333 257.474 324.333 256.685V243.773Z" fill="white"/>
<rect x="441" y="117" width="108" height="108" rx="54" fill="url(#paint6_linear_150_920)"/>
<rect x="452" y="128" width="86" height="86" rx="43" fill="white"/>
<rect x="452" y="128" width="86" height="86" rx="43" stroke="url(#paint7_linear_150_920)" stroke-width="2"/>
<path d="M494.87 149.788L489.649 161.943H484.427C483.56 161.943 482.715 162.008 481.892 162.182L484.059 156.982L484.145 156.787L484.275 156.44C484.34 156.288 484.384 156.158 484.449 156.05C486.962 150.222 489.779 148.402 494.87 149.788Z" fill="url(#paint8_linear_150_920)"/>
<path d="M509.582 162.528L509.539 162.507C508.239 162.138 506.917 161.943 505.574 161.943H492.01L496.885 150.612L496.95 150.46C497.254 150.568 497.579 150.72 497.904 150.828L502.692 152.843C505.357 153.948 507.22 155.097 508.369 156.483C508.564 156.743 508.737 156.982 508.91 157.263C509.105 157.567 509.257 157.87 509.344 158.195C509.43 158.39 509.495 158.563 509.539 158.758C509.864 159.863 509.885 161.12 509.582 162.528Z" fill="url(#paint9_linear_150_920)"/>
<path d="M496.127 183.263H496.669C497.319 183.263 497.86 182.678 497.86 181.963C497.86 181.053 497.6 180.923 497.037 180.707L496.127 180.382V183.263Z" fill="url(#paint10_linear_150_920)"/>
<path d="M508.629 165.627C507.654 165.345 506.635 165.193 505.574 165.193H484.427C482.954 165.193 481.567 165.475 480.267 166.038C476.497 167.663 473.854 171.412 473.854 175.767V179.992C473.854 180.512 473.897 181.01 473.962 181.53C474.439 188.42 478.122 192.103 485.012 192.558C485.51 192.623 486.009 192.667 486.55 192.667H503.45C511.467 192.667 515.692 188.853 516.104 181.27C516.125 180.858 516.147 180.425 516.147 179.992V175.767C516.147 170.978 512.962 166.948 508.629 165.627ZM497.774 178.583C498.77 178.93 500.114 179.667 500.114 181.963C500.114 183.935 498.575 185.517 496.669 185.517H496.127V185.993C496.127 186.622 495.629 187.12 495 187.12C494.372 187.12 493.874 186.622 493.874 185.993V185.517H493.679C491.599 185.517 489.887 183.762 489.887 181.595C489.887 180.967 490.385 180.468 491.014 180.468C491.642 180.468 492.14 180.967 492.14 181.595C492.14 182.505 492.834 183.263 493.679 183.263H493.874V179.602L492.227 179.017C491.23 178.67 489.887 177.933 489.887 175.637C489.887 173.665 491.425 172.083 493.332 172.083H493.874V171.607C493.874 170.978 494.372 170.48 495 170.48C495.629 170.48 496.127 170.978 496.127 171.607V172.083H496.322C498.402 172.083 500.114 173.838 500.114 176.005C500.114 176.633 499.615 177.132 498.987 177.132C498.359 177.132 497.86 176.633 497.86 176.005C497.86 175.095 497.167 174.337 496.322 174.337H496.127V177.998L497.774 178.583Z" fill="url(#paint11_linear_150_920)"/>
<path d="M492.14 175.637C492.14 176.547 492.4 176.677 492.964 176.893L493.874 177.218V174.337H493.332C492.66 174.337 492.14 174.922 492.14 175.637Z" fill="url(#paint12_linear_150_920)"/>
<path d="M428.376 248.222H425.717C425.614 247.653 425.424 247.153 425.146 246.722C424.867 246.29 424.526 245.923 424.123 245.622C423.719 245.321 423.268 245.094 422.768 244.94C422.273 244.787 421.748 244.71 421.191 244.71C420.185 244.71 419.285 244.963 418.489 245.469C417.7 245.974 417.075 246.716 416.614 247.693C416.16 248.67 415.933 249.864 415.933 251.273C415.933 252.693 416.16 253.892 416.614 254.869C417.075 255.847 417.702 256.585 418.498 257.085C419.293 257.585 420.188 257.835 421.183 257.835C421.734 257.835 422.256 257.761 422.751 257.614C423.251 257.46 423.702 257.236 424.106 256.94C424.509 256.645 424.85 256.284 425.129 255.858C425.413 255.426 425.609 254.932 425.717 254.375L428.376 254.384C428.234 255.241 427.958 256.031 427.549 256.753C427.146 257.469 426.626 258.088 425.989 258.611C425.359 259.128 424.637 259.528 423.825 259.812C423.012 260.097 422.126 260.239 421.165 260.239C419.654 260.239 418.308 259.881 417.126 259.165C415.944 258.443 415.012 257.412 414.33 256.071C413.654 254.73 413.316 253.131 413.316 251.273C413.316 249.409 413.657 247.81 414.339 246.474C415.021 245.134 415.952 244.105 417.134 243.389C418.316 242.668 419.66 242.307 421.165 242.307C422.092 242.307 422.955 242.44 423.756 242.707C424.563 242.969 425.288 243.355 425.93 243.866C426.572 244.372 427.103 244.991 427.523 245.724C427.944 246.452 428.228 247.284 428.376 248.222ZM436.837 260.264C435.609 260.264 434.538 259.983 433.624 259.42C432.709 258.858 431.999 258.071 431.493 257.06C430.987 256.048 430.734 254.866 430.734 253.514C430.734 252.156 430.987 250.969 431.493 249.952C431.999 248.935 432.709 248.145 433.624 247.582C434.538 247.02 435.609 246.739 436.837 246.739C438.064 246.739 439.135 247.02 440.05 247.582C440.964 248.145 441.675 248.935 442.18 249.952C442.686 250.969 442.939 252.156 442.939 253.514C442.939 254.866 442.686 256.048 442.18 257.06C441.675 258.071 440.964 258.858 440.05 259.42C439.135 259.983 438.064 260.264 436.837 260.264ZM436.845 258.125C437.641 258.125 438.3 257.915 438.822 257.494C439.345 257.074 439.732 256.514 439.982 255.815C440.237 255.116 440.365 254.347 440.365 253.506C440.365 252.67 440.237 251.903 439.982 251.205C439.732 250.5 439.345 249.935 438.822 249.509C438.3 249.082 437.641 248.869 436.845 248.869C436.044 248.869 435.379 249.082 434.851 249.509C434.328 249.935 433.939 250.5 433.683 251.205C433.433 251.903 433.308 252.67 433.308 253.506C433.308 254.347 433.433 255.116 433.683 255.815C433.939 256.514 434.328 257.074 434.851 257.494C435.379 257.915 436.044 258.125 436.845 258.125ZM455.593 250.105L453.283 250.514C453.187 250.219 453.033 249.937 452.823 249.67C452.619 249.403 452.34 249.185 451.988 249.014C451.636 248.844 451.195 248.759 450.667 248.759C449.945 248.759 449.343 248.92 448.86 249.244C448.377 249.562 448.136 249.974 448.136 250.48C448.136 250.918 448.298 251.27 448.621 251.537C448.945 251.804 449.468 252.023 450.19 252.193L452.269 252.67C453.474 252.949 454.371 253.378 454.962 253.957C455.553 254.537 455.849 255.29 455.849 256.216C455.849 257 455.621 257.699 455.167 258.312C454.718 258.92 454.09 259.398 453.283 259.744C452.482 260.091 451.553 260.264 450.496 260.264C449.031 260.264 447.835 259.952 446.908 259.327C445.982 258.696 445.414 257.801 445.204 256.642L447.667 256.267C447.82 256.909 448.136 257.395 448.613 257.724C449.09 258.048 449.712 258.21 450.479 258.21C451.315 258.21 451.982 258.037 452.482 257.69C452.982 257.338 453.232 256.909 453.232 256.403C453.232 255.994 453.079 255.651 452.772 255.372C452.471 255.094 452.008 254.884 451.383 254.741L449.167 254.256C447.945 253.977 447.042 253.534 446.457 252.926C445.877 252.318 445.587 251.548 445.587 250.616C445.587 249.844 445.803 249.168 446.235 248.588C446.667 248.009 447.263 247.557 448.025 247.233C448.786 246.903 449.658 246.739 450.641 246.739C452.056 246.739 453.17 247.045 453.982 247.659C454.795 248.267 455.332 249.082 455.593 250.105ZM464.761 246.909V248.955H457.611V246.909H464.761ZM459.528 243.773H462.077V256.156C462.077 256.651 462.151 257.023 462.298 257.273C462.446 257.517 462.636 257.685 462.869 257.776C463.108 257.861 463.366 257.903 463.645 257.903C463.849 257.903 464.028 257.889 464.182 257.861C464.335 257.832 464.455 257.81 464.54 257.793L465 259.898C464.852 259.955 464.642 260.011 464.369 260.068C464.097 260.131 463.756 260.165 463.347 260.17C462.676 260.182 462.051 260.062 461.472 259.812C460.892 259.562 460.423 259.176 460.065 258.653C459.707 258.131 459.528 257.474 459.528 256.685V243.773ZM474.848 251.52V253.727H467.109V251.52H474.848ZM478.449 260V242.545H489.392V244.812H481.082V250.131H488.821V252.389H481.082V257.733H489.494V260H478.449ZM498.935 246.909V248.955H491.538V246.909H498.935ZM493.566 260V245.392C493.566 244.574 493.745 243.895 494.103 243.355C494.461 242.81 494.935 242.403 495.526 242.136C496.117 241.864 496.759 241.727 497.452 241.727C497.964 241.727 498.401 241.77 498.765 241.855C499.129 241.935 499.398 242.009 499.575 242.077L498.978 244.139C498.859 244.105 498.705 244.065 498.518 244.02C498.33 243.969 498.103 243.943 497.836 243.943C497.217 243.943 496.773 244.097 496.506 244.403C496.245 244.71 496.114 245.153 496.114 245.733V260H493.566ZM507.795 246.909V248.955H500.397V246.909H507.795ZM502.425 260V245.392C502.425 244.574 502.604 243.895 502.962 243.355C503.32 242.81 503.795 242.403 504.386 242.136C504.977 241.864 505.619 241.727 506.312 241.727C506.823 241.727 507.261 241.77 507.624 241.855C507.988 241.935 508.258 242.009 508.434 242.077L507.837 244.139C507.718 244.105 507.565 244.065 507.377 244.02C507.19 243.969 506.962 243.943 506.695 243.943C506.076 243.943 505.633 244.097 505.366 244.403C505.104 244.71 504.974 245.153 504.974 245.733V260H502.425ZM515.55 260.264C514.261 260.264 513.15 259.989 512.218 259.438C511.292 258.881 510.576 258.099 510.07 257.094C509.57 256.082 509.32 254.898 509.32 253.54C509.32 252.199 509.57 251.017 510.07 249.994C510.576 248.972 511.281 248.173 512.184 247.599C513.093 247.026 514.156 246.739 515.371 246.739C516.11 246.739 516.826 246.861 517.519 247.105C518.212 247.349 518.835 247.733 519.386 248.256C519.937 248.778 520.371 249.457 520.69 250.293C521.008 251.122 521.167 252.131 521.167 253.318V254.222H510.761V252.312H518.67C518.67 251.642 518.533 251.048 518.261 250.531C517.988 250.009 517.604 249.597 517.11 249.295C516.621 248.994 516.048 248.844 515.388 248.844C514.673 248.844 514.048 249.02 513.513 249.372C512.985 249.719 512.576 250.173 512.286 250.736C512.002 251.293 511.86 251.898 511.86 252.551V254.043C511.86 254.918 512.013 255.662 512.32 256.276C512.633 256.889 513.067 257.358 513.624 257.682C514.181 258 514.832 258.159 515.576 258.159C516.059 258.159 516.499 258.091 516.897 257.955C517.295 257.812 517.638 257.602 517.928 257.324C518.218 257.045 518.44 256.702 518.593 256.293L521.005 256.727C520.812 257.437 520.465 258.06 519.965 258.594C519.471 259.122 518.849 259.534 518.099 259.83C517.354 260.119 516.505 260.264 515.55 260.264ZM529.509 260.264C528.241 260.264 527.151 259.977 526.236 259.403C525.327 258.824 524.628 258.026 524.139 257.009C523.651 255.991 523.406 254.827 523.406 253.514C523.406 252.185 523.656 251.011 524.156 249.994C524.656 248.972 525.361 248.173 526.27 247.599C527.179 247.026 528.25 246.739 529.483 246.739C530.477 246.739 531.364 246.923 532.142 247.293C532.92 247.656 533.548 248.168 534.026 248.827C534.509 249.486 534.795 250.256 534.886 251.136H532.406C532.27 250.523 531.957 249.994 531.469 249.551C530.986 249.108 530.338 248.886 529.526 248.886C528.815 248.886 528.193 249.074 527.659 249.449C527.131 249.818 526.719 250.347 526.423 251.034C526.128 251.716 525.98 252.523 525.98 253.455C525.98 254.409 526.125 255.233 526.415 255.926C526.705 256.619 527.114 257.156 527.642 257.537C528.176 257.918 528.804 258.108 529.526 258.108C530.009 258.108 530.446 258.02 530.838 257.844C531.236 257.662 531.568 257.403 531.835 257.068C532.108 256.733 532.298 256.33 532.406 255.858H534.886C534.795 256.705 534.52 257.46 534.06 258.125C533.599 258.79 532.983 259.312 532.21 259.693C531.443 260.074 530.543 260.264 529.509 260.264ZM543.722 246.909V248.955H536.572V246.909H543.722ZM538.489 243.773H541.038V256.156C541.038 256.651 541.112 257.023 541.259 257.273C541.407 257.517 541.597 257.685 541.83 257.776C542.069 257.861 542.327 257.903 542.606 257.903C542.81 257.903 542.989 257.889 543.143 257.861C543.296 257.832 543.415 257.81 543.501 257.793L543.961 259.898C543.813 259.955 543.603 260.011 543.33 260.068C543.058 260.131 542.717 260.165 542.308 260.17C541.637 260.182 541.012 260.062 540.433 259.812C539.853 259.562 539.384 259.176 539.026 258.653C538.668 258.131 538.489 257.474 538.489 256.685V243.773ZM546.541 260V246.909H549.089V260H546.541ZM547.828 244.889C547.385 244.889 547.004 244.741 546.686 244.446C546.374 244.145 546.217 243.787 546.217 243.372C546.217 242.952 546.374 242.594 546.686 242.298C547.004 241.997 547.385 241.847 547.828 241.847C548.271 241.847 548.649 241.997 548.962 242.298C549.28 242.594 549.439 242.952 549.439 243.372C549.439 243.787 549.28 244.145 548.962 244.446C548.649 244.741 548.271 244.889 547.828 244.889ZM563.717 246.909L558.969 260H556.242L551.487 246.909H554.222L557.538 256.983H557.674L560.981 246.909H563.717ZM571.308 260.264C570.018 260.264 568.908 259.989 567.976 259.438C567.05 258.881 566.334 258.099 565.828 257.094C565.328 256.082 565.078 254.898 565.078 253.54C565.078 252.199 565.328 251.017 565.828 249.994C566.334 248.972 567.038 248.173 567.942 247.599C568.851 247.026 569.913 246.739 571.129 246.739C571.868 246.739 572.584 246.861 573.277 247.105C573.97 247.349 574.592 247.733 575.143 248.256C575.695 248.778 576.129 249.457 576.447 250.293C576.766 251.122 576.925 252.131 576.925 253.318V254.222H566.518V252.312H574.428C574.428 251.642 574.291 251.048 574.018 250.531C573.746 250.009 573.362 249.597 572.868 249.295C572.379 248.994 571.805 248.844 571.146 248.844C570.43 248.844 569.805 249.02 569.271 249.372C568.743 249.719 568.334 250.173 568.044 250.736C567.76 251.293 567.618 251.898 567.618 252.551V254.043C567.618 254.918 567.771 255.662 568.078 256.276C568.391 256.889 568.825 257.358 569.382 257.682C569.939 258 570.589 258.159 571.334 258.159C571.817 258.159 572.257 258.091 572.655 257.955C573.053 257.812 573.396 257.602 573.686 257.324C573.976 257.045 574.197 256.702 574.351 256.293L576.763 256.727C576.57 257.437 576.223 258.06 575.723 258.594C575.229 259.122 574.607 259.534 573.857 259.83C573.112 260.119 572.263 260.264 571.308 260.264Z" fill="white"/>
<rect x="731" y="117" width="108" height="108" rx="54" fill="url(#paint13_linear_150_920)"/>
<rect x="742" y="128" width="86" height="86" rx="43" fill="white"/>
<rect x="742" y="128" width="86" height="86" rx="43" stroke="url(#paint14_linear_150_920)" stroke-width="2"/>
<path d="M771.436 179.667C771.675 178.605 771.241 177.088 770.483 176.33L765.218 171.065C763.571 169.418 762.921 167.663 763.398 166.147C763.896 164.63 765.435 163.59 767.731 163.2L774.491 162.073C775.466 161.9 776.658 161.033 777.113 160.145L780.84 152.67C781.923 150.525 783.396 149.333 785 149.333C786.603 149.333 788.076 150.525 789.16 152.67L792.886 160.145C793.168 160.708 793.753 161.25 794.381 161.618L771.046 184.953C770.743 185.257 770.223 184.975 770.31 184.542L771.436 179.667Z" fill="url(#paint15_linear_150_920)"/>
<path d="M799.516 176.33C798.736 177.11 798.303 178.605 798.563 179.667L800.058 186.188C800.686 188.897 800.296 190.933 798.953 191.908C798.411 192.298 797.761 192.493 797.003 192.493C795.898 192.493 794.598 192.082 793.168 191.237L786.82 187.467C785.823 186.882 784.176 186.882 783.18 187.467L776.831 191.237C774.426 192.645 772.368 192.883 771.046 191.908C770.548 191.54 770.18 191.042 769.941 190.392L796.288 164.045C797.285 163.048 798.693 162.593 800.058 162.832L802.246 163.2C804.543 163.59 806.081 164.63 806.58 166.147C807.056 167.663 806.406 169.418 804.76 171.065L799.516 176.33Z" fill="url(#paint16_linear_150_920)"/>
<path d="M683.757 242.545H686.953L692.51 256.114H692.715L698.272 242.545H701.468V260H698.962V247.369H698.8L693.652 259.974H691.573L686.425 247.361H686.263V260H683.757V242.545ZM710.606 260.264C709.379 260.264 708.308 259.983 707.393 259.42C706.478 258.858 705.768 258.071 705.262 257.06C704.757 256.048 704.504 254.866 704.504 253.514C704.504 252.156 704.757 250.969 705.262 249.952C705.768 248.935 706.478 248.145 707.393 247.582C708.308 247.02 709.379 246.739 710.606 246.739C711.833 246.739 712.904 247.02 713.819 247.582C714.734 248.145 715.444 248.935 715.95 249.952C716.456 250.969 716.708 252.156 716.708 253.514C716.708 254.866 716.456 256.048 715.95 257.06C715.444 258.071 714.734 258.858 713.819 259.42C712.904 259.983 711.833 260.264 710.606 260.264ZM710.615 258.125C711.41 258.125 712.069 257.915 712.592 257.494C713.115 257.074 713.501 256.514 713.751 255.815C714.007 255.116 714.135 254.347 714.135 253.506C714.135 252.67 714.007 251.903 713.751 251.205C713.501 250.5 713.115 249.935 712.592 249.509C712.069 249.082 711.41 248.869 710.615 248.869C709.814 248.869 709.149 249.082 708.62 249.509C708.098 249.935 707.708 250.5 707.453 251.205C707.203 251.903 707.078 252.67 707.078 253.506C707.078 254.347 707.203 255.116 707.453 255.815C707.708 256.514 708.098 257.074 708.62 257.494C709.149 257.915 709.814 258.125 710.615 258.125ZM719.553 260V246.909H722.016V248.989H722.152C722.391 248.284 722.811 247.73 723.414 247.327C724.022 246.918 724.709 246.713 725.476 246.713C725.635 246.713 725.823 246.719 726.039 246.73C726.26 246.741 726.434 246.756 726.559 246.773V249.21C726.456 249.182 726.275 249.151 726.013 249.116C725.752 249.077 725.49 249.057 725.229 249.057C724.627 249.057 724.09 249.185 723.618 249.44C723.152 249.69 722.783 250.04 722.51 250.489C722.238 250.932 722.101 251.437 722.101 252.006V260H719.553ZM733.937 260.264C732.647 260.264 731.537 259.989 730.605 259.438C729.679 258.881 728.963 258.099 728.457 257.094C727.957 256.082 727.707 254.898 727.707 253.54C727.707 252.199 727.957 251.017 728.457 249.994C728.963 248.972 729.667 248.173 730.571 247.599C731.48 247.026 732.542 246.739 733.758 246.739C734.497 246.739 735.213 246.861 735.906 247.105C736.599 247.349 737.221 247.733 737.772 248.256C738.324 248.778 738.758 249.457 739.076 250.293C739.395 251.122 739.554 252.131 739.554 253.318V254.222H729.147V252.312H737.056C737.056 251.642 736.92 251.048 736.647 250.531C736.375 250.009 735.991 249.597 735.497 249.295C735.008 248.994 734.434 248.844 733.775 248.844C733.059 248.844 732.434 249.02 731.9 249.372C731.372 249.719 730.963 250.173 730.673 250.736C730.389 251.293 730.247 251.898 730.247 252.551V254.043C730.247 254.918 730.4 255.662 730.707 256.276C731.02 256.889 731.454 257.358 732.011 257.682C732.568 258 733.218 258.159 733.963 258.159C734.446 258.159 734.886 258.091 735.284 257.955C735.681 257.812 736.025 257.602 736.315 257.324C736.605 257.045 736.826 256.702 736.98 256.293L739.392 256.727C739.199 257.437 738.852 258.06 738.352 258.594C737.858 259.122 737.235 259.534 736.485 259.83C735.741 260.119 734.892 260.264 733.937 260.264ZM748.937 260V242.545H755.159C756.517 242.545 757.642 242.793 758.534 243.287C759.426 243.781 760.093 244.457 760.537 245.315C760.98 246.168 761.201 247.128 761.201 248.196C761.201 249.27 760.977 250.236 760.528 251.094C760.085 251.946 759.414 252.622 758.517 253.122C757.625 253.616 756.502 253.864 755.15 253.864H750.872V251.631H754.912C755.77 251.631 756.466 251.483 757 251.188C757.534 250.886 757.926 250.477 758.176 249.96C758.426 249.443 758.551 248.855 758.551 248.196C758.551 247.537 758.426 246.952 758.176 246.44C757.926 245.929 757.531 245.528 756.991 245.239C756.457 244.949 755.752 244.804 754.877 244.804H751.571V260H748.937ZM764.084 260V246.909H766.547V248.989H766.684C766.922 248.284 767.343 247.73 767.945 247.327C768.553 246.918 769.24 246.713 770.007 246.713C770.167 246.713 770.354 246.719 770.57 246.73C770.792 246.741 770.965 246.756 771.09 246.773V249.21C770.988 249.182 770.806 249.151 770.544 249.116C770.283 249.077 770.022 249.057 769.76 249.057C769.158 249.057 768.621 249.185 768.15 249.44C767.684 249.69 767.314 250.04 767.042 250.489C766.769 250.932 766.632 251.437 766.632 252.006V260H764.084ZM778.341 260.264C777.113 260.264 776.042 259.983 775.127 259.42C774.213 258.858 773.502 258.071 772.997 257.06C772.491 256.048 772.238 254.866 772.238 253.514C772.238 252.156 772.491 250.969 772.997 249.952C773.502 248.935 774.213 248.145 775.127 247.582C776.042 247.02 777.113 246.739 778.341 246.739C779.568 246.739 780.639 247.02 781.554 247.582C782.468 248.145 783.179 248.935 783.684 249.952C784.19 250.969 784.443 252.156 784.443 253.514C784.443 254.866 784.19 256.048 783.684 257.06C783.179 258.071 782.468 258.858 781.554 259.42C780.639 259.983 779.568 260.264 778.341 260.264ZM778.349 258.125C779.145 258.125 779.804 257.915 780.326 257.494C780.849 257.074 781.235 256.514 781.485 255.815C781.741 255.116 781.869 254.347 781.869 253.506C781.869 252.67 781.741 251.903 781.485 251.205C781.235 250.5 780.849 249.935 780.326 249.509C779.804 249.082 779.145 248.869 778.349 248.869C777.548 248.869 776.883 249.082 776.355 249.509C775.832 249.935 775.443 250.5 775.187 251.205C774.937 251.903 774.812 252.67 774.812 253.506C774.812 254.347 774.937 255.116 775.187 255.815C775.443 256.514 775.832 257.074 776.355 257.494C776.883 257.915 777.548 258.125 778.349 258.125ZM793.517 246.909V248.955H786.12V246.909H793.517ZM788.148 260V245.392C788.148 244.574 788.327 243.895 788.685 243.355C789.043 242.81 789.517 242.403 790.108 242.136C790.699 241.864 791.341 241.727 792.034 241.727C792.546 241.727 792.983 241.77 793.347 241.855C793.711 241.935 793.98 242.009 794.157 242.077L793.56 244.139C793.441 244.105 793.287 244.065 793.1 244.02C792.912 243.969 792.685 243.943 792.418 243.943C791.799 243.943 791.355 244.097 791.088 244.403C790.827 244.71 790.696 245.153 790.696 245.733V260H788.148ZM801.273 260.264C799.983 260.264 798.873 259.989 797.941 259.438C797.015 258.881 796.299 258.099 795.793 257.094C795.293 256.082 795.043 254.898 795.043 253.54C795.043 252.199 795.293 251.017 795.793 249.994C796.299 248.972 797.003 248.173 797.907 247.599C798.816 247.026 799.878 246.739 801.094 246.739C801.833 246.739 802.549 246.861 803.242 247.105C803.935 247.349 804.557 247.733 805.108 248.256C805.659 248.778 806.094 249.457 806.412 250.293C806.73 251.122 806.89 252.131 806.89 253.318V254.222H796.483V252.312H804.392C804.392 251.642 804.256 251.048 803.983 250.531C803.711 250.009 803.327 249.597 802.833 249.295C802.344 248.994 801.77 248.844 801.111 248.844C800.395 248.844 799.77 249.02 799.236 249.372C798.708 249.719 798.299 250.173 798.009 250.736C797.725 251.293 797.583 251.898 797.583 252.551V254.043C797.583 254.918 797.736 255.662 798.043 256.276C798.355 256.889 798.79 257.358 799.347 257.682C799.904 258 800.554 258.159 801.299 258.159C801.782 258.159 802.222 258.091 802.62 257.955C803.017 257.812 803.361 257.602 803.651 257.324C803.941 257.045 804.162 256.702 804.316 256.293L806.728 256.727C806.534 257.437 806.188 258.06 805.688 258.594C805.194 259.122 804.571 259.534 803.821 259.83C803.077 260.119 802.228 260.264 801.273 260.264ZM819.527 250.105L817.217 250.514C817.12 250.219 816.967 249.937 816.757 249.67C816.552 249.403 816.274 249.185 815.922 249.014C815.569 248.844 815.129 248.759 814.6 248.759C813.879 248.759 813.277 248.92 812.794 249.244C812.311 249.562 812.069 249.974 812.069 250.48C812.069 250.918 812.231 251.27 812.555 251.537C812.879 251.804 813.402 252.023 814.123 252.193L816.203 252.67C817.407 252.949 818.305 253.378 818.896 253.957C819.487 254.537 819.782 255.29 819.782 256.216C819.782 257 819.555 257.699 819.1 258.312C818.652 258.92 818.024 259.398 817.217 259.744C816.416 260.091 815.487 260.264 814.43 260.264C812.964 260.264 811.768 259.952 810.842 259.327C809.916 258.696 809.348 257.801 809.137 256.642L811.6 256.267C811.754 256.909 812.069 257.395 812.547 257.724C813.024 258.048 813.646 258.21 814.413 258.21C815.248 258.21 815.916 258.037 816.416 257.69C816.916 257.338 817.166 256.909 817.166 256.403C817.166 255.994 817.012 255.651 816.706 255.372C816.404 255.094 815.941 254.884 815.316 254.741L813.1 254.256C811.879 253.977 810.975 253.534 810.39 252.926C809.811 252.318 809.521 251.548 809.521 250.616C809.521 249.844 809.737 249.168 810.169 248.588C810.6 248.009 811.197 247.557 811.958 247.233C812.72 246.903 813.592 246.739 814.575 246.739C815.99 246.739 817.103 247.045 817.916 247.659C818.728 248.267 819.265 249.082 819.527 250.105ZM832.394 250.105L830.084 250.514C829.988 250.219 829.834 249.937 829.624 249.67C829.419 249.403 829.141 249.185 828.789 249.014C828.436 248.844 827.996 248.759 827.468 248.759C826.746 248.759 826.144 248.92 825.661 249.244C825.178 249.562 824.936 249.974 824.936 250.48C824.936 250.918 825.098 251.27 825.422 251.537C825.746 251.804 826.269 252.023 826.99 252.193L829.07 252.67C830.275 252.949 831.172 253.378 831.763 253.957C832.354 254.537 832.65 255.29 832.65 256.216C832.65 257 832.422 257.699 831.968 258.312C831.519 258.92 830.891 259.398 830.084 259.744C829.283 260.091 828.354 260.264 827.297 260.264C825.831 260.264 824.635 259.952 823.709 259.327C822.783 258.696 822.215 257.801 822.005 256.642L824.468 256.267C824.621 256.909 824.936 257.395 825.414 257.724C825.891 258.048 826.513 258.21 827.28 258.21C828.115 258.21 828.783 258.037 829.283 257.69C829.783 257.338 830.033 256.909 830.033 256.403C830.033 255.994 829.88 255.651 829.573 255.372C829.272 255.094 828.809 254.884 828.184 254.741L825.968 254.256C824.746 253.977 823.843 253.534 823.257 252.926C822.678 252.318 822.388 251.548 822.388 250.616C822.388 249.844 822.604 249.168 823.036 248.588C823.468 248.009 824.064 247.557 824.826 247.233C825.587 246.903 826.459 246.739 827.442 246.739C828.857 246.739 829.971 247.045 830.783 247.659C831.596 248.267 832.132 249.082 832.394 250.105ZM835.451 260V246.909H838V260H835.451ZM836.738 244.889C836.295 244.889 835.914 244.741 835.596 244.446C835.284 244.145 835.127 243.787 835.127 243.372C835.127 242.952 835.284 242.594 835.596 242.298C835.914 241.997 836.295 241.847 836.738 241.847C837.181 241.847 837.559 241.997 837.872 242.298C838.19 242.594 838.349 242.952 838.349 243.372C838.349 243.787 838.19 244.145 837.872 244.446C837.559 244.741 837.181 244.889 836.738 244.889ZM846.942 260.264C845.715 260.264 844.644 259.983 843.729 259.42C842.814 258.858 842.104 258.071 841.598 257.06C841.093 256.048 840.84 254.866 840.84 253.514C840.84 252.156 841.093 250.969 841.598 249.952C842.104 248.935 842.814 248.145 843.729 247.582C844.644 247.02 845.715 246.739 846.942 246.739C848.169 246.739 849.24 247.02 850.155 247.582C851.07 248.145 851.78 248.935 852.286 249.952C852.792 250.969 853.044 252.156 853.044 253.514C853.044 254.866 852.792 256.048 852.286 257.06C851.78 258.071 851.07 258.858 850.155 259.42C849.24 259.983 848.169 260.264 846.942 260.264ZM846.951 258.125C847.746 258.125 848.405 257.915 848.928 257.494C849.451 257.074 849.837 256.514 850.087 255.815C850.343 255.116 850.471 254.347 850.471 253.506C850.471 252.67 850.343 251.903 850.087 251.205C849.837 250.5 849.451 249.935 848.928 249.509C848.405 249.082 847.746 248.869 846.951 248.869C846.15 248.869 845.485 249.082 844.956 249.509C844.434 249.935 844.044 250.5 843.789 251.205C843.539 251.903 843.414 252.67 843.414 253.506C843.414 254.347 843.539 255.116 843.789 255.815C844.044 256.514 844.434 257.074 844.956 257.494C845.485 257.915 846.15 258.125 846.951 258.125ZM858.437 252.227V260H855.889V246.909H858.335V249.04H858.497C858.798 248.347 859.27 247.79 859.912 247.369C860.559 246.949 861.375 246.739 862.358 246.739C863.25 246.739 864.031 246.926 864.701 247.301C865.372 247.67 865.892 248.222 866.261 248.955C866.63 249.687 866.815 250.594 866.815 251.673V260H864.267V251.98C864.267 251.031 864.02 250.29 863.525 249.756C863.031 249.216 862.352 248.946 861.488 248.946C860.897 248.946 860.372 249.074 859.912 249.33C859.457 249.585 859.096 249.96 858.829 250.455C858.568 250.943 858.437 251.534 858.437 252.227ZM874.042 260.29C873.213 260.29 872.463 260.136 871.792 259.83C871.122 259.517 870.591 259.065 870.199 258.474C869.812 257.884 869.619 257.159 869.619 256.301C869.619 255.562 869.761 254.955 870.045 254.477C870.329 254 870.713 253.622 871.196 253.344C871.679 253.065 872.218 252.855 872.815 252.713C873.412 252.571 874.02 252.463 874.639 252.389C875.423 252.298 876.059 252.224 876.548 252.168C877.037 252.105 877.392 252.006 877.613 251.869C877.835 251.733 877.946 251.511 877.946 251.205V251.145C877.946 250.401 877.735 249.824 877.315 249.415C876.9 249.006 876.281 248.801 875.457 248.801C874.599 248.801 873.923 248.991 873.429 249.372C872.94 249.747 872.602 250.165 872.414 250.625L870.02 250.08C870.304 249.284 870.718 248.642 871.264 248.153C871.815 247.659 872.449 247.301 873.164 247.08C873.88 246.852 874.633 246.739 875.423 246.739C875.946 246.739 876.5 246.801 877.085 246.926C877.676 247.045 878.227 247.267 878.738 247.591C879.255 247.915 879.679 248.378 880.008 248.98C880.338 249.577 880.502 250.352 880.502 251.307V260H878.014V258.21H877.912C877.747 258.54 877.5 258.864 877.17 259.182C876.841 259.5 876.417 259.764 875.9 259.974C875.383 260.185 874.764 260.29 874.042 260.29ZM874.596 258.244C875.301 258.244 875.903 258.105 876.403 257.827C876.909 257.548 877.292 257.185 877.554 256.736C877.821 256.281 877.954 255.795 877.954 255.278V253.591C877.863 253.682 877.687 253.767 877.426 253.847C877.17 253.92 876.877 253.986 876.548 254.043C876.218 254.094 875.897 254.142 875.585 254.188C875.272 254.227 875.011 254.261 874.801 254.29C874.306 254.352 873.855 254.457 873.446 254.605C873.042 254.753 872.718 254.966 872.474 255.244C872.235 255.517 872.116 255.881 872.116 256.335C872.116 256.966 872.349 257.443 872.815 257.767C873.281 258.085 873.875 258.244 874.596 258.244ZM886.445 242.545V260H883.897V242.545H886.445Z" fill="white"/>
<rect x="1021" y="117" width="108" height="108" rx="54" fill="url(#paint17_linear_150_920)"/>
<rect x="1032" y="128" width="86" height="86" rx="43" fill="white"/>
<rect x="1032" y="128" width="86" height="86" rx="43" stroke="url(#paint18_linear_150_920)" stroke-width="2"/>
<path d="M1068.5 149.333C1062.82 149.333 1058.21 153.948 1058.21 159.625C1058.21 165.193 1062.56 169.7 1068.24 169.895C1068.41 169.873 1068.59 169.873 1068.72 169.895C1068.76 169.895 1068.78 169.895 1068.82 169.895C1068.85 169.895 1068.85 169.895 1068.87 169.895C1074.41 169.7 1078.77 165.193 1078.79 159.625C1078.79 153.948 1074.18 149.333 1068.5 149.333Z" fill="url(#paint19_linear_150_920)"/>
<path d="M1079.51 175.658C1073.46 171.628 1063.6 171.628 1057.51 175.658C1054.76 177.5 1053.25 179.992 1053.25 182.657C1053.25 185.322 1054.76 187.792 1057.49 189.612C1060.53 191.648 1064.51 192.667 1068.5 192.667C1072.49 192.667 1076.47 191.648 1079.51 189.612C1082.24 187.77 1083.75 185.3 1083.75 182.613C1083.73 179.948 1082.24 177.478 1079.51 175.658Z" fill="url(#paint20_linear_150_920)"/>
<path d="M1092.31 160.903C1092.66 165.107 1089.67 168.79 1085.53 169.288C1085.51 169.288 1085.51 169.288 1085.49 169.288H1085.42C1085.29 169.288 1085.16 169.288 1085.05 169.332C1082.95 169.44 1081.02 168.768 1079.57 167.533C1081.8 165.54 1083.08 162.55 1082.82 159.3C1082.67 157.545 1082.06 155.942 1081.15 154.577C1081.98 154.165 1082.93 153.905 1083.9 153.818C1088.15 153.45 1091.94 156.613 1092.31 160.903Z" fill="url(#paint21_linear_150_920)"/>
<path d="M1096.64 180.945C1096.47 183.047 1095.13 184.867 1092.87 186.102C1090.71 187.293 1087.98 187.857 1085.27 187.792C1086.83 186.383 1087.74 184.628 1087.91 182.765C1088.13 180.078 1086.85 177.5 1084.29 175.442C1082.84 174.293 1081.15 173.383 1079.31 172.712C1084.1 171.325 1090.12 172.257 1093.83 175.247C1095.82 176.85 1096.84 178.865 1096.64 180.945Z" fill="url(#paint22_linear_150_920)"/>
<path d="M1002.16 260H999.366L1005.65 242.545H1008.69L1014.97 260H1012.18L1007.24 245.716H1007.1L1002.16 260ZM1002.63 253.165H1011.7V255.381H1002.63V253.165ZM1022.58 246.909V248.955H1015.43V246.909H1022.58ZM1017.34 243.773H1019.89V256.156C1019.89 256.651 1019.97 257.023 1020.11 257.273C1020.26 257.517 1020.45 257.685 1020.69 257.776C1020.92 257.861 1021.18 257.903 1021.46 257.903C1021.67 257.903 1021.84 257.889 1022 257.861C1022.15 257.832 1022.27 257.81 1022.36 257.793L1022.82 259.898C1022.67 259.955 1022.46 260.011 1022.19 260.068C1021.91 260.131 1021.57 260.165 1021.16 260.17C1020.49 260.182 1019.87 260.062 1019.29 259.812C1018.71 259.562 1018.24 259.176 1017.88 258.653C1017.52 258.131 1017.34 257.474 1017.34 256.685V243.773ZM1031.51 246.909V248.955H1024.36V246.909H1031.51ZM1026.27 243.773H1028.82V256.156C1028.82 256.651 1028.9 257.023 1029.04 257.273C1029.19 257.517 1029.38 257.685 1029.62 257.776C1029.85 257.861 1030.11 257.903 1030.39 257.903C1030.6 257.903 1030.77 257.889 1030.93 257.861C1031.08 257.832 1031.2 257.81 1031.29 257.793L1031.75 259.898C1031.6 259.955 1031.39 260.011 1031.12 260.068C1030.84 260.131 1030.5 260.165 1030.09 260.17C1029.42 260.182 1028.8 260.062 1028.22 259.812C1027.64 259.562 1027.17 259.176 1026.81 258.653C1026.45 258.131 1026.27 257.474 1026.27 256.685V243.773ZM1034.33 260V246.909H1036.79V248.989H1036.93C1037.16 248.284 1037.58 247.73 1038.19 247.327C1038.8 246.918 1039.48 246.713 1040.25 246.713C1040.41 246.713 1040.6 246.719 1040.81 246.73C1041.03 246.741 1041.21 246.756 1041.33 246.773V249.21C1041.23 249.182 1041.05 249.151 1040.79 249.116C1040.53 249.077 1040.26 249.057 1040 249.057C1039.4 249.057 1038.86 249.185 1038.39 249.44C1037.93 249.69 1037.56 250.04 1037.28 250.489C1037.01 250.932 1036.87 251.437 1036.87 252.006V260H1034.33ZM1047.23 260.29C1046.4 260.29 1045.65 260.136 1044.98 259.83C1044.31 259.517 1043.78 259.065 1043.39 258.474C1043 257.884 1042.81 257.159 1042.81 256.301C1042.81 255.562 1042.95 254.955 1043.23 254.477C1043.52 254 1043.9 253.622 1044.38 253.344C1044.87 253.065 1045.41 252.855 1046 252.713C1046.6 252.571 1047.21 252.463 1047.83 252.389C1048.61 252.298 1049.25 252.224 1049.74 252.168C1050.22 252.105 1050.58 252.006 1050.8 251.869C1051.02 251.733 1051.13 251.511 1051.13 251.205V251.145C1051.13 250.401 1050.92 249.824 1050.5 249.415C1050.09 249.006 1049.47 248.801 1048.64 248.801C1047.79 248.801 1047.11 248.991 1046.62 249.372C1046.13 249.747 1045.79 250.165 1045.6 250.625L1043.21 250.08C1043.49 249.284 1043.91 248.642 1044.45 248.153C1045 247.659 1045.64 247.301 1046.35 247.08C1047.07 246.852 1047.82 246.739 1048.61 246.739C1049.13 246.739 1049.69 246.801 1050.27 246.926C1050.86 247.045 1051.41 247.267 1051.93 247.591C1052.44 247.915 1052.87 248.378 1053.2 248.98C1053.53 249.577 1053.69 250.352 1053.69 251.307V260H1051.2V258.21H1051.1C1050.93 258.54 1050.69 258.864 1050.36 259.182C1050.03 259.5 1049.6 259.764 1049.09 259.974C1048.57 260.185 1047.95 260.29 1047.23 260.29ZM1047.78 258.244C1048.49 258.244 1049.09 258.105 1049.59 257.827C1050.1 257.548 1050.48 257.185 1050.74 256.736C1051.01 256.281 1051.14 255.795 1051.14 255.278V253.591C1051.05 253.682 1050.87 253.767 1050.61 253.847C1050.36 253.92 1050.06 253.986 1049.74 254.043C1049.41 254.094 1049.08 254.142 1048.77 254.188C1048.46 254.227 1048.2 254.261 1047.99 254.29C1047.49 254.352 1047.04 254.457 1046.63 254.605C1046.23 254.753 1045.91 254.966 1045.66 255.244C1045.42 255.517 1045.3 255.881 1045.3 256.335C1045.3 256.966 1045.54 257.443 1046 257.767C1046.47 258.085 1047.06 258.244 1047.78 258.244ZM1062.6 260.264C1061.33 260.264 1060.24 259.977 1059.33 259.403C1058.42 258.824 1057.72 258.026 1057.23 257.009C1056.74 255.991 1056.5 254.827 1056.5 253.514C1056.5 252.185 1056.75 251.011 1057.25 249.994C1057.75 248.972 1058.45 248.173 1059.36 247.599C1060.27 247.026 1061.34 246.739 1062.57 246.739C1063.57 246.739 1064.45 246.923 1065.23 247.293C1066.01 247.656 1066.64 248.168 1067.12 248.827C1067.6 249.486 1067.89 250.256 1067.98 251.136H1065.5C1065.36 250.523 1065.05 249.994 1064.56 249.551C1064.08 249.108 1063.43 248.886 1062.62 248.886C1061.91 248.886 1061.28 249.074 1060.75 249.449C1060.22 249.818 1059.81 250.347 1059.51 251.034C1059.22 251.716 1059.07 252.523 1059.07 253.455C1059.07 254.409 1059.21 255.233 1059.5 255.926C1059.79 256.619 1060.2 257.156 1060.73 257.537C1061.27 257.918 1061.89 258.108 1062.62 258.108C1063.1 258.108 1063.54 258.02 1063.93 257.844C1064.33 257.662 1064.66 257.403 1064.93 257.068C1065.2 256.733 1065.39 256.33 1065.5 255.858H1067.98C1067.89 256.705 1067.61 257.46 1067.15 258.125C1066.69 258.79 1066.07 259.312 1065.3 259.693C1064.53 260.074 1063.63 260.264 1062.6 260.264ZM1076.81 246.909V248.955H1069.66V246.909H1076.81ZM1071.58 243.773H1074.13V256.156C1074.13 256.651 1074.2 257.023 1074.35 257.273C1074.5 257.517 1074.69 257.685 1074.92 257.776C1075.16 257.861 1075.42 257.903 1075.7 257.903C1075.9 257.903 1076.08 257.889 1076.23 257.861C1076.39 257.832 1076.51 257.81 1076.59 257.793L1077.05 259.898C1076.9 259.955 1076.69 260.011 1076.42 260.068C1076.15 260.131 1075.81 260.165 1075.4 260.17C1074.73 260.182 1074.1 260.062 1073.52 259.812C1072.94 259.562 1072.47 259.176 1072.12 258.653C1071.76 258.131 1071.58 257.474 1071.58 256.685V243.773ZM1100.68 248.222H1098.03C1097.92 247.653 1097.73 247.153 1097.45 246.722C1097.18 246.29 1096.83 245.923 1096.43 245.622C1096.03 245.321 1095.58 245.094 1095.08 244.94C1094.58 244.787 1094.06 244.71 1093.5 244.71C1092.49 244.71 1091.59 244.963 1090.8 245.469C1090.01 245.974 1089.38 246.716 1088.92 247.693C1088.47 248.67 1088.24 249.864 1088.24 251.273C1088.24 252.693 1088.47 253.892 1088.92 254.869C1089.38 255.847 1090.01 256.585 1090.81 257.085C1091.6 257.585 1092.5 257.835 1093.49 257.835C1094.04 257.835 1094.56 257.761 1095.06 257.614C1095.56 257.46 1096.01 257.236 1096.41 256.94C1096.82 256.645 1097.16 256.284 1097.44 255.858C1097.72 255.426 1097.92 254.932 1098.03 254.375L1100.68 254.384C1100.54 255.241 1100.27 256.031 1099.86 256.753C1099.45 257.469 1098.93 258.088 1098.3 258.611C1097.67 259.128 1096.95 259.528 1096.13 259.812C1095.32 260.097 1094.43 260.239 1093.47 260.239C1091.96 260.239 1090.62 259.881 1089.43 259.165C1088.25 258.443 1087.32 257.412 1086.64 256.071C1085.96 254.73 1085.62 253.131 1085.62 251.273C1085.62 249.409 1085.97 247.81 1086.65 246.474C1087.33 245.134 1088.26 244.105 1089.44 243.389C1090.62 242.668 1091.97 242.307 1093.47 242.307C1094.4 242.307 1095.26 242.44 1096.06 242.707C1096.87 242.969 1097.6 243.355 1098.24 243.866C1098.88 244.372 1099.41 244.991 1099.83 245.724C1100.25 246.452 1100.54 247.284 1100.68 248.222ZM1106.18 242.545V260H1103.63V242.545H1106.18ZM1109.61 260V246.909H1112.16V260H1109.61ZM1110.89 244.889C1110.45 244.889 1110.07 244.741 1109.75 244.446C1109.44 244.145 1109.28 243.787 1109.28 243.372C1109.28 242.952 1109.44 242.594 1109.75 242.298C1110.07 241.997 1110.45 241.847 1110.89 241.847C1111.34 241.847 1111.72 241.997 1112.03 242.298C1112.35 242.594 1112.51 242.952 1112.51 243.372C1112.51 243.787 1112.35 244.145 1112.03 244.446C1111.72 244.741 1111.34 244.889 1110.89 244.889ZM1121.23 260.264C1119.94 260.264 1118.83 259.989 1117.89 259.438C1116.97 258.881 1116.25 258.099 1115.75 257.094C1115.25 256.082 1115 254.898 1115 253.54C1115 252.199 1115.25 251.017 1115.75 249.994C1116.25 248.972 1116.96 248.173 1117.86 247.599C1118.77 247.026 1119.83 246.739 1121.05 246.739C1121.79 246.739 1122.5 246.861 1123.19 247.105C1123.89 247.349 1124.51 247.733 1125.06 248.256C1125.61 248.778 1126.05 249.457 1126.37 250.293C1126.68 251.122 1126.84 252.131 1126.84 253.318V254.222H1116.44V252.312H1124.35C1124.35 251.642 1124.21 251.048 1123.94 250.531C1123.66 250.009 1123.28 249.597 1122.79 249.295C1122.3 248.994 1121.72 248.844 1121.06 248.844C1120.35 248.844 1119.72 249.02 1119.19 249.372C1118.66 249.719 1118.25 250.173 1117.96 250.736C1117.68 251.293 1117.54 251.898 1117.54 252.551V254.043C1117.54 254.918 1117.69 255.662 1118 256.276C1118.31 256.889 1118.74 257.358 1119.3 257.682C1119.86 258 1120.51 258.159 1121.25 258.159C1121.73 258.159 1122.18 258.091 1122.57 257.955C1122.97 257.812 1123.31 257.602 1123.6 257.324C1123.89 257.045 1124.12 256.702 1124.27 256.293L1126.68 256.727C1126.49 257.437 1126.14 258.06 1125.64 258.594C1125.15 259.122 1124.52 259.534 1123.77 259.83C1123.03 260.119 1122.18 260.264 1121.23 260.264ZM1132.22 252.227V260H1129.67V246.909H1132.12V249.04H1132.28C1132.58 248.347 1133.05 247.79 1133.69 247.369C1134.34 246.949 1135.16 246.739 1136.14 246.739C1137.03 246.739 1137.81 246.926 1138.48 247.301C1139.15 247.67 1139.67 248.222 1140.04 248.955C1140.41 249.687 1140.6 250.594 1140.6 251.673V260H1138.05V251.98C1138.05 251.031 1137.8 250.29 1137.31 249.756C1136.81 249.216 1136.13 248.946 1135.27 248.946C1134.68 248.946 1134.15 249.074 1133.69 249.33C1133.24 249.585 1132.88 249.96 1132.61 250.455C1132.35 250.943 1132.22 251.534 1132.22 252.227ZM1150.12 246.909V248.955H1142.97V246.909H1150.12ZM1144.89 243.773H1147.44V256.156C1147.44 256.651 1147.51 257.023 1147.66 257.273C1147.81 257.517 1148 257.685 1148.23 257.776C1148.47 257.861 1148.73 257.903 1149.01 257.903C1149.21 257.903 1149.39 257.889 1149.55 257.861C1149.7 257.832 1149.82 257.81 1149.9 257.793L1150.36 259.898C1150.22 259.955 1150.01 260.011 1149.73 260.068C1149.46 260.131 1149.12 260.165 1148.71 260.17C1148.04 260.182 1147.41 260.062 1146.83 259.812C1146.26 259.562 1145.79 259.176 1145.43 258.653C1145.07 258.131 1144.89 257.474 1144.89 256.685V243.773Z" fill="white"/>
<path d="M373.749 56V32.7273H382.658C384.339 32.7273 385.737 32.9924 386.851 33.5227C387.972 34.0455 388.809 34.7614 389.362 35.6705C389.923 36.5795 390.203 37.6098 390.203 38.7614C390.203 39.7083 390.021 40.5189 389.658 41.1932C389.294 41.8598 388.805 42.4015 388.192 42.8182C387.578 43.2348 386.893 43.5341 386.135 43.7159V43.9432C386.961 43.9886 387.752 44.2424 388.51 44.7045C389.275 45.1591 389.9 45.803 390.385 46.6364C390.87 47.4697 391.112 48.4773 391.112 49.6591C391.112 50.8636 390.821 51.947 390.237 52.9091C389.654 53.8636 388.775 54.6174 387.601 55.1705C386.427 55.7235 384.949 56 383.169 56H373.749ZM377.964 52.4773H382.499C384.029 52.4773 385.131 52.1856 385.805 51.6023C386.487 51.0114 386.828 50.2538 386.828 49.3295C386.828 48.6402 386.658 48.0189 386.317 47.4659C385.976 46.9053 385.491 46.4659 384.862 46.1477C384.233 45.822 383.483 45.6591 382.612 45.6591H377.964V52.4773ZM377.964 42.625H382.135C382.862 42.625 383.518 42.4924 384.101 42.2273C384.684 41.9545 385.143 41.572 385.476 41.0795C385.817 40.5795 385.987 39.9886 385.987 39.3068C385.987 38.4053 385.669 37.6629 385.033 37.0795C384.404 36.4962 383.468 36.2045 382.226 36.2045H377.964V42.625ZM402.325 56.3409C400.575 56.3409 399.064 55.9773 397.791 55.25C396.526 54.5152 395.553 53.4773 394.871 52.1364C394.189 50.7879 393.848 49.2008 393.848 47.375C393.848 45.5795 394.189 44.0038 394.871 42.6477C395.56 41.2841 396.522 40.2235 397.757 39.4659C398.992 38.7008 400.443 38.3182 402.109 38.3182C403.185 38.3182 404.2 38.4924 405.155 38.8409C406.117 39.1818 406.965 39.7121 407.7 40.4318C408.443 41.1515 409.026 42.0682 409.45 43.1818C409.875 44.2879 410.087 45.6061 410.087 47.1364V48.3977H395.78V45.625H406.143C406.136 44.8371 405.965 44.1364 405.632 43.5227C405.299 42.9015 404.833 42.4129 404.234 42.0568C403.643 41.7008 402.954 41.5227 402.166 41.5227C401.325 41.5227 400.587 41.7273 399.95 42.1364C399.314 42.5379 398.818 43.0682 398.462 43.7273C398.113 44.3788 397.935 45.0947 397.928 45.875V48.2955C397.928 49.3106 398.113 50.1818 398.484 50.9091C398.856 51.6288 399.375 52.1818 400.041 52.5682C400.708 52.947 401.488 53.1364 402.382 53.1364C402.981 53.1364 403.522 53.053 404.007 52.8864C404.492 52.7121 404.912 52.4583 405.268 52.125C405.625 51.7917 405.893 51.3788 406.075 50.8864L409.916 51.3182C409.674 52.3333 409.212 53.2197 408.53 53.9773C407.856 54.7273 406.992 55.3106 405.939 55.7273C404.886 56.1364 403.681 56.3409 402.325 56.3409ZM417.68 45.7727V56H413.567V38.5455H417.499V41.5114H417.703C418.105 40.5341 418.745 39.7576 419.624 39.1818C420.51 38.6061 421.605 38.3182 422.908 38.3182C424.112 38.3182 425.161 38.5758 426.055 39.0909C426.957 39.6061 427.654 40.3523 428.146 41.3295C428.646 42.3068 428.893 43.4924 428.885 44.8864V56H424.771V45.5227C424.771 44.3561 424.468 43.4432 423.862 42.7841C423.264 42.125 422.434 41.7955 421.374 41.7955C420.654 41.7955 420.014 41.9545 419.453 42.2727C418.9 42.5833 418.464 43.0341 418.146 43.625C417.836 44.2159 417.68 44.9318 417.68 45.7727ZM440.794 56.3409C439.044 56.3409 437.533 55.9773 436.26 55.25C434.995 54.5152 434.021 53.4773 433.339 52.1364C432.658 50.7879 432.317 49.2008 432.317 47.375C432.317 45.5795 432.658 44.0038 433.339 42.6477C434.029 41.2841 434.991 40.2235 436.226 39.4659C437.461 38.7008 438.911 38.3182 440.578 38.3182C441.654 38.3182 442.669 38.4924 443.624 38.8409C444.586 39.1818 445.434 39.7121 446.169 40.4318C446.911 41.1515 447.495 42.0682 447.919 43.1818C448.343 44.2879 448.555 45.6061 448.555 47.1364V48.3977H434.249V45.625H444.612C444.605 44.8371 444.434 44.1364 444.101 43.5227C443.768 42.9015 443.302 42.4129 442.703 42.0568C442.112 41.7008 441.423 41.5227 440.635 41.5227C439.794 41.5227 439.055 41.7273 438.419 42.1364C437.783 42.5379 437.286 43.0682 436.93 43.7273C436.582 44.3788 436.404 45.0947 436.396 45.875V48.2955C436.396 49.3106 436.582 50.1818 436.953 50.9091C437.324 51.6288 437.843 52.1818 438.51 52.5682C439.177 52.947 439.957 53.1364 440.851 53.1364C441.449 53.1364 441.991 53.053 442.476 52.8864C442.961 52.7121 443.381 52.4583 443.737 52.125C444.093 51.7917 444.362 51.3788 444.544 50.8864L448.385 51.3182C448.143 52.3333 447.68 53.2197 446.999 53.9773C446.324 54.7273 445.461 55.3106 444.408 55.7273C443.355 56.1364 442.15 56.3409 440.794 56.3409ZM460.876 38.5455V41.7273H450.558V38.5455H460.876ZM453.138 56V36.8977C453.138 35.7235 453.38 34.7462 453.865 33.9659C454.357 33.1856 455.017 32.6023 455.842 32.2159C456.668 31.8295 457.585 31.6364 458.592 31.6364C459.304 31.6364 459.937 31.6932 460.49 31.8068C461.043 31.9205 461.452 32.0227 461.717 32.1136L460.899 35.2955C460.725 35.2424 460.505 35.1894 460.24 35.1364C459.975 35.0758 459.679 35.0455 459.354 35.0455C458.589 35.0455 458.047 35.2311 457.729 35.6023C457.418 35.9659 457.263 36.4886 457.263 37.1705V56H453.138ZM464.098 56V38.5455H468.212V56H464.098ZM466.166 36.0682C465.515 36.0682 464.954 35.8523 464.484 35.4205C464.015 34.9811 463.78 34.4545 463.78 33.8409C463.78 33.2197 464.015 32.6932 464.484 32.2614C464.954 31.822 465.515 31.6023 466.166 31.6023C466.825 31.6023 467.386 31.822 467.848 32.2614C468.318 32.6932 468.553 33.2197 468.553 33.8409C468.553 34.4545 468.318 34.9811 467.848 35.4205C467.386 35.8523 466.825 36.0682 466.166 36.0682ZM481.158 38.5455V41.7273H471.124V38.5455H481.158ZM473.601 34.3636H477.714V50.75C477.714 51.303 477.798 51.7273 477.964 52.0227C478.139 52.3106 478.366 52.5076 478.646 52.6136C478.927 52.7197 479.237 52.7727 479.578 52.7727C479.836 52.7727 480.071 52.7538 480.283 52.7159C480.502 52.678 480.669 52.6439 480.783 52.6136L481.476 55.8295C481.256 55.9053 480.942 55.9886 480.533 56.0795C480.131 56.1705 479.639 56.2235 479.055 56.2386C478.025 56.2689 477.097 56.1136 476.271 55.7727C475.446 55.4242 474.79 54.8864 474.305 54.1591C473.828 53.4318 473.593 52.5227 473.601 51.4318V34.3636ZM500.149 56.3409C498.445 56.3409 496.967 55.9659 495.717 55.2159C494.467 54.4659 493.498 53.4167 492.808 52.0682C492.126 50.7197 491.786 49.1439 491.786 47.3409C491.786 45.5379 492.126 43.9583 492.808 42.6023C493.498 41.2462 494.467 40.1932 495.717 39.4432C496.967 38.6932 498.445 38.3182 500.149 38.3182C501.854 38.3182 503.331 38.6932 504.581 39.4432C505.831 40.1932 506.797 41.2462 507.479 42.6023C508.168 43.9583 508.513 45.5379 508.513 47.3409C508.513 49.1439 508.168 50.7197 507.479 52.0682C506.797 53.4167 505.831 54.4659 504.581 55.2159C503.331 55.9659 501.854 56.3409 500.149 56.3409ZM500.172 53.0455C501.096 53.0455 501.869 52.7917 502.49 52.2841C503.111 51.7689 503.573 51.0795 503.876 50.2159C504.187 49.3523 504.342 48.3902 504.342 47.3295C504.342 46.2614 504.187 45.2955 503.876 44.4318C503.573 43.5606 503.111 42.8674 502.49 42.3523C501.869 41.8371 501.096 41.5795 500.172 41.5795C499.225 41.5795 498.437 41.8371 497.808 42.3523C497.187 42.8674 496.721 43.5606 496.411 44.4318C496.107 45.2955 495.956 46.2614 495.956 47.3295C495.956 48.3902 496.107 49.3523 496.411 50.2159C496.721 51.0795 497.187 51.7689 497.808 52.2841C498.437 52.7917 499.225 53.0455 500.172 53.0455ZM520.845 38.5455V41.7273H510.527V38.5455H520.845ZM513.107 56V36.8977C513.107 35.7235 513.349 34.7462 513.834 33.9659C514.326 33.1856 514.985 32.6023 515.811 32.2159C516.637 31.8295 517.554 31.6364 518.561 31.6364C519.273 31.6364 519.906 31.6932 520.459 31.8068C521.012 31.9205 521.421 32.0227 521.686 32.1136L520.868 35.2955C520.694 35.2424 520.474 35.1894 520.209 35.1364C519.944 35.0758 519.648 35.0455 519.322 35.0455C518.557 35.0455 518.016 35.2311 517.697 35.6023C517.387 35.9659 517.232 36.4886 517.232 37.1705V56H513.107ZM532.004 56V38.5455H536.118V56H532.004ZM534.072 36.0682C533.421 36.0682 532.86 35.8523 532.391 35.4205C531.921 34.9811 531.686 34.4545 531.686 33.8409C531.686 33.2197 531.921 32.6932 532.391 32.2614C532.86 31.822 533.421 31.6023 534.072 31.6023C534.732 31.6023 535.292 31.822 535.754 32.2614C536.224 32.6932 536.459 33.2197 536.459 33.8409C536.459 34.4545 536.224 34.9811 535.754 35.4205C535.292 35.8523 534.732 36.0682 534.072 36.0682ZM540.348 56V38.5455H544.28V41.5114H544.484C544.848 40.5114 545.45 39.7311 546.291 39.1705C547.132 38.6023 548.136 38.3182 549.303 38.3182C550.484 38.3182 551.481 38.6061 552.291 39.1818C553.109 39.75 553.685 40.5265 554.018 41.5114H554.2C554.587 40.5417 555.238 39.7689 556.155 39.1932C557.079 38.6098 558.174 38.3182 559.439 38.3182C561.045 38.3182 562.356 38.8258 563.371 39.8409C564.386 40.8561 564.893 42.3371 564.893 44.2841V56H560.768V44.9205C560.768 43.8371 560.481 43.0455 559.905 42.5455C559.329 42.0379 558.625 41.7841 557.791 41.7841C556.799 41.7841 556.022 42.0947 555.462 42.7159C554.909 43.3295 554.632 44.1288 554.632 45.1136V56H550.598V44.75C550.598 43.8485 550.325 43.1288 549.78 42.5909C549.242 42.053 548.537 41.7841 547.666 41.7841C547.075 41.7841 546.537 41.9356 546.053 42.2386C545.568 42.5341 545.181 42.9545 544.893 43.5C544.606 44.0379 544.462 44.6667 544.462 45.3864V56H540.348ZM569.067 62.5455V38.5455H573.112V41.4318H573.351C573.563 41.0076 573.862 40.5568 574.249 40.0795C574.635 39.5947 575.158 39.1818 575.817 38.8409C576.476 38.4924 577.317 38.3182 578.339 38.3182C579.688 38.3182 580.904 38.6629 581.987 39.3523C583.078 40.0341 583.942 41.0455 584.578 42.3864C585.222 43.7197 585.544 45.3561 585.544 47.2955C585.544 49.2121 585.23 50.8409 584.601 52.1818C583.972 53.5227 583.116 54.5455 582.033 55.25C580.949 55.9545 579.722 56.3068 578.351 56.3068C577.351 56.3068 576.521 56.1402 575.862 55.8068C575.203 55.4735 574.673 55.072 574.271 54.6023C573.877 54.125 573.571 53.6742 573.351 53.25H573.18V62.5455H569.067ZM573.101 47.2727C573.101 48.4015 573.26 49.3902 573.578 50.2386C573.904 51.0871 574.37 51.75 574.976 52.2273C575.589 52.697 576.332 52.9318 577.203 52.9318C578.112 52.9318 578.874 52.6894 579.487 52.2045C580.101 51.7121 580.563 51.0417 580.874 50.1932C581.192 49.3371 581.351 48.3636 581.351 47.2727C581.351 46.1894 581.196 45.2273 580.885 44.3864C580.574 43.5455 580.112 42.8864 579.499 42.4091C578.885 41.9318 578.12 41.6932 577.203 41.6932C576.324 41.6932 575.578 41.9242 574.964 42.3864C574.351 42.8485 573.885 43.4962 573.567 44.3295C573.256 45.1629 573.101 46.1439 573.101 47.2727ZM589.067 56V38.5455H593.055V41.4545H593.237C593.555 40.447 594.101 39.6705 594.874 39.125C595.654 38.572 596.544 38.2955 597.544 38.2955C597.771 38.2955 598.025 38.3068 598.305 38.3295C598.593 38.3447 598.832 38.3712 599.021 38.4091V42.1932C598.847 42.1326 598.571 42.0795 598.192 42.0341C597.821 41.9811 597.461 41.9545 597.112 41.9545C596.362 41.9545 595.688 42.1174 595.089 42.4432C594.499 42.7614 594.033 43.2045 593.692 43.7727C593.351 44.3409 593.18 44.9962 593.18 45.7386V56H589.067ZM608.649 56.3409C606.945 56.3409 605.467 55.9659 604.217 55.2159C602.967 54.4659 601.998 53.4167 601.308 52.0682C600.626 50.7197 600.286 49.1439 600.286 47.3409C600.286 45.5379 600.626 43.9583 601.308 42.6023C601.998 41.2462 602.967 40.1932 604.217 39.4432C605.467 38.6932 606.945 38.3182 608.649 38.3182C610.354 38.3182 611.831 38.6932 613.081 39.4432C614.331 40.1932 615.297 41.2462 615.979 42.6023C616.668 43.9583 617.013 45.5379 617.013 47.3409C617.013 49.1439 616.668 50.7197 615.979 52.0682C615.297 53.4167 614.331 54.4659 613.081 55.2159C611.831 55.9659 610.354 56.3409 608.649 56.3409ZM608.672 53.0455C609.596 53.0455 610.369 52.7917 610.99 52.2841C611.611 51.7689 612.073 51.0795 612.376 50.2159C612.687 49.3523 612.842 48.3902 612.842 47.3295C612.842 46.2614 612.687 45.2955 612.376 44.4318C612.073 43.5606 611.611 42.8674 610.99 42.3523C610.369 41.8371 609.596 41.5795 608.672 41.5795C607.725 41.5795 606.937 41.8371 606.308 42.3523C605.687 42.8674 605.221 43.5606 604.911 44.4318C604.607 45.2955 604.456 46.2614 604.456 47.3295C604.456 48.3902 604.607 49.3523 604.911 50.2159C605.221 51.0795 605.687 51.7689 606.308 52.2841C606.937 52.7917 607.725 53.0455 608.672 53.0455ZM635.501 38.5455L629.286 56H624.74L618.524 38.5455H622.911L626.922 51.5114H627.104L631.126 38.5455H635.501ZM638.348 56V38.5455H642.462V56H638.348ZM640.416 36.0682C639.765 36.0682 639.204 35.8523 638.734 35.4205C638.265 34.9811 638.03 34.4545 638.03 33.8409C638.03 33.2197 638.265 32.6932 638.734 32.2614C639.204 31.822 639.765 31.6023 640.416 31.6023C641.075 31.6023 641.636 31.822 642.098 32.2614C642.568 32.6932 642.803 33.2197 642.803 33.8409C642.803 34.4545 642.568 34.9811 642.098 35.4205C641.636 35.8523 641.075 36.0682 640.416 36.0682ZM650.805 45.7727V56H646.692V38.5455H650.624V41.5114H650.828C651.23 40.5341 651.87 39.7576 652.749 39.1818C653.635 38.6061 654.73 38.3182 656.033 38.3182C657.237 38.3182 658.286 38.5758 659.18 39.0909C660.082 39.6061 660.779 40.3523 661.271 41.3295C661.771 42.3068 662.018 43.4924 662.01 44.8864V56H657.896V45.5227C657.896 44.3561 657.593 43.4432 656.987 42.7841C656.389 42.125 655.559 41.7955 654.499 41.7955C653.779 41.7955 653.139 41.9545 652.578 42.2727C652.025 42.5833 651.589 43.0341 651.271 43.625C650.961 44.2159 650.805 44.9318 650.805 45.7727ZM673.783 62.9091C672.305 62.9091 671.036 62.7083 669.976 62.3068C668.915 61.9129 668.063 61.3826 667.419 60.7159C666.775 60.0492 666.328 59.3106 666.078 58.5L669.783 57.6023C669.949 57.9432 670.192 58.2803 670.51 58.6136C670.828 58.9545 671.256 59.2348 671.794 59.4545C672.339 59.6818 673.025 59.7955 673.851 59.7955C675.018 59.7955 675.983 59.5114 676.749 58.9432C677.514 58.3826 677.896 57.4583 677.896 56.1705V52.8636H677.692C677.48 53.2879 677.169 53.7235 676.76 54.1705C676.358 54.6174 675.824 54.9924 675.158 55.2955C674.499 55.5985 673.669 55.75 672.669 55.75C671.328 55.75 670.112 55.4356 669.021 54.8068C667.938 54.1705 667.074 53.2235 666.43 51.9659C665.794 50.7008 665.476 49.1174 665.476 47.2159C665.476 45.2992 665.794 43.6818 666.43 42.3636C667.074 41.0379 667.942 40.0341 669.033 39.3523C670.124 38.6629 671.339 38.3182 672.68 38.3182C673.703 38.3182 674.544 38.4924 675.203 38.8409C675.87 39.1818 676.4 39.5947 676.794 40.0795C677.188 40.5568 677.487 41.0076 677.692 41.4318H677.919V38.5455H681.976V56.2841C681.976 57.7765 681.62 59.0114 680.908 59.9886C680.196 60.9659 679.222 61.697 677.987 62.1818C676.752 62.6667 675.351 62.9091 673.783 62.9091ZM673.817 52.5227C674.688 52.5227 675.43 52.3106 676.044 51.8864C676.658 51.4621 677.124 50.8523 677.442 50.0568C677.76 49.2614 677.919 48.3068 677.919 47.1932C677.919 46.0947 677.76 45.1326 677.442 44.3068C677.131 43.4811 676.669 42.8409 676.055 42.3864C675.449 41.9242 674.703 41.6932 673.817 41.6932C672.9 41.6932 672.135 41.9318 671.521 42.4091C670.908 42.8864 670.446 43.5417 670.135 44.375C669.824 45.2008 669.669 46.1402 669.669 47.1932C669.669 48.2614 669.824 49.197 670.135 50C670.453 50.7955 670.919 51.4167 671.533 51.8636C672.154 52.303 672.915 52.5227 673.817 52.5227ZM696.686 62.5455C696.125 62.5455 695.607 62.5 695.129 62.4091C694.66 62.3258 694.285 62.2273 694.004 62.1136L694.959 58.9091C695.557 59.0833 696.091 59.1667 696.561 59.1591C697.031 59.1515 697.444 59.0038 697.8 58.7159C698.163 58.4356 698.47 57.9659 698.72 57.3068L699.072 56.3636L692.743 38.5455H697.107L701.129 51.7273H701.311L705.345 38.5455H709.72L702.732 58.1136C702.406 59.0379 701.974 59.8295 701.436 60.4886C700.898 61.1553 700.239 61.6629 699.459 62.0114C698.686 62.3674 697.762 62.5455 696.686 62.5455ZM719.587 56.3409C717.882 56.3409 716.405 55.9659 715.155 55.2159C713.905 54.4659 712.935 53.4167 712.246 52.0682C711.564 50.7197 711.223 49.1439 711.223 47.3409C711.223 45.5379 711.564 43.9583 712.246 42.6023C712.935 41.2462 713.905 40.1932 715.155 39.4432C716.405 38.6932 717.882 38.3182 719.587 38.3182C721.291 38.3182 722.768 38.6932 724.018 39.4432C725.268 40.1932 726.234 41.2462 726.916 42.6023C727.606 43.9583 727.95 45.5379 727.95 47.3409C727.95 49.1439 727.606 50.7197 726.916 52.0682C726.234 53.4167 725.268 54.4659 724.018 55.2159C722.768 55.9659 721.291 56.3409 719.587 56.3409ZM719.609 53.0455C720.534 53.0455 721.306 52.7917 721.928 52.2841C722.549 51.7689 723.011 51.0795 723.314 50.2159C723.625 49.3523 723.78 48.3902 723.78 47.3295C723.78 46.2614 723.625 45.2955 723.314 44.4318C723.011 43.5606 722.549 42.8674 721.928 42.3523C721.306 41.8371 720.534 41.5795 719.609 41.5795C718.662 41.5795 717.875 41.8371 717.246 42.3523C716.625 42.8674 716.159 43.5606 715.848 44.4318C715.545 45.2955 715.393 46.2614 715.393 47.3295C715.393 48.3902 715.545 49.3523 715.848 50.2159C716.159 51.0795 716.625 51.7689 717.246 52.2841C717.875 52.7917 718.662 53.0455 719.609 53.0455ZM742.567 48.6591V38.5455H746.68V56H742.692V52.8977H742.51C742.116 53.875 741.468 54.6742 740.567 55.2955C739.673 55.9167 738.571 56.2273 737.26 56.2273C736.116 56.2273 735.105 55.9735 734.226 55.4659C733.355 54.9508 732.673 54.2045 732.18 53.2273C731.688 52.2424 731.442 51.053 731.442 49.6591V38.5455H735.555V49.0227C735.555 50.1288 735.858 51.0076 736.464 51.6591C737.071 52.3106 737.866 52.6364 738.851 52.6364C739.457 52.6364 740.044 52.4886 740.612 52.1932C741.18 51.8977 741.646 51.4583 742.01 50.875C742.381 50.2841 742.567 49.5455 742.567 48.6591ZM750.911 56V38.5455H754.899V41.4545H755.081C755.399 40.447 755.945 39.6705 756.717 39.125C757.498 38.572 758.388 38.2955 759.388 38.2955C759.615 38.2955 759.869 38.3068 760.149 38.3295C760.437 38.3447 760.676 38.3712 760.865 38.4091V42.1932C760.691 42.1326 760.414 42.0795 760.036 42.0341C759.664 41.9811 759.304 41.9545 758.956 41.9545C758.206 41.9545 757.532 42.1174 756.933 42.4432C756.342 42.7614 755.876 43.2045 755.536 43.7727C755.195 44.3409 755.024 44.9962 755.024 45.7386V56H750.911ZM771.717 56V32.7273H775.831V41.4318H776.001C776.214 41.0076 776.513 40.5568 776.899 40.0795C777.286 39.5947 777.808 39.1818 778.467 38.8409C779.126 38.4924 779.967 38.3182 780.99 38.3182C782.339 38.3182 783.554 38.6629 784.638 39.3523C785.729 40.0341 786.592 41.0455 787.229 42.3864C787.873 43.7197 788.195 45.3561 788.195 47.2955C788.195 49.2121 787.88 50.8409 787.251 52.1818C786.623 53.5227 785.767 54.5455 784.683 55.25C783.6 55.9545 782.373 56.3068 781.001 56.3068C780.001 56.3068 779.172 56.1402 778.513 55.8068C777.854 55.4735 777.323 55.072 776.922 54.6023C776.528 54.125 776.221 53.6742 776.001 53.25H775.763V56H771.717ZM775.751 47.2727C775.751 48.4015 775.911 49.3902 776.229 50.2386C776.554 51.0871 777.02 51.75 777.626 52.2273C778.24 52.697 778.982 52.9318 779.854 52.9318C780.763 52.9318 781.524 52.6894 782.138 52.2045C782.751 51.7121 783.214 51.0417 783.524 50.1932C783.842 49.3371 784.001 48.3636 784.001 47.2727C784.001 46.1894 783.846 45.2273 783.536 44.3864C783.225 43.5455 782.763 42.8864 782.149 42.4091C781.536 41.9318 780.77 41.6932 779.854 41.6932C778.975 41.6932 778.229 41.9242 777.615 42.3864C777.001 42.8485 776.536 43.4962 776.217 44.3295C775.907 45.1629 775.751 46.1439 775.751 47.2727ZM802.817 48.6591V38.5455H806.93V56H802.942V52.8977H802.76C802.366 53.875 801.718 54.6742 800.817 55.2955C799.923 55.9167 798.821 56.2273 797.51 56.2273C796.366 56.2273 795.355 55.9735 794.476 55.4659C793.605 54.9508 792.923 54.2045 792.43 53.2273C791.938 52.2424 791.692 51.053 791.692 49.6591V38.5455H795.805V49.0227C795.805 50.1288 796.108 51.0076 796.714 51.6591C797.321 52.3106 798.116 52.6364 799.101 52.6364C799.707 52.6364 800.294 52.4886 800.862 52.1932C801.43 51.8977 801.896 51.4583 802.26 50.875C802.631 50.2841 802.817 49.5455 802.817 48.6591ZM824.956 43.1591L821.206 43.5682C821.1 43.1894 820.914 42.8333 820.649 42.5C820.392 42.1667 820.043 41.8977 819.604 41.6932C819.164 41.4886 818.626 41.3864 817.99 41.3864C817.134 41.3864 816.414 41.572 815.831 41.9432C815.255 42.3144 814.971 42.7955 814.979 43.3864C814.971 43.8939 815.157 44.3068 815.536 44.625C815.922 44.9432 816.558 45.2045 817.445 45.4091L820.422 46.0455C822.073 46.4015 823.301 46.9659 824.104 47.7386C824.914 48.5114 825.323 49.5227 825.331 50.7727C825.323 51.8712 825.001 52.8409 824.365 53.6818C823.736 54.5152 822.861 55.1667 821.74 55.6364C820.619 56.1061 819.331 56.3409 817.876 56.3409C815.74 56.3409 814.02 55.8939 812.717 55C811.414 54.0985 810.638 52.8447 810.388 51.2386L814.399 50.8523C814.581 51.6402 814.967 52.2348 815.558 52.6364C816.149 53.0379 816.918 53.2386 817.865 53.2386C818.842 53.2386 819.626 53.0379 820.217 52.6364C820.816 52.2348 821.115 51.7386 821.115 51.1477C821.115 50.6477 820.922 50.2348 820.536 49.9091C820.157 49.5833 819.566 49.3333 818.763 49.1591L815.786 48.5341C814.111 48.1856 812.873 47.5985 812.07 46.7727C811.267 45.9394 810.869 44.8864 810.876 43.6136C810.869 42.5379 811.161 41.6061 811.751 40.8182C812.35 40.0227 813.179 39.4091 814.24 38.9773C815.308 38.5379 816.539 38.3182 817.933 38.3182C819.979 38.3182 821.589 38.7538 822.763 39.625C823.945 40.4962 824.676 41.6742 824.956 43.1591ZM828.723 56V38.5455H832.837V56H828.723ZM830.791 36.0682C830.14 36.0682 829.579 35.8523 829.109 35.4205C828.64 34.9811 828.405 34.4545 828.405 33.8409C828.405 33.2197 828.64 32.6932 829.109 32.2614C829.579 31.822 830.14 31.6023 830.791 31.6023C831.45 31.6023 832.011 31.822 832.473 32.2614C832.943 32.6932 833.178 33.2197 833.178 33.8409C833.178 34.4545 832.943 34.9811 832.473 35.4205C832.011 35.8523 831.45 36.0682 830.791 36.0682ZM841.18 45.7727V56H837.067V38.5455H840.999V41.5114H841.203C841.605 40.5341 842.245 39.7576 843.124 39.1818C844.01 38.6061 845.105 38.3182 846.408 38.3182C847.612 38.3182 848.661 38.5758 849.555 39.0909C850.457 39.6061 851.154 40.3523 851.646 41.3295C852.146 42.3068 852.393 43.4924 852.385 44.8864V56H848.271V45.5227C848.271 44.3561 847.968 43.4432 847.362 42.7841C846.764 42.125 845.934 41.7955 844.874 41.7955C844.154 41.7955 843.514 41.9545 842.953 42.2727C842.4 42.5833 841.964 43.0341 841.646 43.625C841.336 44.2159 841.18 44.9318 841.18 45.7727ZM864.294 56.3409C862.544 56.3409 861.033 55.9773 859.76 55.25C858.495 54.5152 857.521 53.4773 856.839 52.1364C856.158 50.7879 855.817 49.2008 855.817 47.375C855.817 45.5795 856.158 44.0038 856.839 42.6477C857.529 41.2841 858.491 40.2235 859.726 39.4659C860.961 38.7008 862.411 38.3182 864.078 38.3182C865.154 38.3182 866.169 38.4924 867.124 38.8409C868.086 39.1818 868.934 39.7121 869.669 40.4318C870.411 41.1515 870.995 42.0682 871.419 43.1818C871.843 44.2879 872.055 45.6061 872.055 47.1364V48.3977H857.749V45.625H868.112C868.105 44.8371 867.934 44.1364 867.601 43.5227C867.268 42.9015 866.802 42.4129 866.203 42.0568C865.612 41.7008 864.923 41.5227 864.135 41.5227C863.294 41.5227 862.555 41.7273 861.919 42.1364C861.283 42.5379 860.786 43.0682 860.43 43.7273C860.082 44.3788 859.904 45.0947 859.896 45.875V48.2955C859.896 49.3106 860.082 50.1818 860.453 50.9091C860.824 51.6288 861.343 52.1818 862.01 52.5682C862.677 52.947 863.457 53.1364 864.351 53.1364C864.949 53.1364 865.491 53.053 865.976 52.8864C866.461 52.7121 866.881 52.4583 867.237 52.125C867.593 51.7917 867.862 51.3788 868.044 50.8864L871.885 51.3182C871.643 52.3333 871.18 53.2197 870.499 53.9773C869.824 54.7273 868.961 55.3106 867.908 55.7273C866.855 56.1364 865.65 56.3409 864.294 56.3409ZM889.331 43.1591L885.581 43.5682C885.475 43.1894 885.289 42.8333 885.024 42.5C884.767 42.1667 884.418 41.8977 883.979 41.6932C883.539 41.4886 883.001 41.3864 882.365 41.3864C881.509 41.3864 880.789 41.572 880.206 41.9432C879.63 42.3144 879.346 42.7955 879.354 43.3864C879.346 43.8939 879.532 44.3068 879.911 44.625C880.297 44.9432 880.933 45.2045 881.82 45.4091L884.797 46.0455C886.448 46.4015 887.676 46.9659 888.479 47.7386C889.289 48.5114 889.698 49.5227 889.706 50.7727C889.698 51.8712 889.376 52.8409 888.74 53.6818C888.111 54.5152 887.236 55.1667 886.115 55.6364C884.994 56.1061 883.706 56.3409 882.251 56.3409C880.115 56.3409 878.395 55.8939 877.092 55C875.789 54.0985 875.013 52.8447 874.763 51.2386L878.774 50.8523C878.956 51.6402 879.342 52.2348 879.933 52.6364C880.524 53.0379 881.293 53.2386 882.24 53.2386C883.217 53.2386 884.001 53.0379 884.592 52.6364C885.191 52.2348 885.49 51.7386 885.49 51.1477C885.49 50.6477 885.297 50.2348 884.911 49.9091C884.532 49.5833 883.941 49.3333 883.138 49.1591L880.161 48.5341C878.486 48.1856 877.248 47.5985 876.445 46.7727C875.642 45.9394 875.244 44.8864 875.251 43.6136C875.244 42.5379 875.536 41.6061 876.126 40.8182C876.725 40.0227 877.554 39.4091 878.615 38.9773C879.683 38.5379 880.914 38.3182 882.308 38.3182C884.354 38.3182 885.964 38.7538 887.138 39.625C888.32 40.4962 889.051 41.6742 889.331 43.1591ZM906.893 43.1591L903.143 43.5682C903.037 43.1894 902.852 42.8333 902.587 42.5C902.329 42.1667 901.981 41.8977 901.541 41.6932C901.102 41.4886 900.564 41.3864 899.928 41.3864C899.071 41.3864 898.352 41.572 897.768 41.9432C897.193 42.3144 896.909 42.7955 896.916 43.3864C896.909 43.8939 897.094 44.3068 897.473 44.625C897.859 44.9432 898.496 45.2045 899.382 45.4091L902.359 46.0455C904.011 46.4015 905.238 46.9659 906.041 47.7386C906.852 48.5114 907.261 49.5227 907.268 50.7727C907.261 51.8712 906.939 52.8409 906.303 53.6818C905.674 54.5152 904.799 55.1667 903.678 55.6364C902.556 56.1061 901.268 56.3409 899.814 56.3409C897.678 56.3409 895.958 55.8939 894.655 55C893.352 54.0985 892.575 52.8447 892.325 51.2386L896.337 50.8523C896.518 51.6402 896.905 52.2348 897.496 52.6364C898.087 53.0379 898.856 53.2386 899.803 53.2386C900.78 53.2386 901.564 53.0379 902.155 52.6364C902.753 52.2348 903.053 51.7386 903.053 51.1477C903.053 50.6477 902.859 50.2348 902.473 49.9091C902.094 49.5833 901.503 49.3333 900.7 49.1591L897.723 48.5341C896.049 48.1856 894.81 47.5985 894.007 46.7727C893.204 45.9394 892.806 44.8864 892.814 43.6136C892.806 42.5379 893.098 41.6061 893.689 40.8182C894.287 40.0227 895.117 39.4091 896.178 38.9773C897.246 38.5379 898.477 38.3182 899.871 38.3182C901.916 38.3182 903.526 38.7538 904.7 39.625C905.882 40.4962 906.613 41.6742 906.893 43.1591Z" fill="white"/>
</g>
<defs>
<filter id="filter0_b_150_920" x="-100" y="-100" width="1480" height="534" filterUnits="userSpaceOnUse" color-interpolation-filters="sRGB">
<feFlood flood-opacity="0" result="BackgroundImageFix"/>
<feGaussianBlur in="BackgroundImageFix" stdDeviation="50"/>
<feComposite in2="SourceAlpha" operator="in" result="effect1_backgroundBlur_150_920"/>
<feBlend mode="normal" in="SourceGraphic" in2="effect1_backgroundBlur_150_920" result="shape"/>
</filter>
<linearGradient id="paint0_linear_150_920" x1="1280" y1="334" x2="230.908" y2="-352.743" gradientUnits="userSpaceOnUse">
<stop stop-color="#00796D"/>
<stop offset="1" stop-color="#38C682"/>
</linearGradient>
<linearGradient id="paint1_linear_150_920" x1="1282.46" y1="314.914" x2="199.393" y2="-333.205" gradientUnits="userSpaceOnUse">
<stop stop-color="#00796D"/>
<stop offset="1" stop-color="#38C682"/>
</linearGradient>
<linearGradient id="paint2_linear_150_920" x1="92" y1="232" x2="92" y2="-132" gradientUnits="userSpaceOnUse">
<stop stop-color="white"/>
<stop offset="1" stop-color="white" stop-opacity="0"/>
</linearGradient>
<linearGradient id="paint3_linear_150_920" x1="151" y1="170.505" x2="259" y2="170.505" gradientUnits="userSpaceOnUse">
<stop stop-color="white"/>
<stop offset="1" stop-color="white" stop-opacity="0"/>
</linearGradient>
<linearGradient id="paint4_linear_150_920" x1="249" y1="215" x2="148.889" y2="197.9" gradientUnits="userSpaceOnUse">
<stop stop-color="#00796D"/>
<stop offset="1" stop-color="#38C682"/>
</linearGradient>
<linearGradient id="paint5_linear_150_920" x1="226.645" y1="192.667" x2="177.372" y2="184.254" gradientUnits="userSpaceOnUse">
<stop stop-color="#00796D"/>
<stop offset="1" stop-color="#38C682"/>
</linearGradient>
<linearGradient id="paint6_linear_150_920" x1="441" y1="170.505" x2="549" y2="170.505" gradientUnits="userSpaceOnUse">
<stop stop-color="white"/>
<stop offset="1" stop-color="white" stop-opacity="0"/>
</linearGradient>
<linearGradient id="paint7_linear_150_920" x1="539" y1="215" x2="438.889" y2="197.9" gradientUnits="userSpaceOnUse">
<stop stop-color="#00796D"/>
<stop offset="1" stop-color="#38C682"/>
</linearGradient>
<linearGradient id="paint8_linear_150_920" x1="516.147" y1="192.667" x2="467.969" y2="184.632" gradientUnits="userSpaceOnUse">
<stop stop-color="#00796D"/>
<stop offset="1" stop-color="#38C682"/>
</linearGradient>
<linearGradient id="paint9_linear_150_920" x1="516.147" y1="192.667" x2="467.969" y2="184.632" gradientUnits="userSpaceOnUse">
<stop stop-color="#00796D"/>
<stop offset="1" stop-color="#38C682"/>
</linearGradient>
<linearGradient id="paint10_linear_150_920" x1="516.147" y1="192.667" x2="467.969" y2="184.632" gradientUnits="userSpaceOnUse">
<stop stop-color="#00796D"/>
<stop offset="1" stop-color="#38C682"/>
</linearGradient>
<linearGradient id="paint11_linear_150_920" x1="516.147" y1="192.667" x2="467.969" y2="184.632" gradientUnits="userSpaceOnUse">
<stop stop-color="#00796D"/>
<stop offset="1" stop-color="#38C682"/>
</linearGradient>
<linearGradient id="paint12_linear_150_920" x1="516.147" y1="192.667" x2="467.969" y2="184.632" gradientUnits="userSpaceOnUse">
<stop stop-color="#00796D"/>
<stop offset="1" stop-color="#38C682"/>
</linearGradient>
<linearGradient id="paint13_linear_150_920" x1="731" y1="170.505" x2="839" y2="170.505" gradientUnits="userSpaceOnUse">
<stop stop-color="white"/>
<stop offset="1" stop-color="white" stop-opacity="0"/>
</linearGradient>
<linearGradient id="paint14_linear_150_920" x1="829" y1="215" x2="728.889" y2="197.9" gradientUnits="userSpaceOnUse">
<stop stop-color="#00796D"/>
<stop offset="1" stop-color="#38C682"/>
</linearGradient>
<linearGradient id="paint15_linear_150_920" x1="806.732" y1="192.499" x2="757.282" y2="183.989" gradientUnits="userSpaceOnUse">
<stop stop-color="#00796D"/>
<stop offset="1" stop-color="#38C682"/>
</linearGradient>
<linearGradient id="paint16_linear_150_920" x1="806.732" y1="192.499" x2="757.282" y2="183.989" gradientUnits="userSpaceOnUse">
<stop stop-color="#00796D"/>
<stop offset="1" stop-color="#38C682"/>
</linearGradient>
<linearGradient id="paint17_linear_150_920" x1="1021" y1="170.505" x2="1129" y2="170.505" gradientUnits="userSpaceOnUse">
<stop stop-color="white"/>
<stop offset="1" stop-color="white" stop-opacity="0"/>
</linearGradient>
<linearGradient id="paint18_linear_150_920" x1="1119" y1="215" x2="1018.89" y2="197.9" gradientUnits="userSpaceOnUse">
<stop stop-color="#00796D"/>
<stop offset="1" stop-color="#38C682"/>
</linearGradient>
<linearGradient id="paint19_linear_150_920" x1="1096.67" y1="192.667" x2="1047.28" y2="184.213" gradientUnits="userSpaceOnUse">
<stop stop-color="#00796D"/>
<stop offset="1" stop-color="#38C682"/>
</linearGradient>
<linearGradient id="paint20_linear_150_920" x1="1096.67" y1="192.667" x2="1047.28" y2="184.213" gradientUnits="userSpaceOnUse">
<stop stop-color="#00796D"/>
<stop offset="1" stop-color="#38C682"/>
</linearGradient>
<linearGradient id="paint21_linear_150_920" x1="1096.67" y1="192.667" x2="1047.28" y2="184.213" gradientUnits="userSpaceOnUse">
<stop stop-color="#00796D"/>
<stop offset="1" stop-color="#38C682"/>
</linearGradient>
<linearGradient id="paint22_linear_150_920" x1="1096.67" y1="192.667" x2="1047.28" y2="184.213" gradientUnits="userSpaceOnUse">
<stop stop-color="#00796D"/>
<stop offset="1" stop-color="#38C682"/>
</linearGradient>
</defs>
</svg>
