<svg width="327" height="347" viewBox="0 0 327 347" fill="none" xmlns="http://www.w3.org/2000/svg">
<mask id="mask0_169_1308" style="mask-type:alpha" maskUnits="userSpaceOnUse" x="0" y="0" width="327" height="347">
<path fill-rule="evenodd" clip-rule="evenodd" d="M288 16C288 7.16344 280.837 0 272 0H55C46.1634 0 39 7.16344 39 16V20C39 28.8366 31.8366 36 23 36H16C7.16344 36 0 43.1635 0 52V331C0 339.837 7.16345 347 16 347H311C319.837 347 327 339.837 327 331V52C327 43.1634 319.837 36 311 36H304C295.163 36 288 28.8366 288 20V16Z" fill="url(#paint0_linear_169_1308)"/>
</mask>
<g mask="url(#mask0_169_1308)">
<g opacity="0.8" filter="url(#filter0_b_169_1308)">
<path fill-rule="evenodd" clip-rule="evenodd" d="M288 16C288 7.16344 280.837 0 272 0H55C46.1634 0 39 7.16344 39 16V21C39 29.8366 31.8366 37 23 37H16C7.16344 37 0 44.1634 0 53V331C0 339.837 7.16345 347 16 347H311C319.837 347 327 339.837 327 331V53C327 44.1634 319.837 37 311 37H304C295.163 37 288 29.8366 288 21V16Z" fill="url(#paint1_linear_169_1308)"/>
</g>
<path opacity="0.15" d="M274 50C274 -50.5158 192.516 -132 92 -132C-8.51582 -132 -90 -50.5158 -90 50C-90 150.516 -8.51582 232 92 232C192.516 232 274 150.516 274 50ZM-4.72192 50C-4.72192 -3.41805 38.582 -46.7219 92 -46.7219C145.418 -46.7219 188.722 -3.41805 188.722 50C188.722 103.418 145.418 146.722 92 146.722C38.582 146.722 -4.72192 103.418 -4.72192 50Z" fill="url(#paint2_linear_169_1308)"/>
<rect x="110" y="110" width="108" height="108" rx="54" fill="url(#paint3_linear_169_1308)"/>
<rect x="121" y="121" width="86" height="86" rx="43" fill="white"/>
<rect x="121" y="121" width="86" height="86" rx="43" stroke="url(#paint4_linear_169_1308)" stroke-width="2"/>
<path d="M173.078 142.333H154.922C147.035 142.333 142.333 147.035 142.333 154.922V173.057C142.333 180.965 147.035 185.667 154.922 185.667H173.057C180.943 185.667 185.645 180.965 185.645 173.078V154.922C185.667 147.035 180.965 142.333 173.078 142.333ZM162.982 167.315L154.922 175.375H159.667C160.555 175.375 161.292 176.112 161.292 177C161.292 177.888 160.555 178.625 159.667 178.625H151C150.783 178.625 150.567 178.582 150.372 178.495C149.982 178.322 149.657 178.018 149.483 177.607C149.418 177.412 149.375 177.217 149.375 177V168.333C149.375 167.445 150.112 166.708 151 166.708C151.888 166.708 152.625 167.445 152.625 168.333V173.078L160.685 165.018C161.313 164.39 162.353 164.39 162.982 165.018C163.61 165.647 163.61 166.687 162.982 167.315ZM178.625 159.667C178.625 160.555 177.888 161.292 177 161.292C176.112 161.292 175.375 160.555 175.375 159.667V154.922L167.315 162.982C166.99 163.307 166.578 163.458 166.167 163.458C165.755 163.458 165.343 163.307 165.018 162.982C164.39 162.353 164.39 161.313 165.018 160.685L173.078 152.625H168.333C167.445 152.625 166.708 151.888 166.708 151C166.708 150.112 167.445 149.375 168.333 149.375H177C177.217 149.375 177.412 149.418 177.628 149.505C178.019 149.678 178.343 149.982 178.517 150.393C178.582 150.588 178.625 150.783 178.625 151V159.667Z" fill="url(#paint5_linear_169_1308)"/>
<path d="M40.2457 253V235.545H51.1889V237.812H42.8793V243.131H50.6179V245.389H42.8793V250.733H51.2912V253H40.2457ZM56.5135 239.909L59.4027 245.006L62.3175 239.909H65.1044L61.022 246.455L65.1385 253H62.3516L59.4027 248.108L56.4624 253H53.6669L57.7408 246.455L53.718 239.909H56.5135ZM67.7209 257.909V239.909H70.2095V242.031H70.4226C70.5703 241.759 70.7834 241.443 71.0618 241.085C71.3402 240.727 71.7266 240.415 72.2209 240.148C72.7152 239.875 73.3686 239.739 74.1811 239.739C75.2379 239.739 76.1811 240.006 77.0107 240.54C77.8402 241.074 78.4908 241.844 78.9624 242.849C79.4396 243.855 79.6783 245.065 79.6783 246.48C79.6783 247.895 79.4425 249.108 78.9709 250.119C78.4993 251.125 77.8516 251.901 77.0277 252.446C76.2038 252.986 75.2635 253.256 74.2067 253.256C73.4112 253.256 72.7607 253.122 72.255 252.855C71.755 252.588 71.3629 252.276 71.0788 251.918C70.7947 251.56 70.576 251.241 70.4226 250.963H70.2692V257.909H67.7209ZM70.218 246.455C70.218 247.375 70.3516 248.182 70.6186 248.875C70.8857 249.568 71.272 250.111 71.7777 250.503C72.2834 250.889 72.9027 251.082 73.6357 251.082C74.397 251.082 75.0334 250.881 75.5447 250.477C76.0561 250.068 76.4425 249.514 76.7038 248.815C76.9709 248.116 77.1044 247.33 77.1044 246.455C77.1044 245.591 76.9737 244.815 76.7124 244.128C76.4567 243.44 76.0703 242.898 75.5533 242.5C75.0419 242.102 74.4027 241.903 73.6357 241.903C72.897 241.903 72.272 242.094 71.7607 242.474C71.255 242.855 70.8714 243.386 70.6101 244.068C70.3487 244.75 70.218 245.545 70.218 246.455ZM86.343 253.29C85.5135 253.29 84.7635 253.136 84.093 252.83C83.4226 252.517 82.8913 252.065 82.4993 251.474C82.1129 250.884 81.9197 250.159 81.9197 249.301C81.9197 248.562 82.0618 247.955 82.3459 247.477C82.63 247 83.0135 246.622 83.4964 246.344C83.9794 246.065 84.5192 245.855 85.1158 245.713C85.7124 245.571 86.3203 245.463 86.9396 245.389C87.7237 245.298 88.3601 245.224 88.8487 245.168C89.3374 245.105 89.6925 245.006 89.9141 244.869C90.1357 244.733 90.2464 244.511 90.2464 244.205V244.145C90.2464 243.401 90.0362 242.824 89.6158 242.415C89.201 242.006 88.5817 241.801 87.7578 241.801C86.8999 241.801 86.2237 241.991 85.7294 242.372C85.2408 242.747 84.9027 243.165 84.7152 243.625L82.3203 243.08C82.6044 242.284 83.0192 241.642 83.5646 241.153C84.1158 240.659 84.7493 240.301 85.4652 240.08C86.1811 239.852 86.9339 239.739 87.7237 239.739C88.2464 239.739 88.8004 239.801 89.3857 239.926C89.9766 240.045 90.5277 240.267 91.0391 240.591C91.5561 240.915 91.9794 241.378 92.3089 241.98C92.6385 242.577 92.8033 243.352 92.8033 244.307V253H90.3146V251.21H90.2124C90.0476 251.54 89.8004 251.864 89.4709 252.182C89.1413 252.5 88.718 252.764 88.201 252.974C87.6839 253.185 87.0646 253.29 86.343 253.29ZM86.897 251.244C87.6016 251.244 88.2038 251.105 88.7038 250.827C89.2095 250.548 89.593 250.185 89.8544 249.736C90.1214 249.281 90.255 248.795 90.255 248.278V246.591C90.1641 246.682 89.9879 246.767 89.7266 246.847C89.4709 246.92 89.1783 246.986 88.8487 247.043C88.5192 247.094 88.1982 247.142 87.8857 247.188C87.5732 247.227 87.3118 247.261 87.1016 247.29C86.6072 247.352 86.1555 247.457 85.7464 247.605C85.343 247.753 85.0192 247.966 84.7749 248.244C84.5362 248.517 84.4169 248.881 84.4169 249.335C84.4169 249.966 84.6499 250.443 85.1158 250.767C85.5817 251.085 86.1754 251.244 86.897 251.244ZM98.7457 245.227V253H96.1974V239.909H98.6435V242.04H98.8054C99.1065 241.347 99.5781 240.79 100.22 240.369C100.868 239.949 101.683 239.739 102.666 239.739C103.558 239.739 104.339 239.926 105.01 240.301C105.68 240.67 106.2 241.222 106.57 241.955C106.939 242.687 107.124 243.594 107.124 244.673V253H104.575V244.98C104.575 244.031 104.328 243.29 103.834 242.756C103.339 242.216 102.661 241.946 101.797 241.946C101.206 241.946 100.68 242.074 100.22 242.33C99.7656 242.585 99.4048 242.96 99.1378 243.455C98.8764 243.943 98.7457 244.534 98.7457 245.227ZM115.442 253.256C114.385 253.256 113.442 252.986 112.612 252.446C111.788 251.901 111.141 251.125 110.669 250.119C110.203 249.108 109.97 247.895 109.97 246.48C109.97 245.065 110.206 243.855 110.678 242.849C111.155 241.844 111.808 241.074 112.638 240.54C113.467 240.006 114.408 239.739 115.459 239.739C116.271 239.739 116.925 239.875 117.419 240.148C117.919 240.415 118.305 240.727 118.578 241.085C118.857 241.443 119.072 241.759 119.226 242.031H119.379V235.545H121.928V253H119.439V250.963H119.226C119.072 251.241 118.851 251.56 118.561 251.918C118.277 252.276 117.885 252.588 117.385 252.855C116.885 253.122 116.237 253.256 115.442 253.256ZM116.004 251.082C116.737 251.082 117.357 250.889 117.862 250.503C118.374 250.111 118.76 249.568 119.021 248.875C119.288 248.182 119.422 247.375 119.422 246.455C119.422 245.545 119.291 244.75 119.03 244.068C118.768 243.386 118.385 242.855 117.879 242.474C117.374 242.094 116.749 241.903 116.004 241.903C115.237 241.903 114.598 242.102 114.087 242.5C113.575 242.898 113.189 243.44 112.928 244.128C112.672 244.815 112.544 245.591 112.544 246.455C112.544 247.33 112.675 248.116 112.936 248.815C113.197 249.514 113.584 250.068 114.095 250.477C114.612 250.881 115.249 251.082 116.004 251.082ZM125.565 253V239.909H128.113V253H125.565ZM126.852 237.889C126.408 237.889 126.028 237.741 125.71 237.446C125.397 237.145 125.241 236.787 125.241 236.372C125.241 235.952 125.397 235.594 125.71 235.298C126.028 234.997 126.408 234.847 126.852 234.847C127.295 234.847 127.673 234.997 127.985 235.298C128.303 235.594 128.462 235.952 128.462 236.372C128.462 236.787 128.303 237.145 127.985 237.446C127.673 237.741 127.295 237.889 126.852 237.889ZM134.089 245.227V253H131.541V239.909H133.987V242.04H134.149C134.45 241.347 134.922 240.79 135.564 240.369C136.212 239.949 137.027 239.739 138.01 239.739C138.902 239.739 139.683 239.926 140.354 240.301C141.024 240.67 141.544 241.222 141.913 241.955C142.283 242.687 142.467 243.594 142.467 244.673V253H139.919V244.98C139.919 244.031 139.672 243.29 139.178 242.756C138.683 242.216 138.004 241.946 137.141 241.946C136.55 241.946 136.024 242.074 135.564 242.33C135.109 242.585 134.749 242.96 134.482 243.455C134.22 243.943 134.089 244.534 134.089 245.227ZM151.374 258.182C150.334 258.182 149.439 258.045 148.689 257.773C147.945 257.5 147.337 257.139 146.865 256.69C146.393 256.241 146.041 255.75 145.808 255.216L147.999 254.312C148.152 254.562 148.357 254.827 148.612 255.105C148.874 255.389 149.226 255.631 149.669 255.83C150.118 256.028 150.695 256.128 151.399 256.128C152.365 256.128 153.163 255.892 153.794 255.42C154.425 254.955 154.74 254.21 154.74 253.188V250.614H154.578C154.425 250.892 154.203 251.202 153.913 251.543C153.629 251.884 153.237 252.179 152.737 252.429C152.237 252.679 151.587 252.804 150.786 252.804C149.751 252.804 148.82 252.562 147.99 252.08C147.166 251.591 146.513 250.872 146.03 249.923C145.553 248.969 145.314 247.795 145.314 246.403C145.314 245.011 145.55 243.818 146.021 242.824C146.499 241.83 147.152 241.068 147.982 240.54C148.811 240.006 149.751 239.739 150.803 239.739C151.615 239.739 152.271 239.875 152.771 240.148C153.271 240.415 153.661 240.727 153.939 241.085C154.223 241.443 154.442 241.759 154.595 242.031H154.783V239.909H157.28V253.29C157.28 254.415 157.018 255.338 156.496 256.06C155.973 256.781 155.266 257.315 154.374 257.662C153.487 258.009 152.487 258.182 151.374 258.182ZM151.348 250.69C152.081 250.69 152.7 250.52 153.206 250.179C153.717 249.832 154.104 249.338 154.365 248.696C154.632 248.048 154.766 247.273 154.766 246.369C154.766 245.489 154.635 244.713 154.374 244.043C154.112 243.372 153.729 242.849 153.223 242.474C152.717 242.094 152.092 241.903 151.348 241.903C150.581 241.903 149.942 242.102 149.43 242.5C148.919 242.892 148.533 243.426 148.271 244.102C148.016 244.778 147.888 245.534 147.888 246.369C147.888 247.227 148.018 247.98 148.28 248.628C148.541 249.276 148.928 249.781 149.439 250.145C149.956 250.509 150.592 250.69 151.348 250.69ZM173.16 239.909V241.955H166.009V239.909H173.16ZM167.927 236.773H170.475V249.156C170.475 249.651 170.549 250.023 170.697 250.273C170.844 250.517 171.035 250.685 171.268 250.776C171.506 250.861 171.765 250.903 172.043 250.903C172.248 250.903 172.427 250.889 172.58 250.861C172.734 250.832 172.853 250.81 172.938 250.793L173.398 252.898C173.251 252.955 173.04 253.011 172.768 253.068C172.495 253.131 172.154 253.165 171.745 253.17C171.075 253.182 170.45 253.062 169.87 252.812C169.29 252.562 168.822 252.176 168.464 251.653C168.106 251.131 167.927 250.474 167.927 249.685V236.773ZM178.808 245.227V253H176.26V235.545H178.774V242.04H178.936C179.243 241.335 179.712 240.776 180.342 240.361C180.973 239.946 181.797 239.739 182.814 239.739C183.712 239.739 184.496 239.923 185.166 240.293C185.842 240.662 186.365 241.213 186.734 241.946C187.109 242.673 187.297 243.582 187.297 244.673V253H184.749V244.98C184.749 244.02 184.501 243.276 184.007 242.747C183.513 242.213 182.825 241.946 181.945 241.946C181.342 241.946 180.803 242.074 180.325 242.33C179.854 242.585 179.482 242.96 179.209 243.455C178.942 243.943 178.808 244.534 178.808 245.227ZM196.339 253.264C195.05 253.264 193.939 252.989 193.007 252.438C192.081 251.881 191.365 251.099 190.859 250.094C190.359 249.082 190.109 247.898 190.109 246.54C190.109 245.199 190.359 244.017 190.859 242.994C191.365 241.972 192.07 241.173 192.973 240.599C193.882 240.026 194.945 239.739 196.161 239.739C196.899 239.739 197.615 239.861 198.308 240.105C199.001 240.349 199.624 240.733 200.175 241.256C200.726 241.778 201.161 242.457 201.479 243.293C201.797 244.122 201.956 245.131 201.956 246.318V247.222H191.55V245.312H199.459C199.459 244.642 199.322 244.048 199.05 243.531C198.777 243.009 198.393 242.597 197.899 242.295C197.411 241.994 196.837 241.844 196.178 241.844C195.462 241.844 194.837 242.02 194.303 242.372C193.774 242.719 193.365 243.173 193.075 243.736C192.791 244.293 192.649 244.898 192.649 245.551V247.043C192.649 247.918 192.803 248.662 193.109 249.276C193.422 249.889 193.857 250.358 194.413 250.682C194.97 251 195.621 251.159 196.365 251.159C196.848 251.159 197.288 251.091 197.686 250.955C198.084 250.812 198.428 250.602 198.717 250.324C199.007 250.045 199.229 249.702 199.382 249.293L201.794 249.727C201.601 250.437 201.254 251.06 200.754 251.594C200.26 252.122 199.638 252.534 198.888 252.83C198.143 253.119 197.294 253.264 196.339 253.264ZM211.339 235.545H214.536L220.092 249.114H220.297L225.854 235.545H229.05V253H226.544V240.369H226.382L221.234 252.974H219.155L214.007 240.361H213.845V253H211.339V235.545ZM236.484 253.29C235.654 253.29 234.904 253.136 234.234 252.83C233.563 252.517 233.032 252.065 232.64 251.474C232.254 250.884 232.06 250.159 232.06 249.301C232.06 248.562 232.202 247.955 232.487 247.477C232.771 247 233.154 246.622 233.637 246.344C234.12 246.065 234.66 245.855 235.256 245.713C235.853 245.571 236.461 245.463 237.08 245.389C237.864 245.298 238.501 245.224 238.989 245.168C239.478 245.105 239.833 245.006 240.055 244.869C240.276 244.733 240.387 244.511 240.387 244.205V244.145C240.387 243.401 240.177 242.824 239.756 242.415C239.342 242.006 238.722 241.801 237.898 241.801C237.04 241.801 236.364 241.991 235.87 242.372C235.381 242.747 235.043 243.165 234.856 243.625L232.461 243.08C232.745 242.284 233.16 241.642 233.705 241.153C234.256 240.659 234.89 240.301 235.606 240.08C236.322 239.852 237.075 239.739 237.864 239.739C238.387 239.739 238.941 239.801 239.526 239.926C240.117 240.045 240.668 240.267 241.18 240.591C241.697 240.915 242.12 241.378 242.45 241.98C242.779 242.577 242.944 243.352 242.944 244.307V253H240.455V251.21H240.353C240.188 251.54 239.941 251.864 239.612 252.182C239.282 252.5 238.859 252.764 238.342 252.974C237.825 253.185 237.205 253.29 236.484 253.29ZM237.038 251.244C237.742 251.244 238.344 251.105 238.844 250.827C239.35 250.548 239.734 250.185 239.995 249.736C240.262 249.281 240.396 248.795 240.396 248.278V246.591C240.305 246.682 240.129 246.767 239.867 246.847C239.612 246.92 239.319 246.986 238.989 247.043C238.66 247.094 238.339 247.142 238.026 247.188C237.714 247.227 237.452 247.261 237.242 247.29C236.748 247.352 236.296 247.457 235.887 247.605C235.484 247.753 235.16 247.966 234.915 248.244C234.677 248.517 234.558 248.881 234.558 249.335C234.558 249.966 234.79 250.443 235.256 250.767C235.722 251.085 236.316 251.244 237.038 251.244ZM246.338 253V239.909H248.801V241.989H248.938C249.176 241.284 249.597 240.73 250.199 240.327C250.807 239.918 251.494 239.713 252.261 239.713C252.42 239.713 252.608 239.719 252.824 239.73C253.045 239.741 253.219 239.756 253.344 239.773V242.21C253.241 242.182 253.06 242.151 252.798 242.116C252.537 242.077 252.276 242.057 252.014 242.057C251.412 242.057 250.875 242.185 250.403 242.44C249.938 242.69 249.568 243.04 249.295 243.489C249.023 243.932 248.886 244.437 248.886 245.006V253H246.338ZM257.893 248.56L257.876 245.449H258.319L263.535 239.909H266.586L260.637 246.216H260.237L257.893 248.56ZM255.549 253V235.545H258.097V253H255.549ZM263.816 253L259.129 246.778L260.884 244.997L266.944 253H263.816ZM274.011 253.264C272.722 253.264 271.611 252.989 270.679 252.438C269.753 251.881 269.037 251.099 268.531 250.094C268.031 249.082 267.781 247.898 267.781 246.54C267.781 245.199 268.031 244.017 268.531 242.994C269.037 241.972 269.741 241.173 270.645 240.599C271.554 240.026 272.616 239.739 273.832 239.739C274.571 239.739 275.287 239.861 275.98 240.105C276.673 240.349 277.295 240.733 277.847 241.256C278.398 241.778 278.832 242.457 279.151 243.293C279.469 244.122 279.628 245.131 279.628 246.318V247.222H269.222V245.312H277.131C277.131 244.642 276.994 244.048 276.722 243.531C276.449 243.009 276.065 242.597 275.571 242.295C275.082 241.994 274.509 241.844 273.849 241.844C273.134 241.844 272.509 242.02 271.974 242.372C271.446 242.719 271.037 243.173 270.747 243.736C270.463 244.293 270.321 244.898 270.321 245.551V247.043C270.321 247.918 270.474 248.662 270.781 249.276C271.094 249.889 271.528 250.358 272.085 250.682C272.642 251 273.293 251.159 274.037 251.159C274.52 251.159 274.96 251.091 275.358 250.955C275.756 250.812 276.099 250.602 276.389 250.324C276.679 250.045 276.901 249.702 277.054 249.293L279.466 249.727C279.273 250.437 278.926 251.06 278.426 251.594C277.932 252.122 277.31 252.534 276.56 252.83C275.815 253.119 274.966 253.264 274.011 253.264ZM288.566 239.909V241.955H281.415V239.909H288.566ZM283.333 236.773H285.881V249.156C285.881 249.651 285.955 250.023 286.103 250.273C286.251 250.517 286.441 250.685 286.674 250.776C286.913 250.861 287.171 250.903 287.45 250.903C287.654 250.903 287.833 250.889 287.987 250.861C288.14 250.832 288.259 250.81 288.344 250.793L288.805 252.898C288.657 252.955 288.447 253.011 288.174 253.068C287.901 253.131 287.56 253.165 287.151 253.17C286.481 253.182 285.856 253.062 285.276 252.812C284.697 252.562 284.228 252.176 283.87 251.653C283.512 251.131 283.333 250.474 283.333 249.685V236.773Z" fill="white"/>
<path d="M115.362 36V22.9091H120.373C121.319 22.9091 122.105 23.0582 122.732 23.3565C123.362 23.6506 123.833 24.0533 124.144 24.5646C124.46 25.076 124.617 25.6555 124.617 26.3033C124.617 26.8359 124.515 27.2919 124.31 27.6712C124.106 28.0462 123.831 28.3509 123.486 28.5852C123.141 28.8196 122.755 28.9879 122.329 29.0902V29.218C122.793 29.2436 123.239 29.3864 123.665 29.6463C124.095 29.902 124.447 30.2642 124.719 30.733C124.992 31.2017 125.129 31.7685 125.129 32.4332C125.129 33.1108 124.964 33.7202 124.636 34.2614C124.308 34.7983 123.814 35.2223 123.153 35.5334C122.493 35.8445 121.662 36 120.661 36H115.362ZM117.733 34.0185H120.283C121.144 34.0185 121.764 33.8544 122.143 33.5263C122.527 33.1939 122.719 32.7678 122.719 32.2479C122.719 31.8601 122.623 31.5107 122.431 31.1996C122.239 30.8842 121.967 30.6371 121.613 30.4581C121.259 30.2749 120.837 30.1832 120.347 30.1832H117.733V34.0185ZM117.733 28.4766H120.079C120.488 28.4766 120.857 28.402 121.185 28.2528C121.513 28.0994 121.771 27.8842 121.958 27.6072C122.15 27.326 122.246 26.9936 122.246 26.6101C122.246 26.103 122.067 25.6854 121.709 25.3572C121.355 25.0291 120.829 24.8651 120.13 24.8651H117.733V28.4766ZM131.436 36.1918C130.452 36.1918 129.601 35.9872 128.885 35.5781C128.174 35.1648 127.626 34.581 127.243 33.8267C126.859 33.0682 126.667 32.1754 126.667 31.1484C126.667 30.1385 126.859 29.2521 127.243 28.4893C127.631 27.7223 128.172 27.1257 128.866 26.6996C129.561 26.2692 130.377 26.054 131.314 26.054C131.92 26.054 132.491 26.152 133.028 26.348C133.569 26.5398 134.046 26.8381 134.459 27.2429C134.877 27.6477 135.205 28.1634 135.444 28.7898C135.682 29.4119 135.802 30.1534 135.802 31.0142V31.7237H127.754V30.1641H133.584C133.579 29.7209 133.483 29.3267 133.296 28.9815C133.108 28.6321 132.846 28.3572 132.51 28.157C132.177 27.9567 131.79 27.8565 131.346 27.8565C130.873 27.8565 130.458 27.9716 130.1 28.2017C129.742 28.4276 129.463 28.7259 129.263 29.0966C129.067 29.4631 128.966 29.8658 128.962 30.3047V31.6662C128.962 32.2372 129.067 32.7273 129.275 33.1364C129.484 33.5412 129.776 33.8523 130.151 34.0696C130.526 34.2827 130.965 34.3892 131.468 34.3892C131.805 34.3892 132.109 34.3423 132.382 34.2486C132.655 34.1506 132.891 34.0078 133.091 33.8203C133.292 33.6328 133.443 33.4006 133.545 33.1236L135.706 33.3665C135.569 33.9375 135.309 34.4361 134.926 34.8622C134.547 35.2841 134.061 35.6122 133.469 35.8466C132.876 36.0767 132.199 36.1918 131.436 36.1918ZM140.073 30.2472V36H137.759V26.1818H139.971V27.8501H140.086C140.312 27.3004 140.672 26.8636 141.166 26.5398C141.665 26.2159 142.281 26.054 143.013 26.054C143.691 26.054 144.281 26.1989 144.784 26.4886C145.291 26.7784 145.683 27.1982 145.96 27.7479C146.241 28.2976 146.38 28.9645 146.376 29.7486V36H144.062V30.1065C144.062 29.4503 143.891 28.9368 143.55 28.5661C143.214 28.1953 142.747 28.0099 142.151 28.0099C141.746 28.0099 141.386 28.0994 141.07 28.2784C140.759 28.4531 140.514 28.7067 140.335 29.0391C140.161 29.3714 140.073 29.7741 140.073 30.2472ZM153.075 36.1918C152.09 36.1918 151.24 35.9872 150.524 35.5781C149.813 35.1648 149.265 34.581 148.881 33.8267C148.498 33.0682 148.306 32.1754 148.306 31.1484C148.306 30.1385 148.498 29.2521 148.881 28.4893C149.269 27.7223 149.81 27.1257 150.505 26.6996C151.2 26.2692 152.016 26.054 152.953 26.054C153.558 26.054 154.129 26.152 154.666 26.348C155.207 26.5398 155.685 26.8381 156.098 27.2429C156.516 27.6477 156.844 28.1634 157.082 28.7898C157.321 29.4119 157.44 30.1534 157.44 31.0142V31.7237H149.393V30.1641H155.222C155.218 29.7209 155.122 29.3267 154.935 28.9815C154.747 28.6321 154.485 28.3572 154.148 28.157C153.816 27.9567 153.428 27.8565 152.985 27.8565C152.512 27.8565 152.097 27.9716 151.739 28.2017C151.381 28.4276 151.102 28.7259 150.901 29.0966C150.705 29.4631 150.605 29.8658 150.601 30.3047V31.6662C150.601 32.2372 150.705 32.7273 150.914 33.1364C151.123 33.5412 151.415 33.8523 151.79 34.0696C152.165 34.2827 152.604 34.3892 153.107 34.3892C153.443 34.3892 153.748 34.3423 154.021 34.2486C154.293 34.1506 154.53 34.0078 154.73 33.8203C154.93 33.6328 155.082 33.4006 155.184 33.1236L157.344 33.3665C157.208 33.9375 156.948 34.4361 156.565 34.8622C156.185 35.2841 155.7 35.6122 155.107 35.8466C154.515 36.0767 153.837 36.1918 153.075 36.1918ZM164.371 26.1818V27.9716H158.567V26.1818H164.371ZM160.018 36V25.255C160.018 24.5945 160.154 24.0447 160.427 23.6058C160.704 23.1669 161.075 22.8388 161.539 22.6214C162.004 22.4041 162.519 22.2955 163.086 22.2955C163.487 22.2955 163.843 22.3274 164.154 22.3913C164.465 22.4553 164.695 22.5128 164.844 22.5639L164.384 24.3537C164.286 24.3239 164.162 24.294 164.013 24.2642C163.864 24.2301 163.698 24.2131 163.514 24.2131C163.084 24.2131 162.779 24.3175 162.6 24.5263C162.426 24.7308 162.338 25.0249 162.338 25.4084V36H160.018ZM166.183 36V26.1818H168.497V36H166.183ZM167.346 24.7884C166.98 24.7884 166.665 24.6669 166.4 24.424C166.136 24.1768 166.004 23.8807 166.004 23.5355C166.004 23.1861 166.136 22.8899 166.4 22.647C166.665 22.3999 166.98 22.2763 167.346 22.2763C167.717 22.2763 168.032 22.3999 168.292 22.647C168.557 22.8899 168.689 23.1861 168.689 23.5355C168.689 23.8807 168.557 24.1768 168.292 24.424C168.032 24.6669 167.717 24.7884 167.346 24.7884ZM175.779 26.1818V27.9716H170.135V26.1818H175.779ZM171.528 23.8295H173.842V33.0469C173.842 33.358 173.889 33.5966 173.983 33.7628C174.081 33.9247 174.209 34.0355 174.366 34.0952C174.524 34.1548 174.699 34.1847 174.891 34.1847C175.036 34.1847 175.168 34.174 175.287 34.1527C175.411 34.1314 175.504 34.1122 175.568 34.0952L175.958 35.9041C175.835 35.9467 175.658 35.9936 175.428 36.0447C175.202 36.0959 174.925 36.1257 174.597 36.1342C174.017 36.1513 173.495 36.0639 173.031 35.8722C172.566 35.6761 172.197 35.3736 171.925 34.9645C171.656 34.5554 171.524 34.044 171.528 33.4304V23.8295ZM185.334 28.777L183.224 29.0071C183.165 28.794 183.06 28.5938 182.911 28.4062C182.766 28.2188 182.57 28.0675 182.323 27.9524C182.076 27.8374 181.773 27.7798 181.415 27.7798C180.934 27.7798 180.529 27.8842 180.201 28.093C179.877 28.3018 179.717 28.5724 179.721 28.9048C179.717 29.1903 179.822 29.4226 180.035 29.6016C180.252 29.7805 180.61 29.9276 181.108 30.0426L182.783 30.4006C183.712 30.6009 184.403 30.9183 184.854 31.353C185.31 31.7876 185.54 32.3565 185.545 33.0597C185.54 33.6776 185.359 34.223 185.001 34.696C184.648 35.1648 184.155 35.5312 183.525 35.7955C182.894 36.0597 182.17 36.1918 181.351 36.1918C180.15 36.1918 179.182 35.9403 178.449 35.4375C177.716 34.9304 177.28 34.2251 177.139 33.3217L179.395 33.1044C179.498 33.5476 179.715 33.8821 180.047 34.108C180.38 34.3338 180.812 34.4467 181.345 34.4467C181.895 34.4467 182.336 34.3338 182.668 34.108C183.005 33.8821 183.173 33.603 183.173 33.2706C183.173 32.9893 183.064 32.7571 182.847 32.5739C182.634 32.3906 182.302 32.25 181.85 32.152L180.175 31.8004C179.233 31.6044 178.537 31.2741 178.085 30.8097C177.633 30.3409 177.41 29.7486 177.414 29.0327C177.41 28.4276 177.574 27.9034 177.906 27.4602C178.243 27.0128 178.709 26.6676 179.306 26.4247C179.907 26.1776 180.599 26.054 181.383 26.054C182.534 26.054 183.439 26.299 184.1 26.7891C184.765 27.2791 185.176 27.9418 185.334 28.777ZM196.2 36.1918C195.241 36.1918 194.41 35.9808 193.707 35.5589C193.004 35.1371 192.459 34.5469 192.071 33.7884C191.687 33.0298 191.496 32.1435 191.496 31.1293C191.496 30.1151 191.687 29.2266 192.071 28.4638C192.459 27.701 193.004 27.1087 193.707 26.6868C194.41 26.2649 195.241 26.054 196.2 26.054C197.159 26.054 197.99 26.2649 198.693 26.6868C199.396 27.1087 199.939 27.701 200.323 28.4638C200.711 29.2266 200.905 30.1151 200.905 31.1293C200.905 32.1435 200.711 33.0298 200.323 33.7884C199.939 34.5469 199.396 35.1371 198.693 35.5589C197.99 35.9808 197.159 36.1918 196.2 36.1918ZM196.213 34.3381C196.733 34.3381 197.167 34.1953 197.517 33.9098C197.866 33.62 198.126 33.2322 198.297 32.7464C198.471 32.2607 198.559 31.7195 198.559 31.1229C198.559 30.522 198.471 29.9787 198.297 29.4929C198.126 29.0028 197.866 28.6129 197.517 28.3232C197.167 28.0334 196.733 27.8885 196.213 27.8885C195.68 27.8885 195.237 28.0334 194.883 28.3232C194.534 28.6129 194.272 29.0028 194.097 29.4929C193.927 29.9787 193.841 30.522 193.841 31.1229C193.841 31.7195 193.927 32.2607 194.097 32.7464C194.272 33.2322 194.534 33.62 194.883 33.9098C195.237 34.1953 195.68 34.3381 196.213 34.3381ZM207.842 26.1818V27.9716H202.038V26.1818H207.842ZM203.489 36V25.255C203.489 24.5945 203.625 24.0447 203.898 23.6058C204.175 23.1669 204.545 22.8388 205.01 22.6214C205.474 22.4041 205.99 22.2955 206.557 22.2955C206.957 22.2955 207.313 22.3274 207.624 22.3913C207.935 22.4553 208.165 22.5128 208.315 22.5639L207.854 24.3537C207.756 24.3239 207.633 24.294 207.484 24.2642C207.335 24.2301 207.168 24.2131 206.985 24.2131C206.555 24.2131 206.25 24.3175 206.071 24.5263C205.896 24.7308 205.809 25.0249 205.809 25.4084V36H203.489ZM58.1919 64V54.1818H60.5058V64H58.1919ZM59.3552 52.7884C58.9887 52.7884 58.6734 52.6669 58.4092 52.424C58.145 52.1768 58.0129 51.8807 58.0129 51.5355C58.0129 51.1861 58.145 50.8899 58.4092 50.647C58.6734 50.3999 58.9887 50.2763 59.3552 50.2763C59.7259 50.2763 60.0413 50.3999 60.3012 50.647C60.5654 50.8899 60.6975 51.1861 60.6975 51.5355C60.6975 51.8807 60.5654 52.1768 60.3012 52.424C60.0413 52.6669 59.7259 52.7884 59.3552 52.7884ZM62.8852 64V54.1818H65.0969V55.8501H65.2119C65.4165 55.2876 65.7552 54.8487 66.2282 54.5334C66.7013 54.2138 67.2659 54.054 67.9221 54.054C68.5869 54.054 69.1473 54.2159 69.6032 54.5398C70.0635 54.8594 70.3873 55.2962 70.5748 55.8501H70.6771C70.8944 55.3047 71.2609 54.87 71.7765 54.5462C72.2964 54.218 72.9122 54.054 73.6238 54.054C74.5273 54.054 75.2645 54.3395 75.8355 54.9105C76.4065 55.4815 76.692 56.3146 76.692 57.4098V64H74.3717V57.7678C74.3717 57.1584 74.2098 56.7131 73.8859 56.4318C73.5621 56.1463 73.1657 56.0036 72.697 56.0036C72.1388 56.0036 71.702 56.1783 71.3866 56.5277C71.0756 56.8729 70.92 57.3224 70.92 57.8764V64H68.6508V57.6719C68.6508 57.1648 68.4974 56.7599 68.1906 56.4574C67.8881 56.1548 67.4917 56.0036 67.0017 56.0036C66.6693 56.0036 66.3667 56.0888 66.094 56.2592C65.8213 56.4254 65.604 56.6619 65.442 56.9688C65.2801 57.2713 65.1991 57.625 65.1991 58.0298V64H62.8852ZM79.0395 67.6818V54.1818H81.3151V55.8054H81.4493C81.5686 55.5668 81.7369 55.3132 81.9543 55.0447C82.1716 54.772 82.4656 54.5398 82.8364 54.348C83.2071 54.152 83.6801 54.054 84.2554 54.054C85.0139 54.054 85.6979 54.2479 86.3073 54.6357C86.9209 55.0192 87.4067 55.5881 87.7646 56.3423C88.1269 57.0923 88.308 58.0128 88.308 59.1037C88.308 60.1818 88.1311 61.098 87.7774 61.8523C87.4237 62.6065 86.9422 63.1818 86.3328 63.5781C85.7235 63.9744 85.0331 64.1726 84.2618 64.1726C83.6993 64.1726 83.2327 64.0788 82.8619 63.8913C82.4912 63.7038 82.1929 63.478 81.9671 63.2138C81.7455 62.9453 81.5729 62.6918 81.4493 62.4531H81.3534V67.6818H79.0395ZM81.3087 59.0909C81.3087 59.7259 81.3982 60.282 81.5771 60.7592C81.7604 61.2365 82.0225 61.6094 82.3634 61.8778C82.7085 62.142 83.1262 62.2741 83.6162 62.2741C84.1276 62.2741 84.5558 62.1378 84.901 61.8651C85.2462 61.5881 85.5061 61.2109 85.6808 60.7337C85.8598 60.2521 85.9493 59.7045 85.9493 59.0909C85.9493 58.4815 85.8619 57.9403 85.6872 57.4673C85.5125 56.9943 85.2526 56.6236 84.9074 56.3551C84.5622 56.0866 84.1318 55.9524 83.6162 55.9524C83.1219 55.9524 82.7021 56.0824 82.357 56.3423C82.0118 56.6023 81.7497 56.9666 81.5708 57.4354C81.396 57.9041 81.3087 58.456 81.3087 59.0909ZM90.2895 64V54.1818H92.5331V55.8182H92.6354C92.8144 55.2514 93.1212 54.8146 93.5558 54.5078C93.9948 54.1967 94.4955 54.0412 95.058 54.0412C95.1858 54.0412 95.3286 54.0476 95.4862 54.0604C95.6482 54.0689 95.7824 54.0838 95.8889 54.1051V56.2337C95.7909 56.1996 95.6354 56.1697 95.4223 56.1442C95.2135 56.1143 95.0111 56.0994 94.8151 56.0994C94.3932 56.0994 94.0139 56.1911 93.6773 56.3743C93.3449 56.5533 93.0828 56.8026 92.8911 57.1222C92.6993 57.4418 92.6034 57.8104 92.6034 58.228V64H90.2895ZM101.305 64.1918C100.346 64.1918 99.5148 63.9808 98.8117 63.5589C98.1086 63.1371 97.5631 62.5469 97.1753 61.7884C96.7918 61.0298 96.6001 60.1435 96.6001 59.1293C96.6001 58.1151 96.7918 57.2266 97.1753 56.4638C97.5631 55.701 98.1086 55.1087 98.8117 54.6868C99.5148 54.2649 100.346 54.054 101.305 54.054C102.263 54.054 103.094 54.2649 103.797 54.6868C104.501 55.1087 105.044 55.701 105.427 56.4638C105.815 57.2266 106.009 58.1151 106.009 59.1293C106.009 60.1435 105.815 61.0298 105.427 61.7884C105.044 62.5469 104.501 63.1371 103.797 63.5589C103.094 63.9808 102.263 64.1918 101.305 64.1918ZM101.317 62.3381C101.837 62.3381 102.272 62.1953 102.621 61.9098C102.971 61.62 103.231 61.2322 103.401 60.7464C103.576 60.2607 103.663 59.7195 103.663 59.1229C103.663 58.522 103.576 57.9787 103.401 57.4929C103.231 57.0028 102.971 56.6129 102.621 56.3232C102.272 56.0334 101.837 55.8885 101.317 55.8885C100.785 55.8885 100.342 56.0334 99.9878 56.3232C99.6384 56.6129 99.3763 57.0028 99.2016 57.4929C99.0312 57.9787 98.9459 58.522 98.9459 59.1229C98.9459 59.7195 99.0312 60.2607 99.2016 60.7464C99.3763 61.2322 99.6384 61.62 99.9878 61.9098C100.342 62.1953 100.785 62.3381 101.317 62.3381ZM116.409 54.1818L112.913 64H110.356L106.859 54.1818H109.327L111.583 61.4751H111.685L113.948 54.1818H116.409ZM118.01 64V54.1818H120.324V64H118.01ZM119.174 52.7884C118.807 52.7884 118.492 52.6669 118.228 52.424C117.963 52.1768 117.831 51.8807 117.831 51.5355C117.831 51.1861 117.963 50.8899 118.228 50.647C118.492 50.3999 118.807 50.2763 119.174 50.2763C119.544 50.2763 119.86 50.3999 120.12 50.647C120.384 50.8899 120.516 51.1861 120.516 51.5355C120.516 51.8807 120.384 52.1768 120.12 52.424C119.86 52.6669 119.544 52.7884 119.174 52.7884ZM125.017 58.2472V64H122.704V54.1818H124.915V55.8501H125.03C125.256 55.3004 125.616 54.8636 126.111 54.5398C126.609 54.2159 127.225 54.054 127.958 54.054C128.635 54.054 129.226 54.1989 129.728 54.4886C130.236 54.7784 130.628 55.1982 130.905 55.7479C131.186 56.2976 131.324 56.9645 131.32 57.7486V64H129.006V58.1065C129.006 57.4503 128.836 56.9368 128.495 56.5661C128.158 56.1953 127.691 56.0099 127.095 56.0099C126.69 56.0099 126.33 56.0994 126.015 56.2784C125.704 56.4531 125.459 56.7067 125.28 57.0391C125.105 57.3714 125.017 57.7741 125.017 58.2472ZM137.942 67.8864C137.111 67.8864 136.397 67.7734 135.801 67.5476C135.204 67.326 134.725 67.0277 134.363 66.6527C134 66.2777 133.749 65.8622 133.608 65.4062L135.692 64.9013C135.786 65.093 135.922 65.2827 136.101 65.4702C136.28 65.6619 136.521 65.8196 136.824 65.9432C137.13 66.071 137.516 66.1349 137.981 66.1349C138.637 66.1349 139.18 65.9751 139.611 65.6555C140.041 65.3402 140.256 64.8203 140.256 64.0959V62.2358H140.141C140.022 62.4744 139.847 62.7195 139.617 62.9709C139.391 63.2223 139.091 63.4332 138.716 63.6037C138.345 63.7741 137.878 63.8594 137.316 63.8594C136.562 63.8594 135.878 63.6825 135.264 63.3288C134.655 62.9709 134.169 62.4382 133.807 61.7308C133.449 61.0192 133.27 60.1286 133.27 59.0589C133.27 57.9808 133.449 57.071 133.807 56.3295C134.169 55.5838 134.657 55.0192 135.27 54.6357C135.884 54.2479 136.568 54.054 137.322 54.054C137.897 54.054 138.37 54.152 138.741 54.348C139.116 54.5398 139.415 54.772 139.636 55.0447C139.858 55.3132 140.026 55.5668 140.141 55.8054H140.269V54.1818H142.551V64.1598C142.551 64.9993 142.351 65.6939 141.95 66.2436C141.549 66.7933 141.002 67.2045 140.307 67.4773C139.613 67.75 138.824 67.8864 137.942 67.8864ZM137.961 62.044C138.451 62.044 138.869 61.9247 139.214 61.6861C139.559 61.4474 139.821 61.1044 140 60.657C140.179 60.2095 140.269 59.6726 140.269 59.0462C140.269 58.4283 140.179 57.8871 140 57.4226C139.826 56.9581 139.566 56.598 139.221 56.3423C138.88 56.0824 138.46 55.9524 137.961 55.9524C137.446 55.9524 137.015 56.0866 136.67 56.3551C136.325 56.6236 136.065 56.9922 135.89 57.4609C135.716 57.9254 135.628 58.4538 135.628 59.0462C135.628 59.647 135.716 60.1733 135.89 60.625C136.069 61.0724 136.331 61.4219 136.677 61.6733C137.026 61.9205 137.454 62.044 137.961 62.044ZM150.825 67.6818C150.51 67.6818 150.218 67.6563 149.95 67.6051C149.685 67.5582 149.475 67.5028 149.317 67.4389L149.854 65.6364C150.19 65.7344 150.491 65.7813 150.755 65.777C151.019 65.7727 151.252 65.6896 151.452 65.5277C151.656 65.37 151.829 65.1058 151.97 64.7351L152.168 64.2045L148.607 54.1818H151.062L153.325 61.5966H153.427L155.696 54.1818H158.157L154.226 65.1889C154.043 65.7088 153.8 66.1541 153.497 66.5249C153.195 66.8999 152.824 67.1854 152.385 67.3814C151.95 67.5817 151.43 67.6818 150.825 67.6818ZM163.707 64.1918C162.748 64.1918 161.917 63.9808 161.214 63.5589C160.511 63.1371 159.965 62.5469 159.578 61.7884C159.194 61.0298 159.002 60.1435 159.002 59.1293C159.002 58.1151 159.194 57.2266 159.578 56.4638C159.965 55.701 160.511 55.1087 161.214 54.6868C161.917 54.2649 162.748 54.054 163.707 54.054C164.666 54.054 165.497 54.2649 166.2 54.6868C166.903 55.1087 167.446 55.701 167.83 56.4638C168.218 57.2266 168.411 58.1151 168.411 59.1293C168.411 60.1435 168.218 61.0298 167.83 61.7884C167.446 62.5469 166.903 63.1371 166.2 63.5589C165.497 63.9808 164.666 64.1918 163.707 64.1918ZM163.72 62.3381C164.24 62.3381 164.674 62.1953 165.024 61.9098C165.373 61.62 165.633 61.2322 165.804 60.7464C165.978 60.2607 166.066 59.7195 166.066 59.1229C166.066 58.522 165.978 57.9787 165.804 57.4929C165.633 57.0028 165.373 56.6129 165.024 56.3232C164.674 56.0334 164.24 55.8885 163.72 55.8885C163.187 55.8885 162.744 56.0334 162.39 56.3232C162.041 56.6129 161.779 57.0028 161.604 57.4929C161.434 57.9787 161.348 58.522 161.348 59.1229C161.348 59.7195 161.434 60.2607 161.604 60.7464C161.779 61.2322 162.041 61.62 162.39 61.9098C162.744 62.1953 163.187 62.3381 163.72 62.3381ZM176.633 59.8707V54.1818H178.947V64H176.704V62.255H176.601C176.38 62.8047 176.015 63.2543 175.508 63.6037C175.005 63.9531 174.385 64.1278 173.648 64.1278C173.005 64.1278 172.436 63.9851 171.941 63.6996C171.451 63.4098 171.068 62.9901 170.791 62.4403C170.514 61.8864 170.375 61.2173 170.375 60.4332V54.1818H172.689V60.0753C172.689 60.6974 172.86 61.1918 173.201 61.5582C173.542 61.9247 173.989 62.108 174.543 62.108C174.884 62.108 175.214 62.0249 175.534 61.8587C175.853 61.6925 176.116 61.4453 176.32 61.1172C176.529 60.7848 176.633 60.3693 176.633 59.8707ZM181.327 64V54.1818H183.57V55.8182H183.672C183.851 55.2514 184.158 54.8146 184.593 54.5078C185.032 54.1967 185.533 54.0412 186.095 54.0412C186.223 54.0412 186.366 54.0476 186.523 54.0604C186.685 54.0689 186.82 54.0838 186.926 54.1051V56.2337C186.828 56.1996 186.672 56.1697 186.459 56.1442C186.251 56.1143 186.048 56.0994 185.852 56.0994C185.43 56.0994 185.051 56.1911 184.714 56.3743C184.382 56.5533 184.12 56.8026 183.928 57.1222C183.736 57.4418 183.641 57.8104 183.641 58.228V64H181.327ZM193.03 64V50.9091H195.344V55.8054H195.44C195.56 55.5668 195.728 55.3132 195.945 55.0447C196.163 54.772 196.457 54.5398 196.827 54.348C197.198 54.152 197.671 54.054 198.246 54.054C199.005 54.054 199.689 54.2479 200.298 54.6357C200.912 55.0192 201.398 55.5881 201.756 56.3423C202.118 57.0923 202.299 58.0128 202.299 59.1037C202.299 60.1818 202.122 61.098 201.768 61.8523C201.415 62.6065 200.933 63.1818 200.324 63.5781C199.714 63.9744 199.024 64.1726 198.253 64.1726C197.69 64.1726 197.224 64.0788 196.853 63.8913C196.482 63.7038 196.184 63.478 195.958 63.2138C195.736 62.9453 195.564 62.6918 195.44 62.4531H195.306V64H193.03ZM195.3 59.0909C195.3 59.7259 195.389 60.282 195.568 60.7592C195.751 61.2365 196.013 61.6094 196.354 61.8778C196.699 62.142 197.117 62.2741 197.607 62.2741C198.119 62.2741 198.547 62.1378 198.892 61.8651C199.237 61.5881 199.497 61.2109 199.672 60.7337C199.851 60.2521 199.94 59.7045 199.94 59.0909C199.94 58.4815 199.853 57.9403 199.678 57.4673C199.503 56.9943 199.244 56.6236 198.898 56.3551C198.553 56.0866 198.123 55.9524 197.607 55.9524C197.113 55.9524 196.693 56.0824 196.348 56.3423C196.003 56.6023 195.741 56.9666 195.562 57.4354C195.387 57.9041 195.3 58.456 195.3 59.0909ZM210.524 59.8707V54.1818H212.838V64H210.594V62.255H210.492C210.27 62.8047 209.906 63.2543 209.399 63.6037C208.896 63.9531 208.276 64.1278 207.539 64.1278C206.895 64.1278 206.326 63.9851 205.832 63.6996C205.342 63.4098 204.959 62.9901 204.682 62.4403C204.405 61.8864 204.266 61.2173 204.266 60.4332V54.1818H206.58V60.0753C206.58 60.6974 206.75 61.1918 207.091 61.5582C207.432 61.9247 207.88 62.108 208.434 62.108C208.775 62.108 209.105 62.0249 209.424 61.8587C209.744 61.6925 210.006 61.4453 210.211 61.1172C210.419 60.7848 210.524 60.3693 210.524 59.8707ZM222.977 56.777L220.868 57.0071C220.808 56.794 220.704 56.5938 220.555 56.4062C220.41 56.2188 220.214 56.0675 219.967 55.9524C219.719 55.8374 219.417 55.7798 219.059 55.7798C218.577 55.7798 218.172 55.8842 217.844 56.093C217.521 56.3018 217.361 56.5724 217.365 56.9048C217.361 57.1903 217.465 57.4226 217.678 57.6016C217.896 57.7805 218.253 57.9276 218.752 58.0426L220.427 58.4006C221.356 58.6009 222.046 58.9183 222.498 59.353C222.954 59.7876 223.184 60.3565 223.188 61.0597C223.184 61.6776 223.003 62.223 222.645 62.696C222.291 63.1648 221.799 63.5312 221.168 63.7955C220.538 64.0597 219.813 64.1918 218.995 64.1918C217.793 64.1918 216.826 63.9403 216.093 63.4375C215.36 62.9304 214.923 62.2251 214.783 61.3217L217.039 61.1044C217.141 61.5476 217.359 61.8821 217.691 62.108C218.023 62.3338 218.456 62.4467 218.989 62.4467C219.538 62.4467 219.979 62.3338 220.312 62.108C220.648 61.8821 220.817 61.603 220.817 61.2706C220.817 60.9893 220.708 60.7571 220.491 60.5739C220.278 60.3906 219.945 60.25 219.494 60.152L217.819 59.8004C216.877 59.6044 216.18 59.2741 215.729 58.8097C215.277 58.3409 215.053 57.7486 215.057 57.0327C215.053 56.4276 215.217 55.9034 215.55 55.4602C215.886 55.0128 216.353 54.6676 216.949 54.4247C217.55 54.1776 218.243 54.054 219.027 54.054C220.177 54.054 221.083 54.299 221.744 54.7891C222.408 55.2791 222.82 55.9418 222.977 56.777ZM225.096 64V54.1818H227.41V64H225.096ZM226.259 52.7884C225.893 52.7884 225.578 52.6669 225.313 52.424C225.049 52.1768 224.917 51.8807 224.917 51.5355C224.917 51.1861 225.049 50.8899 225.313 50.647C225.578 50.3999 225.893 50.2763 226.259 50.2763C226.63 50.2763 226.946 50.3999 227.206 50.647C227.47 50.8899 227.602 51.1861 227.602 51.5355C227.602 51.8807 227.47 52.1768 227.206 52.424C226.946 52.6669 226.63 52.7884 226.259 52.7884ZM232.103 58.2472V64H229.79V54.1818H232.001V55.8501H232.116C232.342 55.3004 232.702 54.8636 233.196 54.5398C233.695 54.2159 234.311 54.054 235.044 54.054C235.721 54.054 236.312 54.1989 236.814 54.4886C237.321 54.7784 237.714 55.1982 237.991 55.7479C238.272 56.2976 238.41 56.9645 238.406 57.7486V64H236.092V58.1065C236.092 57.4503 235.922 56.9368 235.581 56.5661C235.244 56.1953 234.777 56.0099 234.181 56.0099C233.776 56.0099 233.416 56.0994 233.101 56.2784C232.79 56.4531 232.544 56.7067 232.366 57.0391C232.191 57.3714 232.103 57.7741 232.103 58.2472ZM245.105 64.1918C244.12 64.1918 243.27 63.9872 242.554 63.5781C241.843 63.1648 241.295 62.581 240.912 61.8267C240.528 61.0682 240.336 60.1754 240.336 59.1484C240.336 58.1385 240.528 57.2521 240.912 56.4893C241.299 55.7223 241.841 55.1257 242.535 54.6996C243.23 54.2692 244.046 54.054 244.983 54.054C245.589 54.054 246.16 54.152 246.696 54.348C247.238 54.5398 247.715 54.8381 248.128 55.2429C248.546 55.6477 248.874 56.1634 249.113 56.7898C249.351 57.4119 249.471 58.1534 249.471 59.0142V59.7237H241.423V58.1641H247.253C247.248 57.7209 247.152 57.3267 246.965 56.9815C246.777 56.6321 246.515 56.3572 246.179 56.157C245.846 55.9567 245.459 55.8565 245.015 55.8565C244.542 55.8565 244.127 55.9716 243.769 56.2017C243.411 56.4276 243.132 56.7259 242.932 57.0966C242.736 57.4631 242.635 57.8658 242.631 58.3047V59.6662C242.631 60.2372 242.736 60.7273 242.944 61.1364C243.153 61.5412 243.445 61.8523 243.82 62.0696C244.195 62.2827 244.634 62.3892 245.137 62.3892C245.473 62.3892 245.778 62.3423 246.051 62.2486C246.324 62.1506 246.56 62.0078 246.76 61.8203C246.961 61.6328 247.112 61.4006 247.214 61.1236L249.375 61.3665C249.238 61.9375 248.978 62.4361 248.595 62.8622C248.216 63.2841 247.73 63.6122 247.138 63.8466C246.545 64.0767 245.868 64.1918 245.105 64.1918ZM259.188 56.777L257.079 57.0071C257.019 56.794 256.915 56.5938 256.766 56.4062C256.621 56.2188 256.425 56.0675 256.177 55.9524C255.93 55.8374 255.628 55.7798 255.27 55.7798C254.788 55.7798 254.383 55.8842 254.055 56.093C253.731 56.3018 253.572 56.5724 253.576 56.9048C253.572 57.1903 253.676 57.4226 253.889 57.6016C254.106 57.7805 254.464 57.9276 254.963 58.0426L256.638 58.4006C257.567 58.6009 258.257 58.9183 258.709 59.353C259.165 59.7876 259.395 60.3565 259.399 61.0597C259.395 61.6776 259.214 62.223 258.856 62.696C258.502 63.1648 258.01 63.5312 257.379 63.7955C256.748 64.0597 256.024 64.1918 255.206 64.1918C254.004 64.1918 253.037 63.9403 252.304 63.4375C251.571 62.9304 251.134 62.2251 250.994 61.3217L253.25 61.1044C253.352 61.5476 253.57 61.8821 253.902 62.108C254.234 62.3338 254.667 62.4467 255.199 62.4467C255.749 62.4467 256.19 62.3338 256.523 62.108C256.859 61.8821 257.028 61.603 257.028 61.2706C257.028 60.9893 256.919 60.7571 256.702 60.5739C256.489 60.3906 256.156 60.25 255.704 60.152L254.03 59.8004C253.088 59.6044 252.391 59.2741 251.94 58.8097C251.488 58.3409 251.264 57.7486 251.268 57.0327C251.264 56.4276 251.428 55.9034 251.761 55.4602C252.097 55.0128 252.564 54.6676 253.16 54.4247C253.761 54.1776 254.454 54.054 255.238 54.054C256.388 54.054 257.294 54.299 257.954 54.7891C258.619 55.2791 259.03 55.9418 259.188 56.777ZM269.067 56.777L266.958 57.0071C266.898 56.794 266.794 56.5938 266.644 56.4062C266.5 56.2188 266.304 56.0675 266.056 55.9524C265.809 55.8374 265.507 55.7798 265.149 55.7798C264.667 55.7798 264.262 55.8842 263.934 56.093C263.61 56.3018 263.451 56.5724 263.455 56.9048C263.451 57.1903 263.555 57.4226 263.768 57.6016C263.985 57.7805 264.343 57.9276 264.842 58.0426L266.517 58.4006C267.446 58.6009 268.136 58.9183 268.588 59.353C269.044 59.7876 269.274 60.3565 269.278 61.0597C269.274 61.6776 269.093 62.223 268.735 62.696C268.381 63.1648 267.889 63.5312 267.258 63.7955C266.627 64.0597 265.903 64.1918 265.085 64.1918C263.883 64.1918 262.916 63.9403 262.183 63.4375C261.45 62.9304 261.013 62.2251 260.872 61.3217L263.129 61.1044C263.231 61.5476 263.448 61.8821 263.781 62.108C264.113 62.3338 264.546 62.4467 265.078 62.4467C265.628 62.4467 266.069 62.3338 266.402 62.108C266.738 61.8821 266.907 61.603 266.907 61.2706C266.907 60.9893 266.798 60.7571 266.581 60.5739C266.367 60.3906 266.035 60.25 265.583 60.152L263.909 59.8004C262.967 59.6044 262.27 59.2741 261.818 58.8097C261.367 58.3409 261.143 57.7486 261.147 57.0327C261.143 56.4276 261.307 55.9034 261.639 55.4602C261.976 55.0128 262.443 54.6676 263.039 54.4247C263.64 54.1776 264.333 54.054 265.117 54.054C266.267 54.054 267.173 54.299 267.833 54.7891C268.498 55.2791 268.909 55.9418 269.067 56.777Z" fill="white"/>
<circle cx="146" cy="306" r="3" fill="white"/>
<circle opacity="0.5" cx="158" cy="306" r="3" fill="white"/>
<circle opacity="0.5" cx="170" cy="306" r="3" fill="white"/>
<circle opacity="0.5" cx="182" cy="306" r="3" fill="white"/>
</g>
<defs>
<filter id="filter0_b_169_1308" x="-100" y="-100" width="527" height="547" filterUnits="userSpaceOnUse" color-interpolation-filters="sRGB">
<feFlood flood-opacity="0" result="BackgroundImageFix"/>
<feGaussianBlur in="BackgroundImageFix" stdDeviation="50"/>
<feComposite in2="SourceAlpha" operator="in" result="effect1_backgroundBlur_169_1308"/>
<feBlend mode="normal" in="SourceGraphic" in2="effect1_backgroundBlur_169_1308" result="shape"/>
</filter>
<linearGradient id="paint0_linear_169_1308" x1="410.702" y1="283.029" x2="288.902" y2="-2.46854" gradientUnits="userSpaceOnUse">
<stop stop-color="#00796D"/>
<stop offset="1" stop-color="#38C682"/>
</linearGradient>
<linearGradient id="paint1_linear_169_1308" x1="327" y1="347" x2="-46.1861" y2="286.93" gradientUnits="userSpaceOnUse">
<stop stop-color="#00796D"/>
<stop offset="1" stop-color="#38C682"/>
</linearGradient>
<linearGradient id="paint2_linear_169_1308" x1="92" y1="232" x2="92" y2="-132" gradientUnits="userSpaceOnUse">
<stop stop-color="white"/>
<stop offset="1" stop-color="white" stop-opacity="0"/>
</linearGradient>
<linearGradient id="paint3_linear_169_1308" x1="110" y1="163.505" x2="218" y2="163.505" gradientUnits="userSpaceOnUse">
<stop stop-color="white"/>
<stop offset="1" stop-color="white" stop-opacity="0"/>
</linearGradient>
<linearGradient id="paint4_linear_169_1308" x1="208" y1="208" x2="107.889" y2="190.9" gradientUnits="userSpaceOnUse">
<stop stop-color="#00796D"/>
<stop offset="1" stop-color="#38C682"/>
</linearGradient>
<linearGradient id="paint5_linear_169_1308" x1="185.645" y1="185.667" x2="136.372" y2="177.254" gradientUnits="userSpaceOnUse">
<stop stop-color="#00796D"/>
<stop offset="1" stop-color="#38C682"/>
</linearGradient>
</defs>
</svg>
